<?xml version="1.0" encoding="utf-8"?>
<!-- Generator: Adobe Illustrator 25.3.1, SVG Export Plug-In . SVG Version: 6.00 Build 0)  -->
<svg version="1.1" id="Group_7" xmlns="http://www.w3.org/2000/svg" xmlns:xlink="http://www.w3.org/1999/xlink" x="0px" y="0px"
	 viewBox="0 0 28 28" style="enable-background:new 0 0 28 28;" xml:space="preserve">
<style type="text/css">
	.st0{fill:none;}
	.st1{fill:#C6D8E6;}
</style>
<rect class="st0" width="28" height="28"/>
<g>
	<path id="Path_7" class="st1" d="M25.86,7.1c-0.12-0.15-0.3-0.23-0.49-0.23H8.04l-0.9-4.06C7.07,2.52,6.82,2.32,6.52,2.31H2.63
		C2.29,2.31,2,2.6,2,2.94c0,0.35,0.28,0.63,0.63,0.63c0,0,0,0,0,0h3.38l3.7,16.61c0.06,0.29,0.32,0.49,0.62,0.49h12.24
		c0.35,0.01,0.64-0.26,0.66-0.61c0.01-0.35-0.26-0.64-0.61-0.66c-0.02,0-0.03,0-0.05,0H10.83l-0.45-2h13.04
		c0.3,0,0.56-0.21,0.62-0.5l1.94-9.28C26.03,7.45,25.98,7.25,25.86,7.1z M22.91,16.15h-12.8L8.32,8.13h16.26L22.91,16.15z"/>
	<path id="Path_8" class="st1" d="M12.47,21.89c-1.05,0-1.9,0.85-1.89,1.9c0,1.05,0.85,1.89,1.9,1.89c1.05,0,1.89-0.85,1.89-1.9
		c0,0,0,0,0,0C14.36,22.74,13.51,21.89,12.47,21.89C12.47,21.89,12.47,21.89,12.47,21.89z"/>
	<path id="Path_9" class="st1" d="M20.17,21.89c-1.05,0-1.9,0.85-1.9,1.89c0,1.05,0.85,1.9,1.89,1.9c1.05,0,1.9-0.85,1.9-1.89
		c0,0,0,0,0,0C22.06,22.74,21.21,21.89,20.17,21.89C20.17,21.89,20.17,21.89,20.17,21.89z"/>
</g>
</svg>
