<?xml version="1.0" encoding="utf-8"?>
<!-- Generator: Adobe Illustrator 25.3.1, SVG Export Plug-In . SVG Version: 6.00 Build 0)  -->
<svg version="1.1" id="Group_1" xmlns="http://www.w3.org/2000/svg" xmlns:xlink="http://www.w3.org/1999/xlink" x="0px" y="0px"
	 viewBox="0 0 28 28" style="enable-background:new 0 0 28 28;" xml:space="preserve">
<style type="text/css">
	.st0{fill:#C6D8E6;}
	.st1{fill:none;}
</style>
<g>
	<path id="Path_1" class="st0" d="M19.65,26H14c-1.95,0-3.53-1.58-3.53-3.53V14c0-1.95,1.58-3.53,3.53-3.53h5.65
		c1.95,0,3.53,1.58,3.53,3.53v8.47C23.17,24.42,21.59,26,19.65,26z M14,11.88c-1.17,0-2.12,0.95-2.12,2.12v8.47
		c0,1.17,0.95,2.12,2.12,2.12h5.65c1.17,0,2.12-0.95,2.12-2.12V14c0-1.17-0.95-2.12-2.12-2.12H14z"/>
	<path id="Path_2" class="st0" d="M9.06,16.12H8.35c-1.17,0-2.12-0.95-2.12-2.12V5.53c0-1.17,0.95-2.12,2.12-2.12H14
		c1.17,0,2.12,0.95,2.12,2.12v3.53h1.41V5.53C17.53,3.58,15.95,2,14,2H8.35C6.41,2,4.83,3.58,4.82,5.53V14
		c0,1.95,1.58,3.53,3.53,3.53h0.71V16.12z"/>
</g>
<rect class="st1" width="28" height="28"/>
</svg>
