<?xml version="1.0" encoding="utf-8"?>
<!-- Generator: Adobe Illustrator 25.3.1, SVG Export Plug-In . SVG Version: 6.00 Build 0)  -->
<svg version="1.1" id="Layer_1" xmlns="http://www.w3.org/2000/svg" xmlns:xlink="http://www.w3.org/1999/xlink" x="0px" y="0px"
	 viewBox="0 0 28 28" style="enable-background:new 0 0 28 28;" xml:space="preserve">
<style type="text/css">
	.st0{fill:none;}
	.st1{fill:#87B5D9;}
	.st2{fill:#C6D8E6;}
</style>
<rect class="st0" width="28" height="28"/>
<g>
	<path class="st1" d="M25.5,14c0,6.35-5.15,11.5-11.5,11.5c-2.59,0-4.98-0.86-6.9-2.3c1.75-0.19,3.45-0.53,5.08-1.02
		c1.3-0.39,2.56-0.87,3.78-1.43c0.43-0.2,0.85-0.4,1.26-0.62c1.32-0.69,2.59-1.48,3.78-2.37c1.64-1.22,3.15-2.61,4.5-4.15
		C25.5,13.73,25.5,13.87,25.5,14z"/>
	<path class="st2" d="M25.18,11.31c-1.27,1.38-2.67,2.63-4.19,3.74v-6.6c0-0.42-0.34-0.76-0.76-0.76h-2.25
		c-0.42,0-0.76,0.34-0.76,0.76v8.92c-0.41,0.21-0.84,0.42-1.26,0.61v-7.1c0-0.42-0.34-0.76-0.76-0.76h-2.25
		c-0.42,0-0.76,0.34-0.76,0.76v8.5c-0.42,0.12-0.84,0.24-1.26,0.34v-6.52c0-0.42-0.34-0.76-0.76-0.76H7.9
		c-0.42,0-0.76,0.34-0.76,0.76v7.17c-0.86,0.09-1.74,0.14-2.62,0.15C3.25,18.66,2.5,16.42,2.5,14C2.5,7.65,7.65,2.5,14,2.5
		C19.42,2.5,23.97,6.26,25.18,11.31z"/>
</g>
<g>
</g>
<g>
</g>
<g>
</g>
<g>
</g>
<g>
</g>
<g>
</g>
<g>
</g>
<g>
</g>
<g>
</g>
<g>
</g>
<g>
</g>
<g>
</g>
<g>
</g>
<g>
</g>
<g>
</g>
</svg>
