<?xml version="1.0" encoding="utf-8"?>
<!-- Generator: Adobe Illustrator 25.3.1, SVG Export Plug-In . SVG Version: 6.00 Build 0)  -->
<svg version="1.1" id="Layer_1" xmlns="http://www.w3.org/2000/svg" xmlns:xlink="http://www.w3.org/1999/xlink" x="0px" y="0px"
	 viewBox="0 0 273 173" style="enable-background:new 0 0 273 173;" xml:space="preserve">
<style type="text/css">
	.st0{opacity:0.35;fill-rule:evenodd;clip-rule:evenodd;fill:none;stroke:#FFFFFF;stroke-miterlimit:10;}
	.st1{fill:#FFFFFF;}
</style>
<g>
	<polyline class="st0" points="36.33,123.89 20.83,139.39 7.63,150.87 44.94,165.8 87.99,163.5 131.05,155.46 133.34,119.3 
		135.64,88.3 169.51,64.77 202.23,48.12 256.19,53.86 265.37,37.21 261.35,11.38 	"/>
	<line class="st0" x1="264.8" y1="73.95" x2="256.19" y2="53.86"/>
	<g>
		<g>
			<polygon class="st1" points="270.47,35.56 265.7,38.24 265.04,36.19 			"/>
		</g>
		<g>
			<polygon class="st1" points="266.24,36.58 268.52,41.55 264.5,37.85 			"/>
		</g>
		<g>
			<polygon class="st1" points="262.22,41.55 264.5,36.58 266.24,37.85 			"/>
		</g>
		<g>
			<polygon class="st1" points="260.27,35.56 265.7,36.19 265.04,38.24 			"/>
		</g>
		<g>
			<polygon class="st1" points="265.37,31.85 266.45,37.21 264.29,37.21 			"/>
		</g>
	</g>
	<g>
		<g>
			<polygon class="st1" points="261.29,52.2 256.52,54.88 255.85,52.83 			"/>
		</g>
		<g>
			<polygon class="st1" points="257.06,53.23 259.34,58.2 255.31,54.49 			"/>
		</g>
		<g>
			<polygon class="st1" points="253.03,58.2 255.31,53.23 257.06,54.49 			"/>
		</g>
		<g>
			<polygon class="st1" points="251.09,52.2 256.52,52.83 255.85,54.88 			"/>
		</g>
		<g>
			<polygon class="st1" points="256.19,48.5 257.26,53.86 255.11,53.86 			"/>
		</g>
	</g>
	<g>
		<g>
			<polygon class="st1" points="269.9,72.29 265.13,74.98 264.46,72.93 			"/>
		</g>
		<g>
			<polygon class="st1" points="265.67,73.32 267.95,78.29 263.93,74.58 			"/>
		</g>
		<g>
			<polygon class="st1" points="261.65,78.29 263.93,73.32 265.67,74.58 			"/>
		</g>
		<g>
			<polygon class="st1" points="259.7,72.29 265.13,72.93 264.46,74.98 			"/>
		</g>
		<g>
			<polygon class="st1" points="264.8,68.59 265.88,73.95 263.72,73.95 			"/>
		</g>
	</g>
	<g>
		<g>
			<polygon class="st1" points="207.33,46.46 202.56,49.14 201.89,47.09 			"/>
		</g>
		<g>
			<polygon class="st1" points="203.1,47.49 205.38,52.46 201.36,48.75 			"/>
		</g>
		<g>
			<polygon class="st1" points="199.08,52.46 201.36,47.49 203.1,48.75 			"/>
		</g>
		<g>
			<polygon class="st1" points="197.13,46.46 202.56,47.09 201.89,49.14 			"/>
		</g>
		<g>
			<polygon class="st1" points="202.23,42.76 203.31,48.12 201.15,48.12 			"/>
		</g>
	</g>
	<g>
		<g>
			<polygon class="st1" points="174.61,63.11 169.84,65.79 169.17,63.74 			"/>
		</g>
		<g>
			<polygon class="st1" points="170.38,64.13 172.66,69.1 168.63,65.4 			"/>
		</g>
		<g>
			<polygon class="st1" points="166.36,69.1 168.64,64.13 170.38,65.4 			"/>
		</g>
		<g>
			<polygon class="st1" points="164.41,63.11 169.84,63.74 169.17,65.79 			"/>
		</g>
		<g>
			<polygon class="st1" points="169.51,59.4 170.59,64.77 168.43,64.77 			"/>
		</g>
	</g>
	<g>
		<g>
			<polygon class="st1" points="136.15,153.81 131.38,156.49 130.71,154.44 			"/>
		</g>
		<g>
			<polygon class="st1" points="131.92,154.83 134.2,159.8 130.17,156.1 			"/>
		</g>
		<g>
			<polygon class="st1" points="127.89,159.8 130.17,154.83 131.92,156.1 			"/>
		</g>
		<g>
			<polygon class="st1" points="125.95,153.81 131.38,154.44 130.71,156.49 			"/>
		</g>
		<g>
			<polygon class="st1" points="131.05,150.1 132.12,155.46 129.97,155.46 			"/>
		</g>
	</g>
	<g>
		<g>
			<polygon class="st1" points="50.04,164.14 45.27,166.82 44.61,164.77 			"/>
		</g>
		<g>
			<polygon class="st1" points="45.81,165.16 48.09,170.13 44.07,166.43 			"/>
		</g>
		<g>
			<polygon class="st1" points="41.79,170.13 44.07,165.16 45.81,166.43 			"/>
		</g>
		<g>
			<polygon class="st1" points="39.84,164.14 45.27,164.77 44.61,166.82 			"/>
		</g>
		<g>
			<polygon class="st1" points="44.94,160.43 46.02,165.8 43.86,165.8 			"/>
		</g>
	</g>
	<g>
		<g>
			<polygon class="st1" points="25.93,137.73 21.16,140.42 20.5,138.37 			"/>
		</g>
		<g>
			<polygon class="st1" points="21.7,138.76 23.98,143.73 19.96,140.02 			"/>
		</g>
		<g>
			<polygon class="st1" points="17.68,143.73 19.96,138.76 21.7,140.02 			"/>
		</g>
		<g>
			<polygon class="st1" points="15.73,137.73 21.16,138.37 20.5,140.42 			"/>
		</g>
		<g>
			<polygon class="st1" points="20.83,134.03 21.91,139.39 19.75,139.39 			"/>
		</g>
	</g>
	<g>
		<g>
			<polygon class="st1" points="138.44,117.64 133.68,120.32 133.01,118.27 			"/>
		</g>
		<g>
			<polygon class="st1" points="134.21,118.67 136.49,123.64 132.47,119.93 			"/>
		</g>
		<g>
			<polygon class="st1" points="130.19,123.64 132.47,118.67 134.21,119.93 			"/>
		</g>
		<g>
			<polygon class="st1" points="128.24,117.64 133.68,118.27 133.01,120.32 			"/>
		</g>
		<g>
			<polygon class="st1" points="133.34,113.94 134.42,119.3 132.26,119.3 			"/>
		</g>
	</g>
	<g>
		<g>
			<polygon class="st1" points="93.09,161.84 88.33,164.53 87.66,162.48 			"/>
		</g>
		<g>
			<polygon class="st1" points="88.87,162.87 91.15,167.84 87.12,164.13 			"/>
		</g>
		<g>
			<polygon class="st1" points="84.84,167.84 87.12,162.87 88.87,164.13 			"/>
		</g>
		<g>
			<polygon class="st1" points="82.89,161.84 88.33,162.48 87.66,164.53 			"/>
		</g>
		<g>
			<polygon class="st1" points="87.99,158.14 89.07,163.5 86.92,163.5 			"/>
		</g>
	</g>
	<g>
		<g>
			<polygon class="st1" points="12.73,149.21 7.96,151.9 7.3,149.85 			"/>
		</g>
		<g>
			<polygon class="st1" points="8.5,150.24 10.78,155.21 6.76,151.51 			"/>
		</g>
		<g>
			<polygon class="st1" points="4.48,155.21 6.76,150.24 8.5,151.51 			"/>
		</g>
		<g>
			<polygon class="st1" points="2.53,149.21 7.96,149.85 7.3,151.9 			"/>
		</g>
		<g>
			<polygon class="st1" points="7.63,145.51 8.71,150.87 6.55,150.87 			"/>
		</g>
	</g>
	<g>
		<g>
			<path class="st1" d="M267.66,5.17c-0.78,1.32-1.69,2.51-2.65,3.66c-0.95,1.15-1.97,2.23-3.01,3.3c-1.06,1.04-2.14,2.06-3.3,3.01
				c-1.15,0.96-2.34,1.87-3.66,2.65c0.78-1.32,1.69-2.51,2.65-3.66c0.95-1.15,1.97-2.23,3.01-3.3c1.06-1.04,2.14-2.06,3.3-3.01
				C265.15,6.87,266.34,5.96,267.66,5.17z"/>
		</g>
		<g>
			<path class="st1" d="M259.04,2.87c0.75,1.34,1.33,2.72,1.84,4.12c0.53,1.4,0.95,2.82,1.35,4.26c0.37,1.44,0.72,2.89,0.96,4.36
				c0.26,1.47,0.45,2.96,0.46,4.49c-0.75-1.34-1.33-2.72-1.85-4.12c-0.53-1.4-0.95-2.82-1.35-4.26c-0.37-1.44-0.71-2.89-0.96-4.36
				C259.25,5.89,259.06,4.4,259.04,2.87z"/>
		</g>
		<g>
			<path class="st1" d="M252.74,9.17c1.53,0.02,3.02,0.21,4.49,0.47c1.47,0.24,2.92,0.59,4.36,0.96c1.43,0.4,2.86,0.82,4.26,1.35
				c1.4,0.51,2.79,1.09,4.12,1.85c-1.54-0.02-3.02-0.21-4.49-0.46c-1.47-0.24-2.92-0.59-4.36-0.96c-1.43-0.4-2.86-0.83-4.26-1.35
				C255.46,10.5,254.07,9.92,252.74,9.17z"/>
		</g>
	</g>
	<g>
		<g>
			<path class="st1" d="M142,82c-0.78,1.32-1.69,2.51-2.65,3.66c-0.95,1.15-1.97,2.23-3.01,3.3c-1.06,1.04-2.14,2.06-3.3,3.01
				c-1.15,0.96-2.34,1.87-3.66,2.65c0.78-1.32,1.69-2.51,2.65-3.66c0.95-1.15,1.97-2.23,3.01-3.3c1.06-1.04,2.14-2.06,3.3-3.01
				C139.48,83.7,140.68,82.79,142,82z"/>
		</g>
		<g>
			<path class="st1" d="M133.38,79.69c0.75,1.34,1.33,2.72,1.84,4.12c0.53,1.4,0.95,2.82,1.35,4.26c0.37,1.44,0.72,2.89,0.96,4.36
				c0.26,1.47,0.45,2.96,0.46,4.49c-0.75-1.34-1.33-2.72-1.85-4.12c-0.53-1.4-0.95-2.82-1.35-4.26c-0.37-1.44-0.71-2.89-0.96-4.36
				C133.59,82.72,133.4,81.23,133.38,79.69z"/>
		</g>
		<g>
			<path class="st1" d="M127.07,86c1.53,0.02,3.02,0.21,4.49,0.47c1.47,0.24,2.92,0.59,4.36,0.96c1.43,0.4,2.86,0.82,4.26,1.35
				c1.4,0.51,2.79,1.09,4.12,1.85c-1.53-0.02-3.02-0.21-4.49-0.46c-1.47-0.24-2.92-0.59-4.36-0.96c-1.43-0.4-2.86-0.83-4.26-1.35
				C129.79,87.33,128.41,86.75,127.07,86z"/>
		</g>
	</g>
	<g>
		<g>
			<path class="st1" d="M42.64,117.88c-0.78,1.32-1.69,2.51-2.65,3.66c-0.95,1.15-1.97,2.23-3.01,3.3c-1.06,1.04-2.14,2.06-3.3,3.01
				c-1.15,0.96-2.34,1.87-3.66,2.65c0.78-1.32,1.69-2.51,2.65-3.66c0.95-1.15,1.97-2.23,3.01-3.3c1.06-1.04,2.14-2.06,3.3-3.01
				C40.13,119.58,41.32,118.67,42.64,117.88z"/>
		</g>
		<g>
			<path class="st1" d="M34.02,115.57c0.75,1.34,1.33,2.72,1.84,4.12c0.53,1.4,0.95,2.82,1.35,4.26c0.37,1.44,0.72,2.89,0.96,4.36
				c0.26,1.47,0.45,2.96,0.46,4.49c-0.75-1.34-1.33-2.72-1.85-4.12c-0.53-1.4-0.95-2.82-1.35-4.26c-0.37-1.44-0.71-2.89-0.96-4.36
				C34.23,118.6,34.04,117.11,34.02,115.57z"/>
		</g>
		<g>
			<path class="st1" d="M27.71,121.88c1.53,0.02,3.02,0.21,4.49,0.47c1.47,0.24,2.92,0.59,4.36,0.96c1.43,0.4,2.86,0.82,4.26,1.35
				c1.4,0.51,2.79,1.09,4.12,1.85c-1.53-0.02-3.02-0.21-4.49-0.46c-1.47-0.24-2.92-0.59-4.36-0.96c-1.43-0.4-2.86-0.83-4.26-1.35
				C30.43,123.21,29.05,122.63,27.71,121.88z"/>
		</g>
	</g>
</g>
<g>
</g>
<g>
</g>
<g>
</g>
<g>
</g>
<g>
</g>
<g>
</g>
<g>
</g>
<g>
</g>
<g>
</g>
<g>
</g>
<g>
</g>
<g>
</g>
<g>
</g>
<g>
</g>
<g>
</g>
</svg>
