<?xml version="1.0" encoding="utf-8"?>
<!-- Generator: Adobe Illustrator 25.3.1, SVG Export Plug-In . SVG Version: 6.00 Build 0)  -->
<svg version="1.1" id="Layer_1" xmlns="http://www.w3.org/2000/svg" xmlns:xlink="http://www.w3.org/1999/xlink" x="0px" y="0px"
	 viewBox="0 0 329 275" style="enable-background:new 0 0 329 275;" xml:space="preserve">
<style type="text/css">
	.st0{opacity:0.35;fill:none;stroke:#FFFFFF;stroke-miterlimit:10;enable-background:new    ;}
	.st1{fill:#FFFFFF;}
</style>
<g>
	<polyline class="st0" points="126.3,259.21 69.92,235.11 40.82,194.64 8.08,132.8 21.72,115.97 60.82,71.86 120.85,84.14 
		140.4,99.6 175.87,85.96 222.25,77.32 236.8,110.51 275.45,127.79 320.92,101.42 	"/>
	<line class="st0" x1="245.9" y1="24.57" x2="222.25" y2="77.32"/>
	<polyline class="st0" points="246.8,157.35 216.79,139.16 236.8,110.51 	"/>
	<polyline class="st0" points="87.2,8.2 110.84,21.39 139.49,25.48 171.32,14.57 	"/>
	<polyline class="st0" points="175.87,85.96 146.31,59.13 120.85,84.14 	"/>
	<line class="st0" x1="139.49" y1="25.48" x2="146.31" y2="59.13"/>
	<line class="st0" x1="119.94" y1="214.65" x2="69.92" y2="235.11"/>
	<g>
		<g>
			<polygon class="st1" points="326.02,99.76 321.26,102.45 320.59,100.4 			"/>
		</g>
		<g>
			<polygon class="st1" points="321.8,100.79 324.08,105.76 320.05,102.05 			"/>
		</g>
		<g>
			<polygon class="st1" points="317.77,105.76 320.05,100.79 321.8,102.05 			"/>
		</g>
		<g>
			<polygon class="st1" points="315.82,99.76 321.26,100.4 320.59,102.45 			"/>
		</g>
		<g>
			<polygon class="st1" points="320.92,96.06 322,101.42 319.85,101.42 			"/>
		</g>
	</g>
	<g>
		<g>
			<polygon class="st1" points="251.9,155.69 247.14,158.38 246.47,156.33 			"/>
		</g>
		<g>
			<polygon class="st1" points="247.68,156.72 249.96,161.69 245.93,157.98 			"/>
		</g>
		<g>
			<polygon class="st1" points="243.65,161.69 245.93,156.72 247.68,157.98 			"/>
		</g>
		<g>
			<polygon class="st1" points="241.7,155.69 247.14,156.33 246.47,158.38 			"/>
		</g>
		<g>
			<polygon class="st1" points="246.8,151.99 247.88,157.35 245.73,157.35 			"/>
		</g>
	</g>
	<g>
		<g>
			<polygon class="st1" points="180.97,84.3 176.2,86.98 175.53,84.93 			"/>
		</g>
		<g>
			<polygon class="st1" points="176.74,85.33 179.02,90.3 175,86.59 			"/>
		</g>
		<g>
			<polygon class="st1" points="172.72,90.3 175,85.33 176.74,86.59 			"/>
		</g>
		<g>
			<polygon class="st1" points="170.77,84.3 176.2,84.93 175.53,86.98 			"/>
		</g>
		<g>
			<polygon class="st1" points="175.87,80.6 176.95,85.96 174.79,85.96 			"/>
		</g>
	</g>
	<g>
		<g>
			<polygon class="st1" points="145.5,97.94 140.73,100.63 140.07,98.58 			"/>
		</g>
		<g>
			<polygon class="st1" points="141.27,98.97 143.55,103.94 139.53,100.24 			"/>
		</g>
		<g>
			<polygon class="st1" points="137.25,103.94 139.53,98.97 141.27,100.24 			"/>
		</g>
		<g>
			<polygon class="st1" points="135.3,97.94 140.73,98.58 140.07,100.63 			"/>
		</g>
		<g>
			<polygon class="st1" points="140.4,94.24 141.48,99.6 139.32,99.6 			"/>
		</g>
	</g>
	<g>
		<g>
			<polygon class="st1" points="125.95,82.48 121.18,85.17 120.51,83.12 			"/>
		</g>
		<g>
			<polygon class="st1" points="121.72,83.51 124,88.48 119.97,84.77 			"/>
		</g>
		<g>
			<polygon class="st1" points="117.69,88.48 119.97,83.51 121.72,84.77 			"/>
		</g>
		<g>
			<polygon class="st1" points="115.75,82.48 121.18,83.12 120.51,85.17 			"/>
		</g>
		<g>
			<polygon class="st1" points="120.85,78.78 121.92,84.14 119.77,84.14 			"/>
		</g>
	</g>
	<g>
		<g>
			<polygon class="st1" points="144.59,23.82 139.82,26.51 139.16,24.46 			"/>
		</g>
		<g>
			<polygon class="st1" points="140.36,24.85 142.64,29.82 138.62,26.12 			"/>
		</g>
		<g>
			<polygon class="st1" points="136.34,29.82 138.62,24.85 140.36,26.12 			"/>
		</g>
		<g>
			<polygon class="st1" points="134.39,23.82 139.82,24.46 139.16,26.51 			"/>
		</g>
		<g>
			<polygon class="st1" points="139.49,20.12 140.57,25.48 138.41,25.48 			"/>
		</g>
	</g>
	<g>
		<g>
			<polygon class="st1" points="115.94,19.73 111.18,22.41 110.51,20.36 			"/>
		</g>
		<g>
			<polygon class="st1" points="111.71,20.76 113.99,25.73 109.97,22.02 			"/>
		</g>
		<g>
			<polygon class="st1" points="107.69,25.73 109.97,20.76 111.71,22.02 			"/>
		</g>
		<g>
			<polygon class="st1" points="105.74,19.73 111.18,20.36 110.51,22.41 			"/>
		</g>
		<g>
			<polygon class="st1" points="110.84,16.03 111.92,21.39 109.76,21.39 			"/>
		</g>
	</g>
	<g>
		<g>
			<polygon class="st1" points="92.3,6.55 87.53,9.23 86.86,7.18 			"/>
		</g>
		<g>
			<polygon class="st1" points="88.07,7.57 90.35,12.54 86.33,8.84 			"/>
		</g>
		<g>
			<polygon class="st1" points="84.05,12.54 86.33,7.57 88.07,8.84 			"/>
		</g>
		<g>
			<polygon class="st1" points="82.1,6.55 87.53,7.18 86.86,9.23 			"/>
		</g>
		<g>
			<polygon class="st1" points="87.2,2.84 88.28,8.2 86.12,8.2 			"/>
		</g>
	</g>
	<g>
		<g>
			<polygon class="st1" points="176.42,12.91 171.65,15.59 170.99,13.54 			"/>
		</g>
		<g>
			<polygon class="st1" points="172.19,13.93 174.47,18.91 170.45,15.2 			"/>
		</g>
		<g>
			<polygon class="st1" points="168.17,18.91 170.45,13.93 172.19,15.2 			"/>
		</g>
		<g>
			<polygon class="st1" points="166.22,12.91 171.65,13.54 170.99,15.59 			"/>
		</g>
		<g>
			<polygon class="st1" points="171.32,9.21 172.4,14.57 170.24,14.57 			"/>
		</g>
	</g>
	<g>
		<g>
			<polygon class="st1" points="65.92,70.21 61.16,72.89 60.49,70.84 			"/>
		</g>
		<g>
			<polygon class="st1" points="61.7,71.23 63.98,76.2 59.95,72.5 			"/>
		</g>
		<g>
			<polygon class="st1" points="57.67,76.2 59.95,71.23 61.7,72.5 			"/>
		</g>
		<g>
			<polygon class="st1" points="55.72,70.21 61.16,70.84 60.49,72.89 			"/>
		</g>
		<g>
			<polygon class="st1" points="60.82,66.5 61.9,71.86 59.75,71.86 			"/>
		</g>
	</g>
	<g>
		<g>
			<polygon class="st1" points="26.82,114.31 22.05,117 21.38,114.95 			"/>
		</g>
		<g>
			<polygon class="st1" points="22.59,115.34 24.87,120.31 20.84,116.61 			"/>
		</g>
		<g>
			<polygon class="st1" points="18.57,120.31 20.84,115.34 22.59,116.61 			"/>
		</g>
		<g>
			<polygon class="st1" points="16.62,114.31 22.05,114.95 21.38,117 			"/>
		</g>
		<g>
			<polygon class="st1" points="21.72,110.61 22.8,115.97 20.64,115.97 			"/>
		</g>
	</g>
	<g>
		<g>
			<polygon class="st1" points="125.04,212.99 120.27,215.67 119.6,213.62 			"/>
		</g>
		<g>
			<polygon class="st1" points="120.81,214.01 123.09,218.98 119.07,215.28 			"/>
		</g>
		<g>
			<polygon class="st1" points="116.79,218.98 119.07,214.01 120.81,215.28 			"/>
		</g>
		<g>
			<polygon class="st1" points="114.84,212.99 120.27,213.62 119.6,215.67 			"/>
		</g>
		<g>
			<polygon class="st1" points="119.94,209.28 121.02,214.65 118.86,214.65 			"/>
		</g>
	</g>
	<g>
		<g>
			<polygon class="st1" points="75.02,233.45 70.25,236.13 69.58,234.08 			"/>
		</g>
		<g>
			<polygon class="st1" points="70.79,234.48 73.07,239.45 69.05,235.74 			"/>
		</g>
		<g>
			<polygon class="st1" points="66.77,239.45 69.05,234.48 70.79,235.74 			"/>
		</g>
		<g>
			<polygon class="st1" points="64.82,233.45 70.25,234.08 69.58,236.13 			"/>
		</g>
		<g>
			<polygon class="st1" points="69.92,229.75 71,235.11 68.84,235.11 			"/>
		</g>
	</g>
	<g>
		<g>
			<polygon class="st1" points="13.18,131.14 8.41,133.82 7.74,131.77 			"/>
		</g>
		<g>
			<polygon class="st1" points="8.95,132.16 11.23,137.13 7.2,133.43 			"/>
		</g>
		<g>
			<polygon class="st1" points="4.92,137.13 7.2,132.16 8.95,133.43 			"/>
		</g>
		<g>
			<polygon class="st1" points="2.98,131.14 8.41,131.77 7.74,133.82 			"/>
		</g>
		<g>
			<polygon class="st1" points="8.08,127.43 9.15,132.8 7,132.8 			"/>
		</g>
	</g>
	<g>
		<g>
			<polygon class="st1" points="241.9,108.86 237.13,111.54 236.47,109.49 			"/>
		</g>
		<g>
			<polygon class="st1" points="237.67,109.88 239.95,114.85 235.93,111.15 			"/>
		</g>
		<g>
			<polygon class="st1" points="233.65,114.85 235.93,109.88 237.67,111.15 			"/>
		</g>
		<g>
			<polygon class="st1" points="231.7,108.86 237.13,109.49 236.47,111.54 			"/>
		</g>
		<g>
			<polygon class="st1" points="236.8,105.15 237.88,110.51 235.72,110.51 			"/>
		</g>
	</g>
	<g>
		<g>
			<path class="st1" d="M281.72,121.62c-0.78,1.32-1.69,2.51-2.65,3.66c-0.95,1.15-1.97,2.23-3.01,3.3
				c-1.06,1.04-2.14,2.06-3.3,3.01c-1.15,0.96-2.34,1.87-3.66,2.65c0.78-1.32,1.69-2.51,2.65-3.66c0.95-1.15,1.97-2.23,3.01-3.3
				c1.06-1.04,2.14-2.06,3.3-3.01C279.21,123.31,280.4,122.4,281.72,121.62z"/>
		</g>
		<g>
			<path class="st1" d="M273.11,119.31c0.75,1.34,1.33,2.72,1.84,4.12c0.53,1.4,0.95,2.82,1.35,4.26c0.37,1.44,0.72,2.89,0.96,4.36
				c0.26,1.47,0.45,2.96,0.46,4.49c-0.75-1.34-1.33-2.72-1.85-4.12c-0.53-1.4-0.95-2.82-1.35-4.26c-0.37-1.44-0.71-2.89-0.96-4.36
				C273.32,122.33,273.12,120.84,273.11,119.31z"/>
		</g>
		<g>
			<path class="st1" d="M266.8,125.62c1.53,0.02,3.02,0.21,4.49,0.47c1.47,0.24,2.92,0.59,4.36,0.96c1.43,0.4,2.86,0.82,4.26,1.35
				c1.4,0.51,2.79,1.09,4.12,1.85c-1.54-0.02-3.02-0.21-4.49-0.46c-1.47-0.24-2.92-0.59-4.36-0.96c-1.43-0.4-2.86-0.83-4.26-1.35
				C269.52,126.94,268.14,126.37,266.8,125.62z"/>
		</g>
	</g>
	<g>
		<g>
			<path class="st1" d="M223.21,132.95c-0.78,1.32-1.69,2.51-2.65,3.66c-0.95,1.15-1.97,2.23-3.01,3.3
				c-1.06,1.04-2.14,2.06-3.3,3.01c-1.15,0.96-2.34,1.87-3.66,2.65c0.78-1.32,1.69-2.51,2.65-3.66c0.95-1.15,1.97-2.23,3.01-3.3
				c1.06-1.04,2.14-2.06,3.3-3.01C220.7,134.64,221.89,133.73,223.21,132.95z"/>
		</g>
		<g>
			<path class="st1" d="M214.59,130.64c0.75,1.34,1.33,2.72,1.84,4.12c0.53,1.4,0.95,2.82,1.35,4.26c0.37,1.44,0.72,2.89,0.96,4.36
				c0.26,1.47,0.45,2.96,0.46,4.49c-0.75-1.34-1.33-2.72-1.85-4.12c-0.53-1.4-0.95-2.82-1.35-4.26c-0.37-1.44-0.71-2.89-0.96-4.36
				C214.8,133.66,214.61,132.17,214.59,130.64z"/>
		</g>
		<g>
			<path class="st1" d="M208.28,136.95c1.53,0.02,3.02,0.21,4.49,0.47c1.47,0.24,2.92,0.59,4.36,0.96c1.43,0.4,2.86,0.82,4.26,1.35
				c1.4,0.51,2.79,1.09,4.12,1.85c-1.53-0.02-3.02-0.21-4.49-0.46c-1.47-0.24-2.92-0.59-4.36-0.96c-1.43-0.4-2.86-0.83-4.26-1.35
				C211,138.28,209.62,137.7,208.28,136.95z"/>
		</g>
	</g>
	<g>
		<g>
			<path class="st1" d="M47.04,188.19c-0.78,1.32-1.69,2.51-2.65,3.66c-0.95,1.15-1.97,2.23-3.01,3.3c-1.06,1.04-2.14,2.06-3.3,3.01
				c-1.15,0.96-2.34,1.87-3.66,2.65c0.78-1.32,1.69-2.51,2.65-3.66c0.95-1.15,1.97-2.23,3.01-3.3c1.06-1.04,2.14-2.06,3.3-3.01
				C44.53,189.88,45.72,188.97,47.04,188.19z"/>
		</g>
		<g>
			<path class="st1" d="M38.43,185.88c0.75,1.34,1.33,2.72,1.84,4.12c0.53,1.4,0.95,2.82,1.35,4.26c0.37,1.44,0.72,2.89,0.96,4.36
				c0.26,1.47,0.45,2.96,0.46,4.49c-0.75-1.34-1.33-2.72-1.85-4.12c-0.53-1.4-0.95-2.82-1.35-4.26c-0.37-1.44-0.71-2.89-0.96-4.36
				C38.64,188.9,38.44,187.42,38.43,185.88z"/>
		</g>
		<g>
			<path class="st1" d="M32.12,192.19c1.53,0.02,3.02,0.21,4.49,0.47c1.47,0.24,2.92,0.59,4.36,0.96c1.43,0.4,2.86,0.82,4.26,1.35
				c1.4,0.51,2.79,1.09,4.12,1.85c-1.54-0.02-3.02-0.21-4.49-0.46c-1.47-0.24-2.92-0.59-4.36-0.96c-1.43-0.4-2.86-0.83-4.26-1.35
				C34.84,193.52,33.46,192.94,32.12,192.19z"/>
		</g>
	</g>
	<g>
		<g>
			<path class="st1" d="M152.67,52.84c-0.78,1.32-1.69,2.51-2.65,3.66c-0.95,1.15-1.97,2.23-3.01,3.3c-1.06,1.04-2.14,2.06-3.3,3.01
				c-1.15,0.96-2.34,1.87-3.66,2.65c0.78-1.32,1.69-2.51,2.65-3.66c0.95-1.15,1.97-2.23,3.01-3.3c1.06-1.04,2.14-2.06,3.3-3.01
				C150.16,54.54,151.35,53.63,152.67,52.84z"/>
		</g>
		<g>
			<path class="st1" d="M144.05,50.53c0.75,1.34,1.33,2.72,1.84,4.12c0.53,1.4,0.95,2.82,1.35,4.26c0.37,1.44,0.72,2.89,0.96,4.36
				c0.26,1.47,0.45,2.96,0.46,4.49c-0.75-1.34-1.33-2.72-1.85-4.12c-0.53-1.4-0.95-2.82-1.35-4.26c-0.37-1.44-0.71-2.89-0.96-4.36
				C144.26,53.56,144.07,52.07,144.05,50.53z"/>
		</g>
		<g>
			<path class="st1" d="M137.74,56.84c1.53,0.02,3.02,0.21,4.49,0.47c1.47,0.24,2.92,0.59,4.36,0.96c1.43,0.4,2.86,0.82,4.26,1.35
				c1.4,0.51,2.79,1.09,4.12,1.85c-1.54-0.02-3.02-0.21-4.49-0.46c-1.47-0.24-2.92-0.59-4.36-0.96c-1.43-0.4-2.86-0.83-4.26-1.35
				C140.47,58.17,139.08,57.59,137.74,56.84z"/>
		</g>
	</g>
	<g>
		<g>
			<path class="st1" d="M228.74,70.94c-0.78,1.32-1.69,2.51-2.65,3.66c-0.95,1.15-1.97,2.23-3.01,3.3c-1.06,1.04-2.14,2.06-3.3,3.01
				c-1.15,0.96-2.34,1.87-3.66,2.65c0.78-1.32,1.69-2.51,2.65-3.66c0.95-1.15,1.97-2.23,3.01-3.3c1.06-1.04,2.14-2.06,3.3-3.01
				C226.23,72.63,227.43,71.72,228.74,70.94z"/>
		</g>
		<g>
			<path class="st1" d="M220.13,68.63c0.75,1.34,1.33,2.72,1.84,4.12c0.53,1.4,0.95,2.82,1.35,4.26c0.37,1.44,0.72,2.89,0.96,4.36
				c0.26,1.47,0.45,2.96,0.46,4.49c-0.75-1.34-1.33-2.72-1.85-4.12c-0.53-1.4-0.95-2.82-1.35-4.26c-0.37-1.44-0.71-2.89-0.96-4.36
				C220.34,71.65,220.15,70.17,220.13,68.63z"/>
		</g>
		<g>
			<path class="st1" d="M213.82,74.94c1.53,0.02,3.02,0.21,4.49,0.47c1.47,0.24,2.92,0.59,4.36,0.96c1.43,0.4,2.86,0.82,4.26,1.35
				c1.4,0.51,2.79,1.09,4.12,1.85c-1.54-0.02-3.02-0.21-4.49-0.46c-1.47-0.24-2.92-0.59-4.36-0.96c-1.43-0.4-2.86-0.83-4.26-1.35
				C216.54,76.27,215.16,75.69,213.82,74.94z"/>
		</g>
	</g>
	<g>
		<g>
			<path class="st1" d="M255.37,15.1c-1.17,1.98-2.54,3.77-3.97,5.49c-1.42,1.73-2.94,3.37-4.51,4.95
				c-1.58,1.58-3.21,3.09-4.94,4.52c-1.72,1.43-3.51,2.8-5.49,3.97c1.17-1.98,2.54-3.77,3.97-5.49c1.42-1.73,2.94-3.37,4.52-4.94
				s3.22-3.09,4.95-4.51C251.6,17.65,253.39,16.28,255.37,15.1z"/>
		</g>
		<g>
			<path class="st1" d="M242.44,11.64c1.13,2.01,1.99,4.08,2.76,6.19c0.79,2.1,1.44,4.23,2.03,6.38c0.58,2.15,1.07,4.33,1.44,6.54
				c0.38,2.21,0.67,4.44,0.69,6.74c-1.13-2.01-2-4.08-2.77-6.18c-0.79-2.1-1.44-4.23-2.02-6.38c-0.57-2.16-1.07-4.33-1.44-6.54
				C242.76,16.17,242.47,13.94,242.44,11.64z"/>
		</g>
		<g>
			<path class="st1" d="M232.98,21.1c2.3,0.03,4.53,0.32,6.74,0.7c2.21,0.37,4.39,0.86,6.54,1.44s4.29,1.24,6.38,2.02
				c2.1,0.77,4.18,1.64,6.18,2.77c-2.3-0.02-4.53-0.31-6.74-0.69c-2.21-0.37-4.39-0.86-6.54-1.44s-4.29-1.24-6.38-2.03
				C237.06,23.09,234.99,22.23,232.98,21.1z"/>
		</g>
	</g>
	<g>
		<g>
			<path class="st1" d="M135.8,249.78c-1.17,1.98-2.54,3.77-3.97,5.49c-1.42,1.73-2.94,3.37-4.51,4.95
				c-1.58,1.58-3.21,3.09-4.94,4.52c-1.72,1.43-3.51,2.8-5.49,3.97c1.17-1.98,2.54-3.77,3.97-5.49c1.42-1.73,2.94-3.37,4.52-4.94
				c1.58-1.57,3.22-3.09,4.95-4.51C132.04,252.32,133.82,250.95,135.8,249.78z"/>
		</g>
		<g>
			<path class="st1" d="M122.88,246.31c1.13,2.01,1.99,4.08,2.76,6.19c0.79,2.1,1.44,4.23,2.03,6.38c0.58,2.15,1.07,4.33,1.44,6.54
				c0.38,2.21,0.67,4.44,0.69,6.74c-1.13-2.01-2-4.08-2.77-6.18c-0.79-2.1-1.44-4.23-2.02-6.38c-0.57-2.16-1.07-4.33-1.44-6.54
				C123.2,250.84,122.91,248.61,122.88,246.31z"/>
		</g>
		<g>
			<path class="st1" d="M113.42,255.77c2.3,0.03,4.53,0.32,6.74,0.7c2.21,0.37,4.39,0.86,6.54,1.44c2.15,0.58,4.29,1.24,6.38,2.02
				c2.1,0.77,4.18,1.64,6.18,2.77c-2.3-0.02-4.53-0.31-6.74-0.69c-2.21-0.37-4.39-0.86-6.54-1.44c-2.15-0.58-4.29-1.24-6.38-2.03
				C117.5,257.77,115.42,256.9,113.42,255.77z"/>
		</g>
	</g>
</g>
</svg>
