<?xml version="1.0" encoding="utf-8"?>
<!-- Generator: Adobe Illustrator 25.3.1, SVG Export Plug-In . SVG Version: 6.00 Build 0)  -->
<svg version="1.1" id="Layer_1" xmlns="http://www.w3.org/2000/svg" xmlns:xlink="http://www.w3.org/1999/xlink" x="0px" y="0px"
	 viewBox="0 0 292 319" style="enable-background:new 0 0 292 319;" xml:space="preserve">
<style type="text/css">
	.st0{opacity:0.35;fill-rule:evenodd;clip-rule:evenodd;fill:none;stroke:#FFFFFF;stroke-miterlimit:10;}
	.st1{fill:#FFFFFF;}
</style>
<g>
	<polyline class="st0" points="183.16,310.83 174.52,278.8 259.41,226.95 284.32,69.88 135.89,11.94 98.78,98.86 58.62,121.73 
		15.42,150.2 	"/>
	<line class="st0" x1="135.89" y1="11.94" x2="259.41" y2="226.95"/>
	<g>
		<g>
			<polygon class="st1" points="264.51,225.3 259.74,227.98 259.08,225.93 			"/>
		</g>
		<g>
			<polygon class="st1" points="260.28,226.32 262.56,231.29 258.54,227.59 			"/>
		</g>
		<g>
			<polygon class="st1" points="256.26,231.29 258.54,226.32 260.28,227.59 			"/>
		</g>
		<g>
			<polygon class="st1" points="254.31,225.3 259.74,225.93 259.08,227.98 			"/>
		</g>
		<g>
			<polygon class="st1" points="259.41,221.59 260.49,226.95 258.33,226.95 			"/>
		</g>
	</g>
	<g>
		<g>
			<polygon class="st1" points="188.26,309.17 183.5,311.85 182.83,309.8 			"/>
		</g>
		<g>
			<polygon class="st1" points="184.04,310.19 186.32,315.17 182.29,311.46 			"/>
		</g>
		<g>
			<polygon class="st1" points="180.01,315.17 182.29,310.19 184.04,311.46 			"/>
		</g>
		<g>
			<polygon class="st1" points="178.06,309.17 183.5,309.8 182.83,311.85 			"/>
		</g>
		<g>
			<polygon class="st1" points="183.16,305.46 184.24,310.83 182.09,310.83 			"/>
		</g>
	</g>
	<g>
		<g>
			<polygon class="st1" points="289.42,68.23 284.65,70.91 283.99,68.86 			"/>
		</g>
		<g>
			<polygon class="st1" points="285.19,69.25 287.47,74.22 283.45,70.52 			"/>
		</g>
		<g>
			<polygon class="st1" points="281.17,74.22 283.45,69.25 285.19,70.52 			"/>
		</g>
		<g>
			<polygon class="st1" points="279.22,68.23 284.65,68.86 283.99,70.91 			"/>
		</g>
		<g>
			<polygon class="st1" points="284.32,64.52 285.4,69.88 283.24,69.88 			"/>
		</g>
	</g>
	<g>
		<g>
			<polygon class="st1" points="103.88,97.2 99.12,99.88 98.45,97.83 			"/>
		</g>
		<g>
			<polygon class="st1" points="99.65,98.22 101.93,103.2 97.91,99.49 			"/>
		</g>
		<g>
			<polygon class="st1" points="95.63,103.2 97.91,98.22 99.65,99.49 			"/>
		</g>
		<g>
			<polygon class="st1" points="93.68,97.2 99.12,97.83 98.45,99.88 			"/>
		</g>
		<g>
			<polygon class="st1" points="98.78,93.5 99.86,98.86 97.7,98.86 			"/>
		</g>
	</g>
	<g>
		<g>
			<polygon class="st1" points="63.72,120.08 58.96,122.76 58.29,120.71 			"/>
		</g>
		<g>
			<polygon class="st1" points="59.5,121.1 61.78,126.07 57.75,122.37 			"/>
		</g>
		<g>
			<polygon class="st1" points="55.47,126.07 57.75,121.1 59.5,122.37 			"/>
		</g>
		<g>
			<polygon class="st1" points="53.52,120.08 58.96,120.71 58.29,122.76 			"/>
		</g>
		<g>
			<polygon class="st1" points="58.62,116.37 59.7,121.73 57.55,121.73 			"/>
		</g>
	</g>
	<g>
		<g>
			<path class="st1" d="M142.56,6.14c-0.78,1.32-1.69,2.51-2.65,3.66c-0.95,1.15-1.97,2.23-3.01,3.3c-1.06,1.04-2.14,2.06-3.3,3.01
				c-1.15,0.96-2.34,1.87-3.66,2.65c0.78-1.32,1.69-2.51,2.65-3.66c0.95-1.15,1.97-2.23,3.01-3.3c1.06-1.04,2.14-2.06,3.3-3.01
				C140.04,7.84,141.24,6.93,142.56,6.14z"/>
		</g>
		<g>
			<path class="st1" d="M133.94,3.83c0.75,1.34,1.33,2.72,1.84,4.12c0.53,1.4,0.95,2.82,1.35,4.26c0.37,1.44,0.72,2.89,0.96,4.36
				c0.26,1.47,0.45,2.96,0.46,4.49c-0.75-1.34-1.33-2.72-1.85-4.12c-0.53-1.4-0.95-2.82-1.35-4.26c-0.37-1.44-0.71-2.89-0.96-4.36
				C134.15,6.86,133.96,5.37,133.94,3.83z"/>
		</g>
		<g>
			<path class="st1" d="M127.63,10.14c1.53,0.02,3.02,0.21,4.49,0.47c1.47,0.24,2.92,0.59,4.36,0.96c1.43,0.4,2.86,0.82,4.26,1.35
				c1.4,0.51,2.79,1.09,4.12,1.85c-1.54-0.02-3.02-0.21-4.49-0.46c-1.47-0.24-2.92-0.59-4.36-0.96c-1.43-0.4-2.86-0.83-4.26-1.35
				C130.35,11.47,128.97,10.89,127.63,10.14z"/>
		</g>
	</g>
	<g>
		<g>
			<path class="st1" d="M180.87,272.34c-0.78,1.32-1.69,2.51-2.65,3.66c-0.95,1.15-1.97,2.23-3.01,3.3
				c-1.06,1.04-2.14,2.06-3.3,3.01c-1.15,0.96-2.34,1.87-3.66,2.65c0.78-1.32,1.69-2.51,2.65-3.66c0.95-1.15,1.97-2.23,3.01-3.3
				c1.06-1.04,2.14-2.06,3.3-3.01C178.36,274.03,179.55,273.12,180.87,272.34z"/>
		</g>
		<g>
			<path class="st1" d="M172.25,270.03c0.75,1.34,1.33,2.72,1.84,4.12c0.53,1.4,0.95,2.82,1.35,4.26c0.37,1.44,0.72,2.89,0.96,4.36
				c0.26,1.47,0.45,2.96,0.46,4.49c-0.75-1.34-1.33-2.72-1.85-4.12c-0.53-1.4-0.95-2.82-1.35-4.26c-0.37-1.44-0.71-2.89-0.96-4.36
				C172.46,273.05,172.27,271.57,172.25,270.03z"/>
		</g>
		<g>
			<path class="st1" d="M165.94,276.34c1.53,0.02,3.02,0.21,4.49,0.47c1.47,0.24,2.92,0.59,4.36,0.96c1.43,0.4,2.86,0.82,4.26,1.35
				c1.4,0.51,2.79,1.09,4.12,1.85c-1.54-0.02-3.02-0.21-4.49-0.46c-1.47-0.24-2.92-0.59-4.36-0.96c-1.43-0.4-2.86-0.83-4.26-1.35
				C168.67,277.67,167.28,277.09,165.94,276.34z"/>
		</g>
	</g>
	<g>
		<g>
			<path class="st1" d="M24.97,140.81c-1.17,1.98-2.54,3.77-3.97,5.49c-1.42,1.73-2.94,3.37-4.51,4.95
				c-1.58,1.58-3.21,3.09-4.94,4.52c-1.72,1.43-3.51,2.8-5.49,3.97c1.17-1.98,2.54-3.77,3.97-5.49c1.42-1.73,2.94-3.37,4.52-4.94
				c1.58-1.57,3.22-3.09,4.95-4.51C21.2,143.35,22.99,141.98,24.97,140.81z"/>
		</g>
		<g>
			<path class="st1" d="M12.04,137.34c1.13,2.01,1.99,4.08,2.76,6.19c0.79,2.1,1.44,4.23,2.03,6.38c0.58,2.15,1.07,4.33,1.44,6.54
				c0.38,2.21,0.67,4.44,0.69,6.74c-1.13-2.01-2-4.08-2.77-6.18c-0.79-2.1-1.44-4.23-2.02-6.38c-0.57-2.16-1.07-4.33-1.44-6.54
				C12.36,141.87,12.07,139.64,12.04,137.34z"/>
		</g>
		<g>
			<path class="st1" d="M2.58,146.8c2.3,0.03,4.53,0.32,6.74,0.7c2.21,0.37,4.39,0.86,6.54,1.44c2.15,0.58,4.29,1.24,6.38,2.02
				c2.1,0.77,4.18,1.64,6.18,2.77c-2.3-0.02-4.53-0.31-6.74-0.69c-2.21-0.37-4.39-0.86-6.54-1.44c-2.15-0.58-4.29-1.24-6.38-2.03
				C6.66,148.8,4.59,147.93,2.58,146.8z"/>
		</g>
	</g>
</g>
<g>
</g>
<g>
</g>
<g>
</g>
<g>
</g>
<g>
</g>
<g>
</g>
<g>
</g>
<g>
</g>
<g>
</g>
<g>
</g>
<g>
</g>
<g>
</g>
<g>
</g>
<g>
</g>
<g>
</g>
</svg>
