<?xml version="1.0" encoding="utf-8"?>
<!-- Generator: Adobe Illustrator 25.3.1, SVG Export Plug-In . SVG Version: 6.00 Build 0)  -->
<svg version="1.1" id="Layer_1" xmlns="http://www.w3.org/2000/svg" xmlns:xlink="http://www.w3.org/1999/xlink" x="0px" y="0px"
	 viewBox="0 0 352 240" style="enable-background:new 0 0 352 240;" xml:space="preserve">
<style type="text/css">
	.st0{opacity:0.35;fill-rule:evenodd;clip-rule:evenodd;fill:none;stroke:#FFFFFF;stroke-miterlimit:10;}
	.st1{fill:#FFFFFF;}
</style>
<g>
	<polyline class="st0" points="11.39,11.42 95.58,75.87 124.61,120.58 121.71,228.58 	"/>
	<line class="st0" x1="344.09" y1="187.94" x2="124.61" y2="120.58"/>
	<g>
		<g>
			<polygon class="st1" points="349.19,186.28 344.43,188.96 343.76,186.91 			"/>
		</g>
		<g>
			<polygon class="st1" points="344.96,187.3 347.24,192.27 343.22,188.57 			"/>
		</g>
		<g>
			<polygon class="st1" points="340.94,192.27 343.22,187.3 344.96,188.57 			"/>
		</g>
		<g>
			<polygon class="st1" points="338.99,186.28 344.43,186.91 343.76,188.96 			"/>
		</g>
		<g>
			<polygon class="st1" points="344.09,182.57 345.17,187.94 343.01,187.94 			"/>
		</g>
	</g>
	<g>
		<g>
			<polygon class="st1" points="100.68,74.22 95.91,76.9 95.25,74.85 			"/>
		</g>
		<g>
			<polygon class="st1" points="96.45,75.24 98.73,80.21 94.71,76.51 			"/>
		</g>
		<g>
			<polygon class="st1" points="92.43,80.21 94.71,75.24 96.45,76.51 			"/>
		</g>
		<g>
			<polygon class="st1" points="90.48,74.22 95.91,74.85 95.25,76.9 			"/>
		</g>
		<g>
			<polygon class="st1" points="95.58,70.51 96.66,75.87 94.5,75.87 			"/>
		</g>
	</g>
	<g>
		<g>
			<path class="st1" d="M127.9,222.26c-0.78,1.32-1.69,2.51-2.65,3.66c-0.95,1.15-1.97,2.23-3.01,3.3c-1.06,1.04-2.14,2.06-3.3,3.01
				c-1.15,0.96-2.34,1.87-3.66,2.65c0.78-1.32,1.69-2.51,2.65-3.66c0.95-1.15,1.97-2.23,3.01-3.3c1.06-1.04,2.14-2.06,3.3-3.01
				C125.39,223.96,126.58,223.05,127.9,222.26z"/>
		</g>
		<g>
			<path class="st1" d="M119.29,219.95c0.75,1.34,1.33,2.72,1.84,4.12c0.53,1.4,0.95,2.82,1.35,4.26c0.37,1.44,0.72,2.89,0.96,4.36
				c0.26,1.47,0.45,2.96,0.46,4.49c-0.75-1.34-1.33-2.72-1.85-4.12c-0.53-1.4-0.95-2.82-1.35-4.26c-0.37-1.44-0.71-2.89-0.96-4.36
				C119.5,222.98,119.31,221.49,119.29,219.95z"/>
		</g>
		<g>
			<path class="st1" d="M112.98,226.26c1.53,0.02,3.02,0.21,4.49,0.47c1.47,0.24,2.92,0.59,4.36,0.96c1.43,0.4,2.86,0.82,4.26,1.35
				c1.4,0.51,2.79,1.09,4.12,1.85c-1.54-0.02-3.02-0.21-4.49-0.46c-1.47-0.24-2.92-0.59-4.36-0.96c-1.43-0.4-2.86-0.83-4.26-1.35
				C115.7,227.59,114.32,227.01,112.98,226.26z"/>
		</g>
	</g>
	<g>
		<g>
			<path class="st1" d="M17.73,5.12c-0.78,1.32-1.69,2.51-2.65,3.66c-0.95,1.15-1.97,2.23-3.01,3.3c-1.06,1.04-2.14,2.06-3.3,3.01
				c-1.15,0.96-2.34,1.87-3.66,2.65c0.78-1.32,1.69-2.51,2.65-3.66c0.95-1.15,1.97-2.23,3.01-3.3c1.06-1.04,2.14-2.06,3.3-3.01
				C15.22,6.82,16.41,5.9,17.73,5.12z"/>
		</g>
		<g>
			<path class="st1" d="M9.12,2.81c0.75,1.34,1.33,2.72,1.84,4.12c0.53,1.4,0.95,2.82,1.35,4.26c0.37,1.44,0.72,2.89,0.96,4.36
				c0.26,1.47,0.45,2.96,0.46,4.49c-0.75-1.34-1.33-2.72-1.85-4.12c-0.53-1.4-0.95-2.82-1.35-4.26c-0.37-1.44-0.71-2.89-0.96-4.36
				C9.33,5.83,9.13,4.35,9.12,2.81z"/>
		</g>
		<g>
			<path class="st1" d="M2.81,9.12C4.34,9.14,5.83,9.33,7.3,9.59c1.47,0.24,2.92,0.59,4.36,0.96c1.43,0.4,2.86,0.82,4.26,1.35
				c1.4,0.51,2.79,1.09,4.12,1.85c-1.54-0.02-3.02-0.21-4.49-0.46c-1.47-0.24-2.92-0.59-4.36-0.96c-1.43-0.4-2.86-0.83-4.26-1.35
				C5.53,10.45,4.15,9.87,2.81,9.12z"/>
		</g>
	</g>
	<g>
		<g>
			<path class="st1" d="M134.06,111.36c-1.17,1.98-2.54,3.77-3.97,5.49c-1.42,1.73-2.94,3.37-4.51,4.95
				c-1.58,1.58-3.21,3.09-4.94,4.52c-1.72,1.43-3.51,2.8-5.49,3.97c1.17-1.98,2.54-3.77,3.97-5.49c1.42-1.73,2.94-3.37,4.52-4.94
				c1.58-1.57,3.22-3.09,4.95-4.51C130.3,113.9,132.08,112.53,134.06,111.36z"/>
		</g>
		<g>
			<path class="st1" d="M121.14,107.89c1.13,2.01,1.99,4.08,2.76,6.19c0.79,2.1,1.44,4.23,2.03,6.38c0.58,2.15,1.07,4.33,1.44,6.54
				c0.38,2.21,0.67,4.44,0.69,6.74c-1.13-2.01-2-4.08-2.77-6.18c-0.79-2.1-1.44-4.23-2.02-6.38c-0.57-2.16-1.07-4.33-1.44-6.54
				C121.46,112.43,121.17,110.2,121.14,107.89z"/>
		</g>
		<g>
			<path class="st1" d="M111.68,117.36c2.3,0.03,4.53,0.32,6.74,0.7c2.21,0.37,4.39,0.86,6.54,1.44c2.15,0.58,4.29,1.24,6.38,2.02
				c2.1,0.77,4.18,1.64,6.18,2.77c-2.3-0.02-4.53-0.31-6.74-0.69c-2.21-0.37-4.39-0.86-6.54-1.44c-2.15-0.58-4.29-1.24-6.38-2.03
				C115.76,119.35,113.68,118.48,111.68,117.36z"/>
		</g>
	</g>
</g>
<g>
</g>
<g>
</g>
<g>
</g>
<g>
</g>
<g>
</g>
<g>
</g>
<g>
</g>
<g>
</g>
<g>
</g>
<g>
</g>
<g>
</g>
<g>
</g>
<g>
</g>
<g>
</g>
<g>
</g>
</svg>
