<?xml version="1.0" encoding="utf-8"?>
<!-- Generator: Adobe Illustrator 25.3.1, SVG Export Plug-In . SVG Version: 6.00 Build 0)  -->
<svg version="1.1" id="Layer_1" xmlns="http://www.w3.org/2000/svg" xmlns:xlink="http://www.w3.org/1999/xlink" x="0px" y="0px"
	 viewBox="0 0 195 267" style="enable-background:new 0 0 195 267;" xml:space="preserve">
<style type="text/css">
	.st0{opacity:0.35;fill-rule:evenodd;clip-rule:evenodd;fill:none;stroke:#FFFFFF;stroke-miterlimit:10;}
	.st1{fill:#FFFFFF;}
</style>
<g>
	<polyline class="st0" points="122.28,259.74 125.92,219.27 170.94,219.73 183.67,159.7 158.21,119.69 156.84,84.22 106.82,99.68 
		103.19,147.43 50.44,181.53 11.79,247.01 	"/>
	<polyline class="st0" points="175.49,8.28 175.49,44.66 156.84,84.22 	"/>
	<line class="st0" x1="62.71" y1="74.67" x2="106.82" y2="99.68"/>
	<line class="st0" x1="183.67" y1="159.7" x2="103.19" y2="147.43"/>
	<g>
		<g>
			<polygon class="st1" points="127.38,258.09 122.62,260.77 121.95,258.72 			"/>
		</g>
		<g>
			<polygon class="st1" points="123.16,259.11 125.44,264.08 121.41,260.38 			"/>
		</g>
		<g>
			<polygon class="st1" points="119.13,264.08 121.41,259.11 123.16,260.38 			"/>
		</g>
		<g>
			<polygon class="st1" points="117.18,258.09 122.62,258.72 121.95,260.77 			"/>
		</g>
		<g>
			<polygon class="st1" points="122.28,254.38 123.36,259.74 121.21,259.74 			"/>
		</g>
	</g>
	<g>
		<g>
			<polygon class="st1" points="176.04,218.07 171.27,220.75 170.61,218.7 			"/>
		</g>
		<g>
			<polygon class="st1" points="171.81,219.09 174.09,224.07 170.07,220.36 			"/>
		</g>
		<g>
			<polygon class="st1" points="167.79,224.07 170.07,219.09 171.81,220.36 			"/>
		</g>
		<g>
			<polygon class="st1" points="165.84,218.07 171.27,218.7 170.61,220.75 			"/>
		</g>
		<g>
			<polygon class="st1" points="170.94,214.36 172.02,219.73 169.86,219.73 			"/>
		</g>
	</g>
	<g>
		<g>
			<polygon class="st1" points="163.31,118.03 158.54,120.71 157.87,118.66 			"/>
		</g>
		<g>
			<polygon class="st1" points="159.08,119.05 161.36,124.03 157.33,120.32 			"/>
		</g>
		<g>
			<polygon class="st1" points="155.05,124.03 157.33,119.05 159.08,120.32 			"/>
		</g>
		<g>
			<polygon class="st1" points="153.11,118.03 158.54,118.66 157.87,120.71 			"/>
		</g>
		<g>
			<polygon class="st1" points="158.21,114.33 159.28,119.69 157.13,119.69 			"/>
		</g>
	</g>
	<g>
		<g>
			<polygon class="st1" points="161.94,82.56 157.18,85.25 156.51,83.19 			"/>
		</g>
		<g>
			<polygon class="st1" points="157.71,83.59 159.99,88.56 155.97,84.85 			"/>
		</g>
		<g>
			<polygon class="st1" points="153.69,88.56 155.97,83.59 157.71,84.85 			"/>
		</g>
		<g>
			<polygon class="st1" points="151.74,82.56 157.18,83.19 156.51,85.25 			"/>
		</g>
		<g>
			<polygon class="st1" points="156.84,78.86 157.92,84.22 155.76,84.22 			"/>
		</g>
	</g>
	<g>
		<g>
			<polygon class="st1" points="180.59,43 175.82,45.68 175.15,43.63 			"/>
		</g>
		<g>
			<polygon class="st1" points="176.36,44.03 178.64,49 174.61,45.29 			"/>
		</g>
		<g>
			<polygon class="st1" points="172.33,49 174.61,44.03 176.36,45.29 			"/>
		</g>
		<g>
			<polygon class="st1" points="170.39,43 175.82,43.63 175.15,45.68 			"/>
		</g>
		<g>
			<polygon class="st1" points="175.49,39.3 176.56,44.66 174.41,44.66 			"/>
		</g>
	</g>
	<g>
		<g>
			<polygon class="st1" points="180.59,6.62 175.82,9.31 175.15,7.26 			"/>
		</g>
		<g>
			<polygon class="st1" points="176.36,7.65 178.64,12.62 174.61,8.91 			"/>
		</g>
		<g>
			<polygon class="st1" points="172.33,12.62 174.61,7.65 176.36,8.91 			"/>
		</g>
		<g>
			<polygon class="st1" points="170.39,6.62 175.82,7.26 175.15,9.31 			"/>
		</g>
		<g>
			<polygon class="st1" points="175.49,2.92 176.56,8.28 174.41,8.28 			"/>
		</g>
	</g>
	<g>
		<g>
			<polygon class="st1" points="131.02,217.62 126.25,220.3 125.59,218.25 			"/>
		</g>
		<g>
			<polygon class="st1" points="126.79,218.64 129.07,223.61 125.05,219.91 			"/>
		</g>
		<g>
			<polygon class="st1" points="122.77,223.61 125.05,218.64 126.79,219.91 			"/>
		</g>
		<g>
			<polygon class="st1" points="120.82,217.62 126.25,218.25 125.59,220.3 			"/>
		</g>
		<g>
			<polygon class="st1" points="125.92,213.91 127,219.27 124.84,219.27 			"/>
		</g>
	</g>
	<g>
		<g>
			<polygon class="st1" points="108.29,145.77 103.52,148.45 102.85,146.4 			"/>
		</g>
		<g>
			<polygon class="st1" points="104.06,146.79 106.34,151.76 102.31,148.06 			"/>
		</g>
		<g>
			<polygon class="st1" points="100.03,151.76 102.31,146.79 104.06,148.06 			"/>
		</g>
		<g>
			<polygon class="st1" points="98.09,145.77 103.52,146.4 102.85,148.45 			"/>
		</g>
		<g>
			<polygon class="st1" points="103.19,142.06 104.26,147.43 102.11,147.43 			"/>
		</g>
	</g>
	<g>
		<g>
			<polygon class="st1" points="111.92,98.02 107.16,100.71 106.49,98.66 			"/>
		</g>
		<g>
			<polygon class="st1" points="107.7,99.05 109.97,104.02 105.95,100.31 			"/>
		</g>
		<g>
			<polygon class="st1" points="103.67,104.02 105.95,99.05 107.7,100.31 			"/>
		</g>
		<g>
			<polygon class="st1" points="101.72,98.02 107.16,98.66 106.49,100.71 			"/>
		</g>
		<g>
			<polygon class="st1" points="106.82,94.32 107.9,99.68 105.75,99.68 			"/>
		</g>
	</g>
	<g>
		<g>
			<polygon class="st1" points="55.54,179.87 50.77,182.56 50.1,180.51 			"/>
		</g>
		<g>
			<polygon class="st1" points="51.31,180.9 53.59,185.87 49.57,182.16 			"/>
		</g>
		<g>
			<polygon class="st1" points="47.29,185.87 49.57,180.9 51.31,182.16 			"/>
		</g>
		<g>
			<polygon class="st1" points="45.34,179.87 50.77,180.51 50.1,182.56 			"/>
		</g>
		<g>
			<polygon class="st1" points="50.44,176.17 51.52,181.53 49.36,181.53 			"/>
		</g>
	</g>
	<g>
		<g>
			<path class="st1" d="M17.69,240.99c-0.78,1.32-1.69,2.51-2.65,3.66c-0.95,1.15-1.97,2.23-3.01,3.3c-1.06,1.04-2.14,2.06-3.3,3.01
				c-1.15,0.96-2.34,1.87-3.66,2.65c0.78-1.32,1.69-2.51,2.65-3.66c0.95-1.15,1.97-2.23,3.01-3.3c1.06-1.04,2.14-2.06,3.3-3.01
				C15.18,242.69,16.37,241.78,17.69,240.99z"/>
		</g>
		<g>
			<path class="st1" d="M9.07,238.69c0.75,1.34,1.33,2.72,1.84,4.12c0.53,1.4,0.95,2.82,1.35,4.26c0.37,1.44,0.72,2.89,0.96,4.36
				c0.26,1.47,0.45,2.96,0.46,4.49c-0.75-1.34-1.33-2.72-1.85-4.12c-0.53-1.4-0.95-2.82-1.35-4.26c-0.37-1.44-0.71-2.89-0.96-4.36
				C9.29,241.71,9.09,240.22,9.07,238.69z"/>
		</g>
		<g>
			<path class="st1" d="M2.77,244.99c1.53,0.02,3.02,0.21,4.49,0.47c1.47,0.24,2.92,0.59,4.36,0.96c1.43,0.4,2.86,0.82,4.26,1.35
				c1.4,0.51,2.79,1.09,4.12,1.85c-1.54-0.02-3.02-0.21-4.49-0.46c-1.47-0.24-2.92-0.59-4.36-0.96c-1.43-0.4-2.86-0.83-4.26-1.35
				C5.49,246.32,4.1,245.75,2.77,244.99z"/>
		</g>
	</g>
	<g>
		<g>
			<path class="st1" d="M189.92,153.89c-0.78,1.32-1.69,2.51-2.65,3.66c-0.95,1.15-1.97,2.23-3.01,3.3
				c-1.06,1.04-2.14,2.06-3.3,3.01c-1.15,0.96-2.34,1.87-3.66,2.65c0.78-1.32,1.69-2.51,2.65-3.66c0.95-1.15,1.97-2.23,3.01-3.3
				c1.06-1.04,2.14-2.06,3.3-3.01C187.41,155.58,188.6,154.67,189.92,153.89z"/>
		</g>
		<g>
			<path class="st1" d="M181.31,151.58c0.75,1.34,1.33,2.72,1.84,4.12c0.53,1.4,0.95,2.82,1.35,4.26c0.37,1.44,0.72,2.89,0.96,4.36
				c0.26,1.47,0.45,2.96,0.46,4.49c-0.75-1.34-1.33-2.72-1.85-4.12c-0.53-1.4-0.95-2.82-1.35-4.26c-0.37-1.44-0.71-2.89-0.96-4.36
				C181.52,154.6,181.33,153.12,181.31,151.58z"/>
		</g>
		<g>
			<path class="st1" d="M175,157.89c1.53,0.02,3.02,0.21,4.49,0.47c1.47,0.24,2.92,0.59,4.36,0.96c1.43,0.4,2.86,0.82,4.26,1.35
				c1.4,0.51,2.79,1.09,4.12,1.85c-1.54-0.02-3.02-0.21-4.49-0.46c-1.47-0.24-2.92-0.59-4.36-0.96c-1.43-0.4-2.86-0.83-4.26-1.35
				C177.72,159.22,176.34,158.64,175,157.89z"/>
		</g>
	</g>
	<g>
		<g>
			<path class="st1" d="M68.66,68.56c-0.78,1.32-1.69,2.51-2.65,3.66c-0.95,1.15-1.97,2.23-3.01,3.3c-1.06,1.04-2.14,2.06-3.3,3.01
				c-1.15,0.96-2.34,1.87-3.66,2.65c0.78-1.32,1.69-2.51,2.65-3.66c0.95-1.15,1.97-2.23,3.01-3.3c1.06-1.04,2.14-2.06,3.3-3.01
				C66.15,70.25,67.34,69.34,68.66,68.56z"/>
		</g>
		<g>
			<path class="st1" d="M60.04,66.25c0.75,1.34,1.33,2.72,1.84,4.12c0.53,1.4,0.95,2.82,1.35,4.26c0.37,1.44,0.72,2.89,0.96,4.36
				c0.26,1.47,0.45,2.96,0.46,4.49c-0.75-1.34-1.33-2.72-1.85-4.12c-0.53-1.4-0.95-2.82-1.35-4.26c-0.37-1.44-0.71-2.89-0.96-4.36
				C60.26,69.27,60.06,67.78,60.04,66.25z"/>
		</g>
		<g>
			<path class="st1" d="M53.74,72.56c1.53,0.02,3.02,0.21,4.49,0.47c1.47,0.24,2.92,0.59,4.36,0.96c1.43,0.4,2.86,0.82,4.26,1.35
				c1.4,0.51,2.79,1.09,4.12,1.85c-1.54-0.02-3.02-0.21-4.49-0.46c-1.47-0.24-2.92-0.59-4.36-0.96c-1.43-0.4-2.86-0.83-4.26-1.35
				C56.46,73.88,55.07,73.31,53.74,72.56z"/>
		</g>
	</g>
</g>
<g>
</g>
<g>
</g>
<g>
</g>
<g>
</g>
<g>
</g>
<g>
</g>
<g>
</g>
<g>
</g>
<g>
</g>
<g>
</g>
<g>
</g>
<g>
</g>
<g>
</g>
<g>
</g>
<g>
</g>
</svg>
