<?xml version="1.0" encoding="utf-8"?>
<!-- Generator: Adobe Illustrator 25.3.1, SVG Export Plug-In . SVG Version: 6.00 Build 0)  -->
<svg version="1.1" id="Layer_1" xmlns="http://www.w3.org/2000/svg" xmlns:xlink="http://www.w3.org/1999/xlink" x="0px" y="0px"
	 viewBox="0 0 1920 1080" style="enable-background:new 0 0 1920 1080;" xml:space="preserve">
<style type="text/css">
	.st0{fill:#001321;}
	.st1{opacity:0.8;}
	.st2{fill-rule:evenodd;clip-rule:evenodd;fill:#FFFFFF;}
</style>
<g>
	<g>
		<rect class="st0" width="1920" height="1080"/>
	</g>
	<g class="st1">
		<circle class="st2" cx="1557.99" cy="819.19" r="1.8"/>
		<circle class="st2" cx="1094.05" cy="810.84" r="2.32"/>
		<circle class="st2" cx="1008.65" cy="751.57" r="1.25"/>
		<circle class="st2" cx="845.82" cy="715.97" r="0.94"/>
		<circle class="st2" cx="658.77" cy="639.06" r="1.88"/>
		<circle class="st2" cx="535.81" cy="903.5" r="2.21"/>
		<circle class="st2" cx="380.04" cy="432.12" r="1.95"/>
		<circle class="st2" cx="345.51" cy="848.53" r="1.12"/>
		<circle class="st2" cx="457.24" cy="814.69" r="0.9"/>
		<circle class="st2" cx="724.46" cy="831.01" r="0.94"/>
		<circle class="st2" cx="983.97" cy="779.03" r="0.6"/>
		<circle class="st2" cx="1176.77" cy="867.99" r="2.24"/>
		<circle class="st2" cx="1464.38" cy="710.25" r="2.06"/>
		<circle class="st2" cx="1856.09" cy="179.21" r="0.58"/>
		<circle class="st2" cx="1355.72" cy="66.72" r="0.97"/>
		<circle class="st2" cx="1214.75" cy="86.75" r="2.24"/>
		<circle class="st2" cx="1024.94" cy="74.26" r="0.95"/>
		<circle class="st2" cx="763.27" cy="41.61" r="1.21"/>
		<circle class="st2" cx="588.16" cy="30.77" r="2.44"/>
		<circle class="st2" cx="1103.28" cy="294.33" r="0.62"/>
		<circle class="st2" cx="958.06" cy="125.93" r="2.18"/>
		<circle class="st2" cx="782.77" cy="186.97" r="0.75"/>
		<circle class="st2" cx="622.58" cy="59.59" r="0.63"/>
		<circle class="st2" cx="10.28" cy="556.78" r="0.75"/>
		<circle class="st2" cx="121.52" cy="1036.93" r="2.42"/>
		<circle class="st2" cx="184.13" cy="947.34" r="2.16"/>
		<circle class="st2" cx="1214.41" cy="942.69" r="0.78"/>
		<circle class="st2" cx="1315.46" cy="771.68" r="0.73"/>
		<circle class="st2" cx="1425.17" cy="446.03" r="0.52"/>
		<circle class="st2" cx="1433.06" cy="339.37" r="1.84"/>
		<circle class="st2" cx="1047.87" cy="443.45" r="2.45"/>
		<circle class="st2" cx="719.01" cy="455.73" r="2.45"/>
		<circle class="st2" cx="1173" cy="504.99" r="0.64"/>
		<circle class="st2" cx="1188.61" cy="718.87" r="2.4"/>
		<circle class="st2" cx="1247.95" cy="935.44" r="0.64"/>
		<g>
			<circle class="st2" cx="1077.9" cy="936.89" r="2.43"/>
		</g>
		<g>
			<circle class="st2" cx="816.94" cy="874.96" r="2.42"/>
		</g>
		<g>
			<circle class="st2" cx="705.82" cy="801.7" r="1.23"/>
		</g>
		<g>
			<circle class="st2" cx="546.66" cy="829.07" r="0.96"/>
		</g>
		<g>
			<circle class="st2" cx="433.7" cy="735.81" r="0.98"/>
		</g>
		<g>
			<circle class="st2" cx="639.05" cy="893.29" r="1.94"/>
		</g>
		<g>
			<circle class="st2" cx="456.38" cy="485.42" r="1.92"/>
		</g>
		<g>
			<circle class="st2" cx="352.95" cy="463.61" r="2.18"/>
		</g>
		<g>
			<circle class="st2" cx="417.95" cy="219.91" r="0.53"/>
		</g>
		<g>
			<circle class="st2" cx="343.05" cy="122.46" r="2.41"/>
		</g>
		<circle class="st2" cx="339.03" cy="88.95" r="2.36"/>
		<circle class="st2" cx="224.86" cy="45.38" r="0.58"/>
		<circle class="st2" cx="46.55" cy="78.64" r="1.93"/>
		<g>
			<circle class="st2" cx="1663.23" cy="262.66" r="1.29"/>
		</g>
		<g>
			<circle class="st2" cx="1369.74" cy="234.02" r="0.71"/>
		</g>
		<g>
			<circle class="st2" cx="1260.02" cy="235.3" r="1.17"/>
		</g>
		<g>
			<circle class="st2" cx="1098.97" cy="268.45" r="1.94"/>
		</g>
		<g>
			<circle class="st2" cx="842.56" cy="237.98" r="1.22"/>
		</g>
		<g>
			<circle class="st2" cx="647.67" cy="157.78" r="1.74"/>
		</g>
		<g>
			<circle class="st2" cx="432.91" cy="158.61" r="0.97"/>
		</g>
		<g>
			<circle class="st2" cx="201.18" cy="276.25" r="2.2"/>
		</g>
		<circle class="st2" cx="1574.77" cy="346.22" r="1.31"/>
		<circle class="st2" cx="1470.12" cy="246.42" r="1.04"/>
		<circle class="st2" cx="1481.9" cy="341.59" r="1.54"/>
		<circle class="st2" cx="1444.45" cy="356.55" r="1.21"/>
		<circle class="st2" cx="1389.53" cy="434.91" r="1.87"/>
		<circle class="st2" cx="1230.09" cy="478.17" r="2.47"/>
		<circle class="st2" cx="1069.65" cy="521.31" r="2.37"/>
		<circle class="st2" cx="917.47" cy="592.29" r="2.27"/>
		<circle class="st2" cx="773.47" cy="650.87" r="1.3"/>
		<circle class="st2" cx="648.28" cy="698.63" r="1.44"/>
		<circle class="st2" cx="359.6" cy="800.79" r="1.74"/>
		<circle class="st2" cx="698.52" cy="967.78" r="1.07"/>
		<circle class="st2" cx="766.94" cy="758.22" r="1.69"/>
		<circle class="st2" cx="774.2" cy="564.45" r="1.84"/>
		<circle class="st2" cx="873.57" cy="478.79" r="0.65"/>
		<circle class="st2" cx="911.9" cy="439.84" r="1.34"/>
		<circle class="st2" cx="989.56" cy="387.11" r="1.93"/>
		<circle class="st2" cx="970.1" cy="31.67" r="0.91"/>
		<circle class="st2" cx="826.37" cy="121.84" r="1.94"/>
		<circle class="st2" cx="696.49" cy="161.85" r="0.82"/>
		<circle class="st2" cx="522.91" cy="187.18" r="1.47"/>
		<circle class="st2" cx="310.49" cy="263.69" r="1.97"/>
		<circle class="st2" cx="92.16" cy="378.52" r="1.28"/>
		<circle class="st2" cx="1189.43" cy="142.5" r="2.07"/>
		<circle class="st2" cx="1194.13" cy="364.02" r="1.31"/>
		<circle class="st2" cx="1285.43" cy="552.88" r="1.52"/>
		<circle class="st2" cx="1267.46" cy="778.14" r="0.63"/>
		<circle class="st2" cx="1300.5" cy="923" r="0.62"/>
		<circle class="st2" cx="1652.07" cy="399.96" r="1.58"/>
		<circle class="st2" cx="1255.57" cy="414.76" r="0.77"/>
		<circle class="st2" cx="1197.41" cy="616.33" r="0.9"/>
		<circle class="st2" cx="1472.1" cy="1065.69" r="1.38"/>
		<circle class="st2" cx="1865.66" cy="423.58" r="0.69"/>
		<circle class="st2" cx="1856.98" cy="353.35" r="1.13"/>
		<circle class="st2" cx="1828.74" cy="301.05" r="1.42"/>
		<circle class="st2" cx="1797.19" cy="183.58" r="1.78"/>
		<circle class="st2" cx="1812.67" cy="488.57" r="2.29"/>
		<circle class="st2" cx="1600.21" cy="362.01" r="1.92"/>
		<circle class="st2" cx="1320.98" cy="394.09" r="0.57"/>
		<circle class="st2" cx="1481.33" cy="685.95" r="2.1"/>
		<circle class="st2" cx="1513.31" cy="813" r="1.82"/>
		<circle class="st2" cx="1624.41" cy="761.08" r="0.6"/>
		<circle class="st2" cx="1776.19" cy="856.11" r="2.25"/>
		<circle class="st2" cx="1747.35" cy="603.42" r="1.17"/>
		<circle class="st2" cx="1807.58" cy="496.95" r="0.5"/>
		<circle class="st2" cx="1765.35" cy="842.55" r="0.67"/>
		<circle class="st2" cx="1493.29" cy="749.41" r="2.43"/>
		<circle class="st2" cx="1394.18" cy="681.16" r="2.08"/>
		<circle class="st2" cx="1273.12" cy="689.98" r="1.76"/>
		<circle class="st2" cx="1098.11" cy="671.28" r="0.99"/>
		<circle class="st2" cx="905.27" cy="654.05" r="2.46"/>
		<circle class="st2" cx="733.19" cy="677.87" r="0.84"/>
		<circle class="st2" cx="617.66" cy="801.03" r="0.75"/>
		<circle class="st2" cx="329.2" cy="640.92" r="0.84"/>
		<circle class="st2" cx="262.8" cy="555.68" r="1.45"/>
		<circle class="st2" cx="149.36" cy="505.77" r="1.42"/>
		<circle class="st2" cx="25.91" cy="336.79" r="0.82"/>
		<circle class="st2" cx="247.99" cy="558.09" r="1.57"/>
		<circle class="st2" cx="523.86" cy="593.57" r="0.76"/>
		<circle class="st2" cx="676.74" cy="579.2" r="1.69"/>
		<circle class="st2" cx="809.58" cy="415.15" r="1.69"/>
		<circle class="st2" cx="953.9" cy="619.09" r="1.69"/>
		<circle class="st2" cx="1221.2" cy="537.77" r="1.74"/>
		<circle class="st2" cx="1400.16" cy="608.02" r="1.94"/>
		<circle class="st2" cx="1644.33" cy="565.43" r="1.02"/>
		<circle class="st2" cx="1873.65" cy="429.86" r="1.42"/>
		<circle class="st2" cx="384.88" cy="258.62" r="1.15"/>
		<circle class="st2" cx="337.08" cy="439.59" r="1.54"/>
		<circle class="st2" cx="275.27" cy="586.21" r="1.6"/>
		<circle class="st2" cx="249.31" cy="742.16" r="1.8"/>
		<circle class="st2" cx="1799.81" cy="550.4" r="0.74"/>
		<circle class="st2" cx="1795.01" cy="406.33" r="2.47"/>
		<circle class="st2" cx="1755.61" cy="687.59" r="1.15"/>
		<circle class="st2" cx="1818.27" cy="195.81" r="1.49"/>
		<circle class="st2" cx="1692.02" cy="106.8" r="1.4"/>
		<circle class="st2" cx="1694.17" cy="320.55" r="1.78"/>
		<circle class="st2" cx="1835.1" cy="367.22" r="2.09"/>
	</g>
</g>
<g>
</g>
<g>
</g>
<g>
</g>
<g>
</g>
<g>
</g>
<g>
</g>
<g>
</g>
<g>
</g>
<g>
</g>
<g>
</g>
<g>
</g>
<g>
</g>
<g>
</g>
<g>
</g>
<g>
</g>
</svg>
