<?xml version="1.0" encoding="utf-8"?>
<!-- Generator: Adobe Illustrator 25.3.1, SVG Export Plug-In . SVG Version: 6.00 Build 0)  -->
<svg version="1.1" id="Layer_1" xmlns="http://www.w3.org/2000/svg" xmlns:xlink="http://www.w3.org/1999/xlink" x="0px" y="0px"
	 viewBox="0 0 418 206" style="enable-background:new 0 0 418 206;" xml:space="preserve">
<style type="text/css">
	.st0{opacity:0.35;fill-rule:evenodd;clip-rule:evenodd;fill:none;stroke:#FFFFFF;stroke-miterlimit:10;}
	.st1{fill:#FFFFFF;}
</style>
<g>
	<polyline class="st0" points="406.79,194.75 392.27,141.34 236.66,72.82 10.79,11.27 	"/>
	<g>
		<g>
			<polygon class="st1" points="397.37,139.68 392.6,142.36 391.94,140.31 			"/>
		</g>
		<g>
			<polygon class="st1" points="393.14,140.7 395.42,145.67 391.4,141.97 			"/>
		</g>
		<g>
			<polygon class="st1" points="389.12,145.67 391.4,140.7 393.14,141.97 			"/>
		</g>
		<g>
			<polygon class="st1" points="387.17,139.68 392.6,140.31 391.94,142.36 			"/>
		</g>
		<g>
			<polygon class="st1" points="392.27,135.97 393.35,141.34 391.19,141.34 			"/>
		</g>
	</g>
	<g>
		<g>
			<path class="st1" d="M413.17,188.49c-0.78,1.32-1.69,2.51-2.65,3.66c-0.95,1.15-1.97,2.23-3.01,3.3
				c-1.06,1.04-2.14,2.06-3.3,3.01c-1.15,0.96-2.34,1.87-3.66,2.65c0.78-1.32,1.69-2.51,2.65-3.66c0.95-1.15,1.97-2.23,3.01-3.3
				c1.06-1.04,2.14-2.06,3.3-3.01C410.66,190.19,411.85,189.28,413.17,188.49z"/>
		</g>
		<g>
			<path class="st1" d="M404.56,186.19c0.75,1.34,1.33,2.72,1.84,4.12c0.53,1.4,0.95,2.82,1.35,4.26c0.37,1.44,0.72,2.89,0.96,4.36
				c0.26,1.47,0.45,2.96,0.46,4.49c-0.75-1.34-1.33-2.72-1.85-4.12c-0.53-1.4-0.95-2.82-1.35-4.26c-0.37-1.44-0.71-2.89-0.96-4.36
				C404.77,189.21,404.58,187.72,404.56,186.19z"/>
		</g>
		<g>
			<path class="st1" d="M398.25,192.49c1.53,0.02,3.02,0.21,4.49,0.47c1.47,0.24,2.92,0.59,4.36,0.96c1.43,0.4,2.86,0.82,4.26,1.35
				c1.4,0.51,2.79,1.09,4.12,1.85c-1.54-0.02-3.02-0.21-4.49-0.46c-1.47-0.24-2.92-0.59-4.36-0.96c-1.43-0.4-2.86-0.83-4.26-1.35
				C400.97,193.82,399.59,193.25,398.25,192.49z"/>
		</g>
	</g>
	<g>
		<g>
			<path class="st1" d="M243.72,66.59c-0.78,1.32-1.69,2.51-2.65,3.66c-0.95,1.15-1.97,2.23-3.01,3.3c-1.06,1.04-2.14,2.06-3.3,3.01
				c-1.15,0.96-2.34,1.87-3.66,2.65c0.78-1.32,1.69-2.51,2.65-3.66c0.95-1.15,1.97-2.23,3.01-3.3c1.06-1.04,2.14-2.06,3.3-3.01
				C241.2,68.29,242.4,67.37,243.72,66.59z"/>
		</g>
		<g>
			<path class="st1" d="M235.1,64.28c0.75,1.34,1.33,2.72,1.84,4.12c0.53,1.4,0.95,2.82,1.35,4.26c0.37,1.44,0.72,2.89,0.96,4.36
				c0.26,1.47,0.45,2.96,0.46,4.49c-0.75-1.34-1.33-2.72-1.85-4.12c-0.53-1.4-0.95-2.82-1.35-4.26c-0.37-1.44-0.71-2.89-0.96-4.36
				C235.31,67.3,235.12,65.82,235.1,64.28z"/>
		</g>
		<g>
			<path class="st1" d="M228.79,70.59c1.53,0.02,3.02,0.21,4.49,0.47c1.47,0.24,2.92,0.59,4.36,0.96c1.43,0.4,2.86,0.82,4.26,1.35
				c1.4,0.51,2.79,1.09,4.12,1.85c-1.54-0.02-3.02-0.21-4.49-0.46c-1.47-0.24-2.92-0.59-4.36-0.96c-1.43-0.4-2.86-0.83-4.26-1.35
				C231.51,71.92,230.13,71.34,228.79,70.59z"/>
		</g>
	</g>
	<g>
		<g>
			<path class="st1" d="M17.44,4.89c-0.78,1.32-1.69,2.51-2.65,3.66c-0.95,1.15-1.97,2.23-3.01,3.3c-1.06,1.04-2.14,2.06-3.3,3.01
				c-1.15,0.96-2.34,1.87-3.66,2.65c0.78-1.32,1.69-2.51,2.65-3.66c0.95-1.15,1.97-2.23,3.01-3.3c1.06-1.04,2.14-2.06,3.3-3.01
				C14.93,6.58,16.12,5.67,17.44,4.89z"/>
		</g>
		<g>
			<path class="st1" d="M8.83,2.58c0.75,1.34,1.33,2.72,1.84,4.12c0.53,1.4,0.95,2.82,1.35,4.26c0.37,1.44,0.72,2.89,0.96,4.36
				c0.26,1.47,0.45,2.96,0.46,4.49c-0.75-1.34-1.33-2.72-1.85-4.12c-0.53-1.4-0.95-2.82-1.35-4.26C9.88,9.99,9.53,8.55,9.29,7.07
				C9.04,5.6,8.84,4.11,8.83,2.58z"/>
		</g>
		<g>
			<path class="st1" d="M2.52,8.89C4.05,8.91,5.54,9.1,7.01,9.35c1.47,0.24,2.92,0.59,4.36,0.96c1.43,0.4,2.86,0.82,4.26,1.35
				c1.4,0.51,2.79,1.09,4.12,1.85c-1.53-0.02-3.02-0.21-4.49-0.46c-1.47-0.24-2.92-0.59-4.36-0.96c-1.43-0.4-2.86-0.83-4.26-1.35
				C5.24,10.22,3.85,9.64,2.52,8.89z"/>
		</g>
	</g>
</g>
<g>
</g>
<g>
</g>
<g>
</g>
<g>
</g>
<g>
</g>
<g>
</g>
<g>
</g>
<g>
</g>
<g>
</g>
<g>
</g>
<g>
</g>
<g>
</g>
<g>
</g>
<g>
</g>
<g>
</g>
</svg>
