<?xml version="1.0" encoding="utf-8"?>
<!-- Generator: Adobe Illustrator 25.3.1, SVG Export Plug-In . SVG Version: 6.00 Build 0)  -->
<svg version="1.1" id="Layer_1" xmlns="http://www.w3.org/2000/svg" xmlns:xlink="http://www.w3.org/1999/xlink" x="0px" y="0px"
	 viewBox="0 0 570 570" style="enable-background:new 0 0 570 570;" xml:space="preserve">
<style type="text/css">
	.st0{opacity:0.1;fill-rule:evenodd;clip-rule:evenodd;fill:#FED112;}
	.st1{fill-rule:evenodd;clip-rule:evenodd;fill:#FED112;}
	.st2{fill-rule:evenodd;clip-rule:evenodd;fill:#FFFE27;}
	.st3{fill-rule:evenodd;clip-rule:evenodd;fill:#FEAA03;}
</style>
<g>
	<path class="st0" d="M570,285c0,157.42-127.58,285-285,285c-9.83,0-19.57-0.5-29.17-1.47C112.13,553.93,0,432.56,0,285
		c0-23.86,2.94-47.04,8.48-69.19c6-24.17,15.12-47.09,26.87-68.36c21.07-38.2,50.66-71.02,86.21-95.92C167.84,19.05,224.19,0,285,0
		c114.57,0,213.34,67.61,258.58,165.07c15.12,32.49,24.27,68.27,26.07,106C569.88,275.69,570,280.33,570,285z"/>
	<path class="st0" d="M525,285c0,132.56-107.44,240-240,240c-8.28,0-16.48-0.42-24.56-1.24C139.43,511.47,45,409.26,45,285
		c0-20.09,2.47-39.61,7.14-58.27c5.05-20.35,12.73-39.65,22.63-57.57c17.74-32.17,42.66-59.81,72.6-80.78
		C186.34,61.04,233.8,45,285,45c96.48,0,179.66,56.93,217.75,139.01c12.73,27.36,20.43,57.49,21.95,89.26
		C524.9,277.16,525,281.07,525,285z"/>
	<path class="st0" d="M485,285c0,110.47-89.53,200-200,200c-6.9,0-13.74-0.35-20.47-1.03C163.69,473.73,85,388.55,85,285
		c0-16.75,2.06-33.01,5.95-48.56c4.21-16.96,10.61-33.04,18.86-47.98c14.78-26.81,35.55-49.84,60.5-67.32
		C202.78,98.37,242.33,85,285,85c80.4,0,149.71,47.44,181.46,115.84c10.61,22.8,17.03,47.91,18.29,74.38
		C484.92,278.46,485,281.72,485,285z"/>
	<path class="st0" d="M450,285c0,91.14-73.86,165-165,165c-5.69,0-11.33-0.29-16.89-0.85C184.92,440.7,120,370.43,120,285
		c0-13.82,1.7-27.23,4.91-40.06c3.47-13.99,8.75-27.26,15.56-39.58c12.2-22.12,29.33-41.12,49.91-55.54
		C217.17,131.03,249.8,120,285,120c66.33,0,123.51,39.14,149.7,95.57c8.75,18.81,14.05,39.52,15.09,61.37
		C449.93,279.61,450,282.3,450,285z"/>
	<path class="st0" d="M420,285c0,74.57-60.43,135-135,135c-4.66,0-9.27-0.24-13.82-0.7C203.12,412.39,150,354.9,150,285
		c0-11.3,1.39-22.28,4.02-32.78c2.84-11.45,7.16-22.3,12.73-32.38c9.98-18.09,24-33.64,40.84-45.44C229.5,159.02,256.2,150,285,150
		c54.27,0,101.06,32.02,122.48,78.19c7.16,15.39,11.49,32.34,12.35,50.21C419.94,280.59,420,282.79,420,285z"/>
	<path class="st1" d="M395,285c0,60.76-49.24,110-110,110c-3.8,0-7.55-0.19-11.26-0.57C218.28,388.8,175,341.95,175,285
		c0-9.21,1.13-18.16,3.27-26.71c2.31-9.33,5.84-18.17,10.37-26.39c8.13-14.74,19.55-27.41,33.27-37.02
		C239.78,182.35,261.53,175,285,175c44.22,0,82.34,26.09,99.8,63.71c5.84,12.54,9.37,26.35,10.06,40.91
		C394.95,281.41,395,283.2,395,285z"/>
	<path class="st2" d="M227.99,230.99c-6.61,10.19-17.11,9.8-21.76,3.86c-3.4-4.34-10.69-4.77-17.59-2.95
		c8.13-14.74,19.55-27.41,33.27-37.02c-1.35,5.26-2.29,11.13-0.81,14.08C224.13,215.01,234.61,220.8,227.99,230.99z"/>
	<path class="st2" d="M273.74,394.43C218.28,388.8,175,341.95,175,285c0-9.21,1.13-18.16,3.27-26.71
		c10.76,4.69,21.55,15.35,23.16,27.58c1.76,13.43,30.12,1.61,39.22,18.48c6.56,12.16-17.51,33.06-14.91,43.76
		c2.59,10.69,29.98,7.15,37.92,17.51C269.19,372.83,273.02,384.77,273.74,394.43z"/>
	<path class="st2" d="M359.87,339.91c-16.49,13.06-23.83-1.02-30.57,4.13c-8,6.11-3.94,17.37-18.36,26.64
		c-26.25,16.88-41.97-29.77-26.98-41.25c15.06-11.54,22.88,1.76,41.21-11.27c9.78-6.95,5.24-13.76,16.25-19.83
		C365.88,284.84,387.19,318.28,359.87,339.91z"/>
	<path class="st3" d="M394.86,279.62c-7.52-2.76-12.92-9.73-16.88-11.94c-5.24-2.91-17.85,0.2-21.15-6.79
		c-3.29-6.99,10.1-13.2,18.63-15.72c3.23-0.95,6.51-3.58,9.35-6.47C390.64,251.25,394.17,265.06,394.86,279.62z"/>
	<path class="st3" d="M269.11,218.01c5.43-9.7,18.97-21.13,29.64-20.74c10.67,0.39,20.04,4.05,26.25,14.73s10.9,9.83,25.62,18.63
		c8.19,4.9,3.98,17.62-6.99,21.54c-13.25,4.73-32.48-6.93-40.95,7.37c-9.06,15.31,8.63,21.19,7.83,30.27
		c-1.5,16.88-13.4,24.15-25.43,24.15c-12.03,0-33.43-10.56-23.92-33.46c9.51-22.9-23.19-10.07-31.05-8.93
		c-7.86,1.14-19.11-2.86-12.42-16.69c6.26-12.95,19.66-4.2,29.77-9.95C259.83,237.88,266.12,223.35,269.11,218.01z"/>
</g>
<g>
</g>
<g>
</g>
<g>
</g>
<g>
</g>
<g>
</g>
<g>
</g>
<g>
</g>
<g>
</g>
<g>
</g>
<g>
</g>
<g>
</g>
<g>
</g>
<g>
</g>
<g>
</g>
<g>
</g>
</svg>
