<?xml version="1.0" encoding="utf-8"?>
<!-- Generator: Adobe Illustrator 25.3.1, SVG Export Plug-In . SVG Version: 6.00 Build 0)  -->
<svg version="1.1" id="Layer_1" xmlns="http://www.w3.org/2000/svg" xmlns:xlink="http://www.w3.org/1999/xlink" x="0px" y="0px"
	 viewBox="0 0 324 355" style="enable-background:new 0 0 324 355;" xml:space="preserve">
<style type="text/css">
	.st0{opacity:0.35;fill-rule:evenodd;clip-rule:evenodd;fill:none;stroke:#FFFFFF;stroke-miterlimit:10;}
	.st1{fill:#FFFFFF;}
</style>
<g>
	<polyline class="st0" points="314.66,347.72 312.6,310.77 233.23,275.19 140.85,272.45 117.59,256.03 15.63,107.54 	"/>
	<polyline class="st0" points="107.33,15.85 164.12,97.96 197.65,204.71 212.7,227.29 242.81,221.13 233.23,275.19 	"/>
	<g>
		<g>
			<polygon class="st1" points="247.91,219.47 243.14,222.16 242.48,220.11 			"/>
		</g>
		<g>
			<polygon class="st1" points="243.68,220.5 245.96,225.47 241.94,221.77 			"/>
		</g>
		<g>
			<polygon class="st1" points="239.66,225.47 241.94,220.5 243.68,221.77 			"/>
		</g>
		<g>
			<polygon class="st1" points="237.71,219.47 243.14,220.11 242.48,222.16 			"/>
		</g>
		<g>
			<polygon class="st1" points="242.81,215.77 243.89,221.13 241.73,221.13 			"/>
		</g>
	</g>
	<g>
		<g>
			<polygon class="st1" points="319.76,346.06 314.99,348.74 314.32,346.69 			"/>
		</g>
		<g>
			<polygon class="st1" points="315.53,347.09 317.81,352.06 313.78,348.35 			"/>
		</g>
		<g>
			<polygon class="st1" points="311.5,352.06 313.78,347.09 315.53,348.35 			"/>
		</g>
		<g>
			<polygon class="st1" points="309.56,346.06 314.99,346.69 314.32,348.74 			"/>
		</g>
		<g>
			<polygon class="st1" points="314.66,342.36 315.73,347.72 313.58,347.72 			"/>
		</g>
	</g>
	<g>
		<g>
			<polygon class="st1" points="217.8,225.63 213.03,228.31 212.37,226.26 			"/>
		</g>
		<g>
			<polygon class="st1" points="213.57,226.66 215.85,231.63 211.83,227.92 			"/>
		</g>
		<g>
			<polygon class="st1" points="209.55,231.63 211.83,226.66 213.57,227.92 			"/>
		</g>
		<g>
			<polygon class="st1" points="207.6,225.63 213.03,226.26 212.37,228.31 			"/>
		</g>
		<g>
			<polygon class="st1" points="212.7,221.93 213.78,227.29 211.62,227.29 			"/>
		</g>
	</g>
	<g>
		<g>
			<polygon class="st1" points="145.95,270.79 141.19,273.48 140.52,271.43 			"/>
		</g>
		<g>
			<polygon class="st1" points="141.73,271.82 144.01,276.79 139.98,273.08 			"/>
		</g>
		<g>
			<polygon class="st1" points="137.7,276.79 139.98,271.82 141.73,273.08 			"/>
		</g>
		<g>
			<polygon class="st1" points="135.75,270.79 141.19,271.43 140.52,273.48 			"/>
		</g>
		<g>
			<polygon class="st1" points="140.85,267.09 141.93,272.45 139.78,272.45 			"/>
		</g>
	</g>
	<g>
		<g>
			<polygon class="st1" points="202.75,203.05 197.98,205.73 197.31,203.68 			"/>
		</g>
		<g>
			<polygon class="st1" points="198.52,204.08 200.8,209.05 196.78,205.34 			"/>
		</g>
		<g>
			<polygon class="st1" points="194.5,209.05 196.78,204.08 198.52,205.34 			"/>
		</g>
		<g>
			<polygon class="st1" points="192.55,203.05 197.98,203.68 197.31,205.73 			"/>
		</g>
		<g>
			<polygon class="st1" points="197.65,199.35 198.73,204.71 196.57,204.71 			"/>
		</g>
	</g>
	<g>
		<g>
			<path class="st1" d="M170.45,91.65c-0.78,1.32-1.69,2.51-2.65,3.66c-0.95,1.15-1.97,2.23-3.01,3.3c-1.06,1.04-2.14,2.06-3.3,3.01
				c-1.15,0.96-2.34,1.87-3.66,2.65c0.78-1.32,1.69-2.51,2.65-3.66c0.95-1.15,1.97-2.23,3.01-3.3c1.06-1.04,2.14-2.06,3.3-3.01
				C167.94,93.34,169.13,92.43,170.45,91.65z"/>
		</g>
		<g>
			<path class="st1" d="M161.84,89.34c0.75,1.34,1.33,2.72,1.84,4.12c0.53,1.4,0.95,2.82,1.35,4.26c0.37,1.44,0.72,2.89,0.96,4.36
				c0.26,1.47,0.45,2.96,0.46,4.49c-0.75-1.34-1.33-2.72-1.85-4.12c-0.53-1.4-0.95-2.82-1.35-4.26c-0.37-1.44-0.71-2.89-0.96-4.36
				C162.05,92.36,161.85,90.87,161.84,89.34z"/>
		</g>
		<g>
			<path class="st1" d="M155.53,95.65c1.53,0.02,3.02,0.21,4.49,0.47c1.47,0.24,2.92,0.59,4.36,0.96c1.43,0.4,2.86,0.82,4.26,1.35
				c1.4,0.51,2.79,1.09,4.12,1.85c-1.54-0.02-3.02-0.21-4.49-0.46c-1.47-0.24-2.92-0.59-4.36-0.96c-1.43-0.4-2.86-0.83-4.26-1.35
				C158.25,96.98,156.87,96.4,155.53,95.65z"/>
		</g>
	</g>
	<g>
		<g>
			<path class="st1" d="M123.89,249.78c-0.78,1.32-1.69,2.51-2.65,3.66c-0.95,1.15-1.97,2.23-3.01,3.3
				c-1.06,1.04-2.14,2.06-3.3,3.01c-1.15,0.96-2.34,1.87-3.66,2.65c0.78-1.32,1.69-2.51,2.65-3.66c0.95-1.15,1.97-2.23,3.01-3.3
				c1.06-1.04,2.14-2.06,3.3-3.01C121.38,251.48,122.57,250.56,123.89,249.78z"/>
		</g>
		<g>
			<path class="st1" d="M115.28,247.47c0.75,1.34,1.33,2.72,1.84,4.12c0.53,1.4,0.95,2.82,1.35,4.26c0.37,1.44,0.72,2.89,0.96,4.36
				c0.26,1.47,0.45,2.96,0.46,4.49c-0.75-1.34-1.33-2.72-1.85-4.12c-0.53-1.4-0.95-2.82-1.35-4.26c-0.37-1.44-0.71-2.89-0.96-4.36
				C115.49,250.49,115.3,249.01,115.28,247.47z"/>
		</g>
		<g>
			<path class="st1" d="M108.97,253.78c1.53,0.02,3.02,0.21,4.49,0.47c1.47,0.24,2.92,0.59,4.36,0.96c1.43,0.4,2.86,0.82,4.26,1.35
				c1.4,0.51,2.79,1.09,4.12,1.85c-1.54-0.02-3.02-0.21-4.49-0.46c-1.47-0.24-2.92-0.59-4.36-0.96c-1.43-0.4-2.86-0.83-4.26-1.35
				C111.69,255.11,110.31,254.53,108.97,253.78z"/>
		</g>
	</g>
	<g>
		<g>
			<path class="st1" d="M239.52,268.88c-0.78,1.32-1.69,2.51-2.65,3.66c-0.95,1.15-1.97,2.23-3.01,3.3
				c-1.06,1.04-2.14,2.06-3.3,3.01c-1.15,0.96-2.34,1.87-3.66,2.65c0.78-1.32,1.69-2.51,2.65-3.66c0.95-1.15,1.97-2.23,3.01-3.3
				c1.06-1.04,2.14-2.06,3.3-3.01C237,270.57,238.2,269.66,239.52,268.88z"/>
		</g>
		<g>
			<path class="st1" d="M230.9,266.57c0.75,1.34,1.33,2.72,1.84,4.12c0.53,1.4,0.95,2.82,1.35,4.26c0.37,1.44,0.72,2.89,0.96,4.36
				c0.26,1.47,0.45,2.96,0.46,4.49c-0.75-1.34-1.33-2.72-1.85-4.12c-0.53-1.4-0.95-2.82-1.35-4.26c-0.37-1.44-0.71-2.89-0.96-4.36
				C231.11,269.59,230.92,268.1,230.9,266.57z"/>
		</g>
		<g>
			<path class="st1" d="M224.59,272.87c1.53,0.02,3.02,0.21,4.49,0.47c1.47,0.24,2.92,0.59,4.36,0.96c1.43,0.4,2.86,0.82,4.26,1.35
				c1.4,0.51,2.79,1.09,4.12,1.85c-1.54-0.02-3.02-0.21-4.49-0.46c-1.47-0.24-2.92-0.59-4.36-0.96c-1.43-0.4-2.86-0.83-4.26-1.35
				C227.31,274.2,225.93,273.63,224.59,272.87z"/>
		</g>
	</g>
	<g>
		<g>
			<path class="st1" d="M319.01,304.55c-0.78,1.32-1.69,2.51-2.65,3.66c-0.95,1.15-1.97,2.23-3.01,3.3
				c-1.06,1.04-2.14,2.06-3.3,3.01c-1.15,0.96-2.34,1.87-3.66,2.65c0.78-1.32,1.69-2.51,2.65-3.66c0.95-1.15,1.97-2.23,3.01-3.3
				c1.06-1.04,2.14-2.06,3.3-3.01C316.5,306.24,317.69,305.33,319.01,304.55z"/>
		</g>
		<g>
			<path class="st1" d="M310.39,302.24c0.75,1.34,1.33,2.72,1.84,4.12c0.53,1.4,0.95,2.82,1.35,4.26c0.37,1.44,0.72,2.89,0.96,4.36
				c0.26,1.47,0.45,2.96,0.46,4.49c-0.75-1.34-1.33-2.72-1.85-4.12c-0.53-1.4-0.95-2.82-1.35-4.26c-0.37-1.44-0.71-2.89-0.96-4.36
				C310.6,305.26,310.41,303.77,310.39,302.24z"/>
		</g>
		<g>
			<path class="st1" d="M304.08,308.55c1.53,0.02,3.02,0.21,4.49,0.47c1.47,0.24,2.92,0.59,4.36,0.96c1.43,0.4,2.86,0.82,4.26,1.35
				c1.4,0.51,2.79,1.09,4.12,1.85c-1.54-0.02-3.02-0.21-4.49-0.46c-1.47-0.24-2.92-0.59-4.36-0.96c-1.43-0.4-2.86-0.83-4.26-1.35
				C306.81,309.88,305.42,309.3,304.08,308.55z"/>
		</g>
	</g>
	<g>
		<g>
			<path class="st1" d="M116.84,6.41c-1.17,1.98-2.54,3.77-3.97,5.49c-1.42,1.73-2.94,3.37-4.51,4.95
				c-1.58,1.58-3.21,3.09-4.94,4.52c-1.72,1.43-3.51,2.8-5.49,3.97c1.17-1.98,2.54-3.77,3.97-5.49c1.42-1.73,2.94-3.37,4.52-4.94
				c1.58-1.57,3.22-3.09,4.95-4.51C113.08,8.95,114.86,7.58,116.84,6.41z"/>
		</g>
		<g>
			<path class="st1" d="M103.92,2.94c1.13,2.01,1.99,4.08,2.76,6.19c0.79,2.1,1.44,4.23,2.03,6.38c0.58,2.15,1.07,4.33,1.44,6.54
				c0.38,2.21,0.67,4.44,0.69,6.74c-1.13-2.01-2-4.08-2.77-6.18c-0.79-2.1-1.44-4.23-2.02-6.38c-0.57-2.16-1.07-4.33-1.44-6.54
				C104.24,7.47,103.95,5.24,103.92,2.94z"/>
		</g>
		<g>
			<path class="st1" d="M94.46,12.4c2.3,0.03,4.53,0.32,6.74,0.7c2.21,0.37,4.39,0.86,6.54,1.44c2.15,0.58,4.29,1.24,6.38,2.02
				c2.1,0.77,4.18,1.64,6.18,2.77c-2.3-0.02-4.53-0.31-6.74-0.69c-2.21-0.37-4.39-0.86-6.54-1.44c-2.15-0.58-4.29-1.24-6.38-2.03
				C98.54,14.4,96.47,13.53,94.46,12.4z"/>
		</g>
	</g>
	<g>
		<g>
			<path class="st1" d="M25.07,98.09c-1.17,1.98-2.54,3.77-3.97,5.49c-1.42,1.73-2.94,3.37-4.51,4.95
				c-1.58,1.58-3.21,3.09-4.94,4.52c-1.72,1.43-3.51,2.8-5.49,3.97c1.17-1.98,2.54-3.77,3.97-5.49c1.42-1.73,2.94-3.37,4.52-4.94
				c1.58-1.57,3.22-3.09,4.95-4.51C21.3,100.63,23.09,99.26,25.07,98.09z"/>
		</g>
		<g>
			<path class="st1" d="M12.14,94.62c1.13,2.01,1.99,4.08,2.76,6.19c0.79,2.1,1.44,4.23,2.03,6.38c0.58,2.15,1.07,4.33,1.44,6.54
				c0.38,2.21,0.67,4.44,0.69,6.74c-1.13-2.01-2-4.08-2.77-6.18c-0.79-2.1-1.44-4.23-2.02-6.38c-0.57-2.16-1.07-4.33-1.44-6.54
				C12.46,99.15,12.17,96.92,12.14,94.62z"/>
		</g>
		<g>
			<path class="st1" d="M2.68,104.08c2.3,0.03,4.53,0.32,6.74,0.7c2.21,0.37,4.39,0.86,6.54,1.44c2.15,0.58,4.29,1.24,6.38,2.02
				c2.1,0.77,4.18,1.64,6.18,2.77c-2.3-0.02-4.53-0.31-6.74-0.69c-2.21-0.37-4.39-0.86-6.54-1.44c-2.15-0.58-4.29-1.24-6.38-2.03
				C6.77,106.08,4.69,105.21,2.68,104.08z"/>
		</g>
	</g>
</g>
<g>
</g>
<g>
</g>
<g>
</g>
<g>
</g>
<g>
</g>
<g>
</g>
<g>
</g>
<g>
</g>
<g>
</g>
<g>
</g>
<g>
</g>
<g>
</g>
<g>
</g>
<g>
</g>
<g>
</g>
</svg>
