<?xml version="1.0" encoding="utf-8"?>
<!-- Generator: Adobe Illustrator 25.3.1, SVG Export Plug-In . SVG Version: 6.00 Build 0)  -->
<svg version="1.1" id="Layer_1" xmlns="http://www.w3.org/2000/svg" xmlns:xlink="http://www.w3.org/1999/xlink" x="0px" y="0px"
	 viewBox="0 0 209 278" style="enable-background:new 0 0 209 278;" xml:space="preserve">
<style type="text/css">
	.st0{opacity:0.35;fill-rule:evenodd;clip-rule:evenodd;fill:none;stroke:#FFFFFF;stroke-miterlimit:10;}
	.st1{fill:#FFFFFF;}
</style>
<g>
	<polyline class="st0" points="193.63,8.29 108.27,68.09 40.92,117.45 31.63,147.64 8.99,163.9 7.82,188.29 67.63,266.09 
		72.86,220.22 126.85,221.38 146.6,240.54 201.18,270.74 	"/>
	<polyline class="st0" points="146.02,127.9 98.98,157.51 40.92,117.45 	"/>
	<g>
		<g>
			<polygon class="st1" points="198.73,6.63 193.96,9.31 193.29,7.26 			"/>
		</g>
		<g>
			<polygon class="st1" points="194.5,7.66 196.78,12.63 192.76,8.92 			"/>
		</g>
		<g>
			<polygon class="st1" points="190.48,12.63 192.76,7.66 194.5,8.92 			"/>
		</g>
		<g>
			<polygon class="st1" points="188.53,6.63 193.96,7.26 193.29,9.31 			"/>
		</g>
		<g>
			<polygon class="st1" points="193.63,2.93 194.71,8.29 192.55,8.29 			"/>
		</g>
	</g>
	<g>
		<g>
			<polygon class="st1" points="151.12,126.24 146.35,128.92 145.68,126.87 			"/>
		</g>
		<g>
			<polygon class="st1" points="146.89,127.27 149.17,132.24 145.14,128.53 			"/>
		</g>
		<g>
			<polygon class="st1" points="142.86,132.24 145.14,127.27 146.89,128.53 			"/>
		</g>
		<g>
			<polygon class="st1" points="140.92,126.24 146.35,126.87 145.68,128.92 			"/>
		</g>
		<g>
			<polygon class="st1" points="146.02,122.54 147.09,127.9 144.94,127.9 			"/>
		</g>
	</g>
	<g>
		<g>
			<polygon class="st1" points="104.08,155.85 99.32,158.54 98.65,156.49 			"/>
		</g>
		<g>
			<polygon class="st1" points="99.86,156.88 102.14,161.85 98.11,158.15 			"/>
		</g>
		<g>
			<polygon class="st1" points="95.83,161.85 98.11,156.88 99.86,158.15 			"/>
		</g>
		<g>
			<polygon class="st1" points="93.88,155.85 99.32,156.49 98.65,158.54 			"/>
		</g>
		<g>
			<polygon class="st1" points="98.98,152.15 100.06,157.51 97.91,157.51 			"/>
		</g>
	</g>
	<g>
		<g>
			<polygon class="st1" points="131.95,219.72 127.19,222.41 126.52,220.36 			"/>
		</g>
		<g>
			<polygon class="st1" points="127.73,220.75 130.01,225.72 125.98,222.02 			"/>
		</g>
		<g>
			<polygon class="st1" points="123.7,225.72 125.98,220.75 127.73,222.02 			"/>
		</g>
		<g>
			<polygon class="st1" points="121.75,219.72 127.19,220.36 126.52,222.41 			"/>
		</g>
		<g>
			<polygon class="st1" points="126.85,216.02 127.93,221.38 125.78,221.38 			"/>
		</g>
	</g>
	<g>
		<g>
			<polygon class="st1" points="151.7,238.89 146.93,241.57 146.26,239.52 			"/>
		</g>
		<g>
			<polygon class="st1" points="147.47,239.91 149.75,244.88 145.72,241.18 			"/>
		</g>
		<g>
			<polygon class="st1" points="143.44,244.88 145.72,239.91 147.47,241.18 			"/>
		</g>
		<g>
			<polygon class="st1" points="141.5,238.89 146.93,239.52 146.26,241.57 			"/>
		</g>
		<g>
			<polygon class="st1" points="146.6,235.18 147.67,240.54 145.52,240.54 			"/>
		</g>
	</g>
	<g>
		<g>
			<polygon class="st1" points="206.28,269.08 201.51,271.76 200.84,269.71 			"/>
		</g>
		<g>
			<polygon class="st1" points="202.05,270.1 204.33,275.07 200.3,271.37 			"/>
		</g>
		<g>
			<polygon class="st1" points="198.02,275.07 200.3,270.1 202.05,271.37 			"/>
		</g>
		<g>
			<polygon class="st1" points="196.08,269.08 201.51,269.71 200.84,271.76 			"/>
		</g>
		<g>
			<polygon class="st1" points="201.18,265.37 202.25,270.74 200.1,270.74 			"/>
		</g>
	</g>
	<g>
		<g>
			<polygon class="st1" points="77.96,218.56 73.19,221.25 72.52,219.2 			"/>
		</g>
		<g>
			<polygon class="st1" points="73.73,219.59 76.01,224.56 71.98,220.85 			"/>
		</g>
		<g>
			<polygon class="st1" points="69.7,224.56 71.98,219.59 73.73,220.85 			"/>
		</g>
		<g>
			<polygon class="st1" points="67.76,218.56 73.19,219.2 72.52,221.25 			"/>
		</g>
		<g>
			<polygon class="st1" points="72.86,214.86 73.93,220.22 71.78,220.22 			"/>
		</g>
	</g>
	<g>
		<g>
			<polygon class="st1" points="46.02,115.79 41.25,118.47 40.59,116.42 			"/>
		</g>
		<g>
			<polygon class="st1" points="41.79,116.81 44.07,121.79 40.05,118.08 			"/>
		</g>
		<g>
			<polygon class="st1" points="37.77,121.79 40.05,116.81 41.79,118.08 			"/>
		</g>
		<g>
			<polygon class="st1" points="35.82,115.79 41.25,116.42 40.59,118.47 			"/>
		</g>
		<g>
			<polygon class="st1" points="40.92,112.09 42,117.45 39.84,117.45 			"/>
		</g>
	</g>
	<g>
		<g>
			<polygon class="st1" points="14.09,162.24 9.32,164.92 8.65,162.87 			"/>
		</g>
		<g>
			<polygon class="st1" points="9.86,163.27 12.14,168.24 8.11,164.53 			"/>
		</g>
		<g>
			<polygon class="st1" points="5.83,168.24 8.11,163.27 9.86,164.53 			"/>
		</g>
		<g>
			<polygon class="st1" points="3.89,162.24 9.32,162.87 8.65,164.92 			"/>
		</g>
		<g>
			<polygon class="st1" points="8.99,158.54 10.06,163.9 7.91,163.9 			"/>
		</g>
	</g>
	<g>
		<g>
			<polygon class="st1" points="12.92,186.63 8.16,189.31 7.49,187.26 			"/>
		</g>
		<g>
			<polygon class="st1" points="8.7,187.65 10.98,192.62 6.95,188.92 			"/>
		</g>
		<g>
			<polygon class="st1" points="4.67,192.62 6.95,187.65 8.7,188.92 			"/>
		</g>
		<g>
			<polygon class="st1" points="2.72,186.63 8.16,187.26 7.49,189.31 			"/>
		</g>
		<g>
			<polygon class="st1" points="7.82,182.92 8.9,188.29 6.75,188.29 			"/>
		</g>
	</g>
	<g>
		<g>
			<path class="st1" d="M114.8,61.91c-0.78,1.32-1.69,2.51-2.65,3.66c-0.95,1.15-1.97,2.23-3.01,3.3c-1.06,1.04-2.14,2.06-3.3,3.01
				c-1.15,0.96-2.34,1.87-3.66,2.65c0.78-1.32,1.69-2.51,2.65-3.66c0.95-1.15,1.97-2.23,3.01-3.3c1.06-1.04,2.14-2.06,3.3-3.01
				C112.29,63.6,113.48,62.69,114.8,61.91z"/>
		</g>
		<g>
			<path class="st1" d="M106.19,59.6c0.75,1.34,1.33,2.72,1.84,4.12c0.53,1.4,0.95,2.82,1.35,4.26c0.37,1.44,0.72,2.89,0.96,4.36
				c0.26,1.47,0.45,2.96,0.46,4.49c-0.75-1.34-1.33-2.72-1.85-4.12c-0.53-1.4-0.95-2.82-1.35-4.26c-0.37-1.44-0.71-2.89-0.96-4.36
				C106.4,62.62,106.2,61.13,106.19,59.6z"/>
		</g>
		<g>
			<path class="st1" d="M99.88,65.91c1.53,0.02,3.02,0.21,4.49,0.47c1.47,0.24,2.92,0.59,4.36,0.96c1.43,0.4,2.86,0.82,4.26,1.35
				c1.4,0.51,2.79,1.09,4.12,1.85c-1.54-0.02-3.02-0.21-4.49-0.46c-1.47-0.24-2.92-0.59-4.36-0.96c-1.43-0.4-2.86-0.83-4.26-1.35
				C102.6,67.23,101.22,66.66,99.88,65.91z"/>
		</g>
	</g>
	<g>
		<g>
			<path class="st1" d="M74,259.94c-0.78,1.32-1.69,2.51-2.65,3.66c-0.95,1.15-1.97,2.23-3.01,3.3c-1.06,1.04-2.14,2.06-3.3,3.01
				c-1.15,0.96-2.34,1.87-3.66,2.65c0.78-1.32,1.69-2.51,2.65-3.66c0.95-1.15,1.97-2.23,3.01-3.3c1.06-1.04,2.14-2.06,3.3-3.01
				C71.49,261.63,72.68,260.72,74,259.94z"/>
		</g>
		<g>
			<path class="st1" d="M65.38,257.63c0.75,1.34,1.33,2.72,1.84,4.12c0.53,1.4,0.95,2.82,1.35,4.26c0.37,1.44,0.72,2.89,0.96,4.36
				c0.26,1.47,0.45,2.96,0.46,4.49c-0.75-1.34-1.33-2.72-1.85-4.12c-0.53-1.4-0.95-2.82-1.35-4.26c-0.37-1.44-0.71-2.89-0.96-4.36
				C65.6,260.65,65.4,259.16,65.38,257.63z"/>
		</g>
		<g>
			<path class="st1" d="M59.08,263.94c1.53,0.02,3.02,0.21,4.49,0.47c1.47,0.24,2.92,0.59,4.36,0.96c1.43,0.4,2.86,0.82,4.26,1.35
				c1.4,0.51,2.79,1.09,4.12,1.85c-1.54-0.02-3.02-0.21-4.49-0.46c-1.47-0.24-2.92-0.59-4.36-0.96c-1.43-0.4-2.86-0.83-4.26-1.35
				C61.8,265.27,60.41,264.69,59.08,263.94z"/>
		</g>
	</g>
	<g>
		<g>
			<path class="st1" d="M38,141.48c-0.78,1.32-1.69,2.51-2.65,3.66c-0.95,1.15-1.97,2.23-3.01,3.3c-1.06,1.04-2.14,2.06-3.3,3.01
				c-1.15,0.96-2.34,1.87-3.66,2.65c0.78-1.32,1.69-2.51,2.65-3.66c0.95-1.15,1.97-2.23,3.01-3.3c1.06-1.04,2.14-2.06,3.3-3.01
				C35.48,143.18,36.68,142.26,38,141.48z"/>
		</g>
		<g>
			<path class="st1" d="M29.38,139.17c0.75,1.34,1.33,2.72,1.84,4.12c0.53,1.4,0.95,2.82,1.35,4.26c0.37,1.44,0.72,2.89,0.96,4.36
				c0.26,1.47,0.45,2.96,0.46,4.49c-0.75-1.34-1.33-2.72-1.85-4.12c-0.53-1.4-0.95-2.82-1.35-4.26c-0.37-1.44-0.71-2.89-0.96-4.36
				C29.59,142.19,29.4,140.71,29.38,139.17z"/>
		</g>
		<g>
			<path class="st1" d="M23.07,145.48c1.53,0.02,3.02,0.21,4.49,0.47c1.47,0.24,2.92,0.59,4.36,0.96c1.43,0.4,2.86,0.82,4.26,1.35
				c1.4,0.51,2.79,1.09,4.12,1.85c-1.53-0.02-3.02-0.21-4.49-0.46c-1.47-0.24-2.92-0.59-4.36-0.96c-1.43-0.4-2.86-0.83-4.26-1.35
				C25.79,146.81,24.41,146.23,23.07,145.48z"/>
		</g>
	</g>
</g>
<g>
</g>
<g>
</g>
<g>
</g>
<g>
</g>
<g>
</g>
<g>
</g>
<g>
</g>
<g>
</g>
<g>
</g>
<g>
</g>
<g>
</g>
<g>
</g>
<g>
</g>
<g>
</g>
<g>
</g>
</svg>
