<?xml version="1.0" encoding="utf-8"?>
<!-- Generator: Adobe Illustrator 25.3.1, SVG Export Plug-In . SVG Version: 6.00 Build 0)  -->
<svg version="1.1" id="Layer_1" xmlns="http://www.w3.org/2000/svg" xmlns:xlink="http://www.w3.org/1999/xlink" x="0px" y="0px"
	 viewBox="0 0 245 264" style="enable-background:new 0 0 245 264;" xml:space="preserve">
<style type="text/css">
	.st0{opacity:0.35;fill-rule:evenodd;clip-rule:evenodd;fill:none;stroke:#FFFFFF;stroke-miterlimit:10;}
	.st1{fill:#FFFFFF;}
</style>
<g>
	<polyline class="st0" points="7.66,216.1 38.86,252.72 75.03,225.14 123.4,224.69 171.78,229.66 237.34,235.99 200.72,193.94 
		158.22,154.61 138.78,138.78 117.07,80.46 104.87,50.16 90.85,35.7 98.08,14.45 114.81,8.12 143.3,17.16 149.63,40.67 
		128.83,52.43 104.87,50.16 	"/>
	<g>
		<g>
			<polygon class="st1" points="148.4,15.5 143.63,18.18 142.96,16.13 			"/>
		</g>
		<g>
			<polygon class="st1" points="144.17,16.53 146.45,21.5 142.43,17.79 			"/>
		</g>
		<g>
			<polygon class="st1" points="140.15,21.5 142.43,16.53 144.17,17.79 			"/>
		</g>
		<g>
			<polygon class="st1" points="138.2,15.5 143.63,16.13 142.96,18.18 			"/>
		</g>
		<g>
			<polygon class="st1" points="143.3,11.8 144.38,17.16 142.22,17.16 			"/>
		</g>
	</g>
	<g>
		<g>
			<polygon class="st1" points="133.93,50.77 129.16,53.45 128.5,51.4 			"/>
		</g>
		<g>
			<polygon class="st1" points="129.7,51.79 131.98,56.76 127.96,53.06 			"/>
		</g>
		<g>
			<polygon class="st1" points="125.68,56.76 127.96,51.79 129.7,53.06 			"/>
		</g>
		<g>
			<polygon class="st1" points="123.73,50.77 129.16,51.4 128.5,53.45 			"/>
		</g>
		<g>
			<polygon class="st1" points="128.83,47.06 129.91,52.43 127.75,52.43 			"/>
		</g>
	</g>
	<g>
		<g>
			<polygon class="st1" points="143.88,137.13 139.11,139.81 138.44,137.76 			"/>
		</g>
		<g>
			<polygon class="st1" points="139.65,138.15 141.93,143.12 137.9,139.42 			"/>
		</g>
		<g>
			<polygon class="st1" points="135.62,143.12 137.9,138.15 139.65,139.42 			"/>
		</g>
		<g>
			<polygon class="st1" points="133.68,137.13 139.11,137.76 138.44,139.81 			"/>
		</g>
		<g>
			<polygon class="st1" points="138.78,133.42 139.85,138.78 137.7,138.78 			"/>
		</g>
	</g>
	<g>
		<g>
			<polygon class="st1" points="163.32,152.95 158.55,155.63 157.89,153.58 			"/>
		</g>
		<g>
			<polygon class="st1" points="159.09,153.97 161.37,158.95 157.35,155.24 			"/>
		</g>
		<g>
			<polygon class="st1" points="155.07,158.95 157.35,153.97 159.09,155.24 			"/>
		</g>
		<g>
			<polygon class="st1" points="153.12,152.95 158.55,153.58 157.89,155.63 			"/>
		</g>
		<g>
			<polygon class="st1" points="158.22,149.24 159.3,154.61 157.14,154.61 			"/>
		</g>
	</g>
	<g>
		<g>
			<polygon class="st1" points="80.13,223.48 75.36,226.17 74.69,224.11 			"/>
		</g>
		<g>
			<polygon class="st1" points="75.9,224.51 78.18,229.48 74.15,225.77 			"/>
		</g>
		<g>
			<polygon class="st1" points="71.87,229.48 74.15,224.51 75.9,225.77 			"/>
		</g>
		<g>
			<polygon class="st1" points="69.93,223.48 75.36,224.11 74.69,226.17 			"/>
		</g>
		<g>
			<polygon class="st1" points="75.03,219.78 76.1,225.14 73.95,225.14 			"/>
		</g>
	</g>
	<g>
		<g>
			<polygon class="st1" points="12.76,214.44 7.99,217.12 7.33,215.07 			"/>
		</g>
		<g>
			<polygon class="st1" points="8.53,215.46 10.81,220.44 6.79,216.73 			"/>
		</g>
		<g>
			<polygon class="st1" points="4.51,220.44 6.79,215.46 8.53,216.73 			"/>
		</g>
		<g>
			<polygon class="st1" points="2.56,214.44 7.99,215.07 7.33,217.12 			"/>
		</g>
		<g>
			<polygon class="st1" points="7.66,210.73 8.74,216.1 6.58,216.1 			"/>
		</g>
	</g>
	<g>
		<g>
			<polygon class="st1" points="128.5,223.03 123.74,225.71 123.07,223.66 			"/>
		</g>
		<g>
			<polygon class="st1" points="124.28,224.05 126.56,229.03 122.53,225.32 			"/>
		</g>
		<g>
			<polygon class="st1" points="120.25,229.03 122.53,224.05 124.28,225.32 			"/>
		</g>
		<g>
			<polygon class="st1" points="118.3,223.03 123.74,223.66 123.07,225.71 			"/>
		</g>
		<g>
			<polygon class="st1" points="123.4,219.33 124.48,224.69 122.33,224.69 			"/>
		</g>
	</g>
	<g>
		<g>
			<polygon class="st1" points="176.88,228 172.12,230.69 171.45,228.64 			"/>
		</g>
		<g>
			<polygon class="st1" points="172.65,229.03 174.93,234 170.91,230.29 			"/>
		</g>
		<g>
			<polygon class="st1" points="168.63,234 170.91,229.03 172.65,230.29 			"/>
		</g>
		<g>
			<polygon class="st1" points="166.68,228 172.12,228.64 171.45,230.69 			"/>
		</g>
		<g>
			<polygon class="st1" points="171.78,224.3 172.86,229.66 170.7,229.66 			"/>
		</g>
	</g>
	<g>
		<g>
			<polygon class="st1" points="242.44,234.33 237.67,237.02 237.01,234.97 			"/>
		</g>
		<g>
			<polygon class="st1" points="238.21,235.36 240.49,240.33 236.47,236.62 			"/>
		</g>
		<g>
			<polygon class="st1" points="234.19,240.33 236.47,235.36 238.21,236.62 			"/>
		</g>
		<g>
			<polygon class="st1" points="232.24,234.33 237.67,234.97 237.01,237.02 			"/>
		</g>
		<g>
			<polygon class="st1" points="237.34,230.63 238.42,235.99 236.26,235.99 			"/>
		</g>
	</g>
	<g>
		<g>
			<polygon class="st1" points="119.91,6.46 115.15,9.14 114.48,7.09 			"/>
		</g>
		<g>
			<polygon class="st1" points="115.69,7.48 117.97,12.45 113.94,8.75 			"/>
		</g>
		<g>
			<polygon class="st1" points="111.66,12.45 113.94,7.48 115.69,8.75 			"/>
		</g>
		<g>
			<polygon class="st1" points="109.71,6.46 115.15,7.09 114.48,9.14 			"/>
		</g>
		<g>
			<polygon class="st1" points="114.81,2.75 115.89,8.12 113.74,8.12 			"/>
		</g>
	</g>
	<g>
		<g>
			<polygon class="st1" points="103.18,12.79 98.42,15.47 97.75,13.42 			"/>
		</g>
		<g>
			<polygon class="st1" points="98.96,13.81 101.24,18.78 97.21,15.08 			"/>
		</g>
		<g>
			<polygon class="st1" points="94.93,18.78 97.21,13.81 98.96,15.08 			"/>
		</g>
		<g>
			<polygon class="st1" points="92.98,12.79 98.42,13.42 97.75,15.47 			"/>
		</g>
		<g>
			<polygon class="st1" points="98.08,9.08 99.16,14.45 97.01,14.45 			"/>
		</g>
	</g>
	<g>
		<g>
			<polygon class="st1" points="95.95,34.04 91.18,36.72 90.52,34.67 			"/>
		</g>
		<g>
			<polygon class="st1" points="91.72,35.06 94,40.03 89.98,36.33 			"/>
		</g>
		<g>
			<polygon class="st1" points="87.7,40.03 89.98,35.06 91.72,36.33 			"/>
		</g>
		<g>
			<polygon class="st1" points="85.75,34.04 91.18,34.67 90.52,36.72 			"/>
		</g>
		<g>
			<polygon class="st1" points="90.85,30.33 91.93,35.7 89.77,35.7 			"/>
		</g>
	</g>
	<g>
		<g>
			<polygon class="st1" points="109.97,48.51 105.2,51.19 104.53,49.14 			"/>
		</g>
		<g>
			<polygon class="st1" points="105.74,49.53 108.02,54.5 103.99,50.8 			"/>
		</g>
		<g>
			<polygon class="st1" points="101.71,54.5 103.99,49.53 105.74,50.8 			"/>
		</g>
		<g>
			<polygon class="st1" points="99.77,48.51 105.2,49.14 104.53,51.19 			"/>
		</g>
		<g>
			<polygon class="st1" points="104.87,44.8 105.94,50.16 103.79,50.16 			"/>
		</g>
	</g>
	<g>
		<g>
			<path class="st1" d="M44.88,246.32c-0.78,1.32-1.69,2.51-2.65,3.66c-0.95,1.15-1.97,2.23-3.01,3.3c-1.06,1.04-2.14,2.06-3.3,3.01
				c-1.15,0.96-2.34,1.87-3.66,2.65c0.78-1.32,1.69-2.51,2.65-3.66c0.95-1.15,1.97-2.23,3.01-3.3c1.06-1.04,2.14-2.06,3.3-3.01
				C42.37,248.02,43.56,247.1,44.88,246.32z"/>
		</g>
		<g>
			<path class="st1" d="M36.26,244.01c0.75,1.34,1.33,2.72,1.84,4.12c0.53,1.4,0.95,2.82,1.35,4.26c0.37,1.44,0.72,2.89,0.96,4.36
				c0.26,1.47,0.45,2.96,0.46,4.49c-0.75-1.34-1.33-2.72-1.85-4.12c-0.53-1.4-0.95-2.82-1.35-4.26c-0.37-1.44-0.71-2.89-0.96-4.36
				C36.47,247.03,36.28,245.55,36.26,244.01z"/>
		</g>
		<g>
			<path class="st1" d="M29.95,250.32c1.53,0.02,3.02,0.21,4.49,0.47c1.47,0.24,2.92,0.59,4.36,0.96c1.43,0.4,2.86,0.82,4.26,1.35
				c1.4,0.51,2.79,1.09,4.12,1.85c-1.54-0.02-3.02-0.21-4.49-0.46c-1.47-0.24-2.92-0.59-4.36-0.96c-1.43-0.4-2.86-0.83-4.26-1.35
				C32.68,251.65,31.29,251.07,29.95,250.32z"/>
		</g>
	</g>
	<g>
		<g>
			<path class="st1" d="M207.06,187.7c-0.78,1.32-1.69,2.51-2.65,3.66c-0.95,1.15-1.97,2.23-3.01,3.3c-1.06,1.04-2.14,2.06-3.3,3.01
				c-1.15,0.96-2.34,1.87-3.66,2.65c0.78-1.32,1.69-2.51,2.65-3.66c0.95-1.15,1.97-2.23,3.01-3.3c1.06-1.04,2.14-2.06,3.3-3.01
				C204.55,189.4,205.74,188.49,207.06,187.7z"/>
		</g>
		<g>
			<path class="st1" d="M198.44,185.4c0.75,1.34,1.33,2.72,1.84,4.12c0.53,1.4,0.95,2.82,1.35,4.26c0.37,1.44,0.72,2.89,0.96,4.36
				c0.26,1.47,0.45,2.96,0.46,4.49c-0.75-1.34-1.33-2.72-1.85-4.12c-0.53-1.4-0.95-2.82-1.35-4.26c-0.37-1.44-0.71-2.89-0.96-4.36
				C198.65,188.42,198.46,186.93,198.44,185.4z"/>
		</g>
		<g>
			<path class="st1" d="M192.13,191.7c1.53,0.02,3.02,0.21,4.49,0.47c1.47,0.24,2.92,0.59,4.36,0.96c1.43,0.4,2.86,0.82,4.26,1.35
				c1.4,0.51,2.79,1.09,4.12,1.85c-1.54-0.02-3.02-0.21-4.49-0.46c-1.47-0.24-2.92-0.59-4.36-0.96c-1.43-0.4-2.86-0.83-4.26-1.35
				C194.86,193.03,193.47,192.46,192.13,191.7z"/>
		</g>
	</g>
	<g>
		<g>
			<path class="st1" d="M123.68,74.28c-0.78,1.32-1.69,2.51-2.65,3.66c-0.95,1.15-1.97,2.23-3.01,3.3c-1.06,1.04-2.14,2.06-3.3,3.01
				c-1.15,0.96-2.34,1.87-3.66,2.65c0.78-1.32,1.69-2.51,2.65-3.66c0.95-1.15,1.97-2.23,3.01-3.3c1.06-1.04,2.14-2.06,3.3-3.01
				C121.17,75.97,122.36,75.06,123.68,74.28z"/>
		</g>
		<g>
			<path class="st1" d="M115.06,71.97c0.75,1.34,1.33,2.72,1.84,4.12c0.53,1.4,0.95,2.82,1.35,4.26c0.37,1.44,0.72,2.89,0.96,4.36
				c0.26,1.47,0.45,2.96,0.46,4.49c-0.75-1.34-1.33-2.72-1.85-4.12c-0.53-1.4-0.95-2.82-1.35-4.26c-0.37-1.44-0.71-2.89-0.96-4.36
				C115.27,74.99,115.08,73.5,115.06,71.97z"/>
		</g>
		<g>
			<path class="st1" d="M108.75,78.27c1.53,0.02,3.02,0.21,4.49,0.47c1.47,0.24,2.92,0.59,4.36,0.96c1.43,0.4,2.86,0.82,4.26,1.35
				c1.4,0.51,2.79,1.09,4.12,1.85c-1.54-0.02-3.02-0.21-4.49-0.46c-1.47-0.24-2.92-0.59-4.36-0.96c-1.43-0.4-2.86-0.83-4.26-1.35
				C111.48,79.6,110.09,79.03,108.75,78.27z"/>
		</g>
	</g>
	<g>
		<g>
			<path class="st1" d="M159.12,31.23c-1.17,1.98-2.54,3.77-3.97,5.49c-1.42,1.73-2.94,3.37-4.51,4.95
				c-1.58,1.58-3.21,3.09-4.94,4.52c-1.72,1.43-3.51,2.8-5.49,3.97c1.17-1.98,2.54-3.77,3.97-5.49c1.42-1.73,2.94-3.37,4.52-4.94
				c1.58-1.57,3.22-3.09,4.95-4.51C155.35,33.77,157.14,32.41,159.12,31.23z"/>
		</g>
		<g>
			<path class="st1" d="M146.19,27.77c1.13,2.01,1.99,4.08,2.76,6.19c0.79,2.1,1.44,4.23,2.03,6.38c0.58,2.15,1.07,4.33,1.44,6.54
				c0.38,2.21,0.67,4.44,0.69,6.74c-1.13-2.01-2-4.08-2.77-6.18c-0.79-2.1-1.44-4.23-2.02-6.38c-0.57-2.16-1.07-4.33-1.44-6.54
				C146.51,32.3,146.22,30.07,146.19,27.77z"/>
		</g>
		<g>
			<path class="st1" d="M136.73,37.23c2.3,0.03,4.53,0.32,6.74,0.7c2.21,0.37,4.39,0.86,6.54,1.44c2.15,0.58,4.29,1.24,6.38,2.02
				c2.1,0.77,4.18,1.64,6.18,2.77c-2.3-0.02-4.53-0.31-6.74-0.69c-2.21-0.37-4.39-0.86-6.54-1.44c-2.15-0.58-4.29-1.24-6.38-2.03
				C140.82,39.22,138.74,38.36,136.73,37.23z"/>
		</g>
	</g>
</g>
<g>
</g>
<g>
</g>
<g>
</g>
<g>
</g>
<g>
</g>
<g>
</g>
<g>
</g>
<g>
</g>
<g>
</g>
<g>
</g>
<g>
</g>
<g>
</g>
<g>
</g>
<g>
</g>
<g>
</g>
</svg>
