<?xml version="1.0" encoding="utf-8"?>
<!-- Generator: Adobe Illustrator 25.3.1, SVG Export Plug-In . SVG Version: 6.00 Build 0)  -->
<svg version="1.1" id="Layer_1" xmlns="http://www.w3.org/2000/svg" xmlns:xlink="http://www.w3.org/1999/xlink" x="0px" y="0px"
	 viewBox="0 0 303 232" style="enable-background:new 0 0 303 232;" xml:space="preserve">
<style type="text/css">
	.st0{opacity:0.35;fill-rule:evenodd;clip-rule:evenodd;fill:none;stroke:#FFFFFF;stroke-miterlimit:10;}
	.st1{fill:#FFFFFF;}
</style>
<g>
	<polyline class="st0" points="295.03,29.1 239.25,7.92 164.36,65.25 191.22,92.11 258.36,104.5 280.05,145.31 98.25,195.4 
		11.49,220.71 43.51,158.73 191.22,92.11 	"/>
	<g>
		<g>
			<polygon class="st1" points="169.46,63.59 164.69,66.28 164.03,64.23 			"/>
		</g>
		<g>
			<polygon class="st1" points="165.23,64.62 167.51,69.59 163.49,65.89 			"/>
		</g>
		<g>
			<polygon class="st1" points="161.21,69.59 163.49,64.62 165.23,65.89 			"/>
		</g>
		<g>
			<polygon class="st1" points="159.26,63.59 164.69,64.23 164.03,66.28 			"/>
		</g>
		<g>
			<polygon class="st1" points="164.36,59.89 165.44,65.25 163.28,65.25 			"/>
		</g>
	</g>
	<g>
		<g>
			<polygon class="st1" points="48.61,157.08 43.84,159.76 43.17,157.71 			"/>
		</g>
		<g>
			<polygon class="st1" points="44.38,158.1 46.66,163.07 42.63,159.37 			"/>
		</g>
		<g>
			<polygon class="st1" points="40.36,163.07 42.63,158.1 44.38,159.37 			"/>
		</g>
		<g>
			<polygon class="st1" points="38.41,157.08 43.84,157.71 43.17,159.76 			"/>
		</g>
		<g>
			<polygon class="st1" points="43.51,153.37 44.58,158.73 42.43,158.73 			"/>
		</g>
	</g>
	<g>
		<g>
			<polygon class="st1" points="244.35,6.27 239.58,8.95 238.92,6.9 			"/>
		</g>
		<g>
			<polygon class="st1" points="240.12,7.29 242.4,12.26 238.38,8.56 			"/>
		</g>
		<g>
			<polygon class="st1" points="236.1,12.26 238.38,7.29 240.12,8.56 			"/>
		</g>
		<g>
			<polygon class="st1" points="234.15,6.27 239.58,6.9 238.92,8.95 			"/>
		</g>
		<g>
			<polygon class="st1" points="239.25,2.56 240.33,7.92 238.17,7.92 			"/>
		</g>
	</g>
	<g>
		<g>
			<polygon class="st1" points="300.13,27.44 295.36,30.12 294.7,28.07 			"/>
		</g>
		<g>
			<polygon class="st1" points="295.9,28.47 298.18,33.44 294.16,29.73 			"/>
		</g>
		<g>
			<polygon class="st1" points="291.88,33.44 294.16,28.47 295.9,29.73 			"/>
		</g>
		<g>
			<polygon class="st1" points="289.93,27.44 295.36,28.07 294.7,30.12 			"/>
		</g>
		<g>
			<polygon class="st1" points="295.03,23.74 296.11,29.1 293.95,29.1 			"/>
		</g>
	</g>
	<g>
		<g>
			<polygon class="st1" points="263.46,102.85 258.69,105.53 258.03,103.48 			"/>
		</g>
		<g>
			<polygon class="st1" points="259.23,103.87 261.51,108.84 257.49,105.14 			"/>
		</g>
		<g>
			<polygon class="st1" points="255.21,108.84 257.49,103.87 259.23,105.14 			"/>
		</g>
		<g>
			<polygon class="st1" points="253.26,102.85 258.69,103.48 258.03,105.53 			"/>
		</g>
		<g>
			<polygon class="st1" points="258.36,99.14 259.44,104.5 257.28,104.5 			"/>
		</g>
	</g>
	<g>
		<g>
			<path class="st1" d="M286.35,138.95c-0.78,1.32-1.69,2.51-2.65,3.66c-0.95,1.15-1.97,2.23-3.01,3.3
				c-1.06,1.04-2.14,2.06-3.3,3.01c-1.15,0.96-2.34,1.87-3.66,2.65c0.78-1.32,1.69-2.51,2.65-3.66c0.95-1.15,1.97-2.23,3.01-3.3
				c1.06-1.04,2.14-2.06,3.3-3.01C283.84,140.64,285.03,139.73,286.35,138.95z"/>
		</g>
		<g>
			<path class="st1" d="M277.73,136.64c0.75,1.34,1.33,2.72,1.84,4.12c0.53,1.4,0.95,2.82,1.35,4.26c0.37,1.44,0.72,2.89,0.96,4.36
				c0.26,1.47,0.45,2.96,0.46,4.49c-0.75-1.34-1.33-2.72-1.85-4.12c-0.53-1.4-0.95-2.82-1.35-4.26c-0.37-1.44-0.71-2.89-0.96-4.36
				C277.94,139.66,277.75,138.18,277.73,136.64z"/>
		</g>
		<g>
			<path class="st1" d="M271.42,142.95c1.53,0.02,3.02,0.21,4.49,0.47c1.47,0.24,2.92,0.59,4.36,0.96c1.43,0.4,2.86,0.82,4.26,1.35
				c1.4,0.51,2.79,1.09,4.12,1.85c-1.54-0.02-3.02-0.21-4.49-0.46c-1.47-0.24-2.92-0.59-4.36-0.96c-1.43-0.4-2.86-0.83-4.26-1.35
				C274.15,144.28,272.76,143.7,271.42,142.95z"/>
		</g>
	</g>
	<g>
		<g>
			<path class="st1" d="M104.6,189.07c-0.78,1.32-1.69,2.51-2.65,3.66c-0.95,1.15-1.97,2.23-3.01,3.3c-1.06,1.04-2.14,2.06-3.3,3.01
				c-1.15,0.96-2.34,1.87-3.66,2.65c0.78-1.32,1.69-2.51,2.65-3.66c0.95-1.15,1.97-2.23,3.01-3.3c1.06-1.04,2.14-2.06,3.3-3.01
				C102.08,190.76,103.28,189.85,104.6,189.07z"/>
		</g>
		<g>
			<path class="st1" d="M95.98,186.76c0.75,1.34,1.33,2.72,1.84,4.12c0.53,1.4,0.95,2.82,1.35,4.26c0.37,1.44,0.72,2.89,0.96,4.36
				c0.26,1.47,0.45,2.96,0.46,4.49c-0.75-1.34-1.33-2.72-1.85-4.12c-0.53-1.4-0.95-2.82-1.35-4.26c-0.37-1.44-0.71-2.89-0.96-4.36
				C96.19,189.78,96,188.29,95.98,186.76z"/>
		</g>
		<g>
			<path class="st1" d="M89.67,193.07c1.53,0.02,3.02,0.21,4.49,0.47c1.47,0.24,2.92,0.59,4.36,0.96c1.43,0.4,2.86,0.82,4.26,1.35
				c1.4,0.51,2.79,1.09,4.12,1.85c-1.54-0.02-3.02-0.21-4.49-0.46c-1.47-0.24-2.92-0.59-4.36-0.96c-1.43-0.4-2.86-0.83-4.26-1.35
				C92.39,194.39,91.01,193.82,89.67,193.07z"/>
		</g>
	</g>
	<g>
		<g>
			<path class="st1" d="M17.8,214.51c-0.78,1.32-1.69,2.51-2.65,3.66c-0.95,1.15-1.97,2.23-3.01,3.3c-1.06,1.04-2.14,2.06-3.3,3.01
				c-1.15,0.96-2.34,1.87-3.66,2.65c0.78-1.32,1.69-2.51,2.65-3.66c0.95-1.15,1.97-2.23,3.01-3.3c1.06-1.04,2.14-2.06,3.3-3.01
				C15.29,216.21,16.48,215.3,17.8,214.51z"/>
		</g>
		<g>
			<path class="st1" d="M9.18,212.2c0.75,1.34,1.33,2.72,1.84,4.12c0.53,1.4,0.95,2.82,1.35,4.26c0.37,1.44,0.72,2.89,0.96,4.36
				c0.26,1.47,0.45,2.96,0.46,4.49c-0.75-1.34-1.33-2.72-1.85-4.12c-0.53-1.4-0.95-2.82-1.35-4.26c-0.37-1.44-0.71-2.89-0.96-4.36
				C9.39,215.23,9.2,213.74,9.18,212.2z"/>
		</g>
		<g>
			<path class="st1" d="M2.87,218.51c1.53,0.02,3.02,0.21,4.49,0.47c1.47,0.24,2.92,0.59,4.36,0.96c1.43,0.4,2.86,0.82,4.26,1.35
				c1.4,0.51,2.79,1.09,4.12,1.85c-1.54-0.02-3.02-0.21-4.49-0.46c-1.47-0.24-2.92-0.59-4.36-0.96c-1.43-0.4-2.86-0.83-4.26-1.35
				C5.59,219.84,4.21,219.26,2.87,218.51z"/>
		</g>
	</g>
	<g>
		<g>
			<path class="st1" d="M200.62,82.71c-1.17,1.98-2.54,3.77-3.97,5.49c-1.42,1.73-2.94,3.37-4.51,4.95
				c-1.58,1.58-3.21,3.09-4.94,4.52c-1.72,1.43-3.51,2.8-5.49,3.97c1.17-1.98,2.54-3.77,3.97-5.49c1.42-1.73,2.94-3.37,4.52-4.94
				c1.58-1.57,3.22-3.09,4.95-4.51C196.85,85.25,198.64,83.88,200.62,82.71z"/>
		</g>
		<g>
			<path class="st1" d="M187.69,79.25c1.13,2.01,1.99,4.08,2.76,6.19c0.79,2.1,1.44,4.23,2.03,6.38c0.58,2.15,1.07,4.33,1.44,6.54
				c0.38,2.21,0.67,4.44,0.69,6.74c-1.13-2.01-2-4.08-2.77-6.18c-0.79-2.1-1.44-4.23-2.02-6.38c-0.57-2.16-1.07-4.33-1.44-6.54
				C188.01,83.78,187.72,81.55,187.69,79.25z"/>
		</g>
		<g>
			<path class="st1" d="M178.23,88.71c2.3,0.03,4.53,0.32,6.74,0.7c2.21,0.37,4.39,0.86,6.54,1.44c2.15,0.58,4.29,1.24,6.38,2.02
				c2.1,0.77,4.18,1.64,6.18,2.77c-2.3-0.02-4.53-0.31-6.74-0.69c-2.21-0.37-4.39-0.86-6.54-1.44c-2.15-0.58-4.29-1.24-6.38-2.03
				C182.32,90.7,180.24,89.83,178.23,88.71z"/>
		</g>
	</g>
</g>
<g>
</g>
<g>
</g>
<g>
</g>
<g>
</g>
<g>
</g>
<g>
</g>
<g>
</g>
<g>
</g>
<g>
</g>
<g>
</g>
<g>
</g>
<g>
</g>
<g>
</g>
<g>
</g>
<g>
</g>
</svg>
