<?xml version="1.0" encoding="utf-8"?>
<!-- Generator: Adobe Illustrator 25.3.1, SVG Export Plug-In . SVG Version: 6.00 Build 0)  -->
<svg version="1.1" id="Layer_1" xmlns="http://www.w3.org/2000/svg" xmlns:xlink="http://www.w3.org/1999/xlink" x="0px" y="0px"
	 viewBox="0 0 300 300" style="enable-background:new 0 0 300 300;" xml:space="preserve">
<style type="text/css">
	.st0{opacity:0.05;fill-rule:evenodd;clip-rule:evenodd;fill:#F4E8DC;}
	.st1{fill-rule:evenodd;clip-rule:evenodd;fill:#F4E8DC;}
	.st2{fill-rule:evenodd;clip-rule:evenodd;fill:#C8BBB3;}
	.st3{fill-rule:evenodd;clip-rule:evenodd;fill:#C8BBB3;stroke:#F4E8DC;stroke-width:1.0327;stroke-miterlimit:10;}
	.st4{fill-rule:evenodd;clip-rule:evenodd;fill:#C8BBB3;stroke:#F4E8DC;stroke-width:0.9036;stroke-miterlimit:10;}
</style>
<g>
	<circle class="st0" cx="150" cy="150" r="150"/>
	<circle class="st0" cx="150" cy="150" r="120"/>
	<circle class="st0" cx="150" cy="150" r="95"/>
	<circle class="st0" cx="150" cy="150" r="75"/>
	<g>
		<circle class="st1" cx="150" cy="150" r="60"/>
		<path class="st2" d="M111.85,122.69c0-7.17,0.82-14.16,2.37-20.86C99.52,112.77,90,130.27,90,150c0,33.14,26.86,60,60,60
			c6.12,0,12.03-0.92,17.59-2.62C134.8,193.26,111.85,160.65,111.85,122.69z"/>
		<circle class="st3" cx="118.1" cy="138.9" r="11.04"/>
		<circle class="st4" cx="130.17" cy="184.01" r="6.01"/>
		<circle class="st2" cx="145.87" cy="115.81" r="7.78"/>
		<circle class="st2" cx="200.71" cy="147.39" r="5.59"/>
		<circle class="st2" cx="121.83" cy="108.47" r="3.25"/>
		<circle class="st2" cx="162.14" cy="148.36" r="4.81"/>
		<circle class="st2" cx="179.1" cy="171.25" r="1.56"/>
		<circle class="st2" cx="169.35" cy="184.01" r="1.7"/>
		<circle class="st2" cx="177.09" cy="129.9" r="2.05"/>
		<circle class="st2" cx="155.45" cy="95.25" r="0.92"/>
		<circle class="st2" cx="182.31" cy="108.98" r="0.92"/>
	</g>
</g>
<g>
</g>
<g>
</g>
<g>
</g>
<g>
</g>
<g>
</g>
<g>
</g>
<g>
</g>
<g>
</g>
<g>
</g>
<g>
</g>
<g>
</g>
<g>
</g>
<g>
</g>
<g>
</g>
<g>
</g>
</svg>
