<?xml version="1.0" encoding="utf-8"?>
<!-- Generator: Adobe Illustrator 25.3.1, SVG Export Plug-In . SVG Version: 6.00 Build 0)  -->
<svg version="1.1" id="Layer_1" xmlns="http://www.w3.org/2000/svg" xmlns:xlink="http://www.w3.org/1999/xlink" x="0px" y="0px"
	 viewBox="0 0 225 235" style="enable-background:new 0 0 225 235;" xml:space="preserve">
<style type="text/css">
	.st0{opacity:0.35;fill-rule:evenodd;clip-rule:evenodd;fill:none;stroke:#FFFFFF;stroke-miterlimit:10;}
	.st1{fill:#FFFFFF;}
</style>
<g>
	<polyline class="st0" points="209.13,15.44 205.38,43.3 211.81,180.46 210.74,208.32 175.38,219.57 125.55,228.14 81.08,216.36 
		11.43,217.43 41.43,192.25 83.22,179.39 140.55,144.03 205.38,43.3 	"/>
	<g>
		<g>
			<polygon class="st1" points="216.91,178.8 212.14,181.49 211.48,179.43 			"/>
		</g>
		<g>
			<polygon class="st1" points="212.68,179.83 214.96,184.8 210.94,181.09 			"/>
		</g>
		<g>
			<polygon class="st1" points="208.66,184.8 210.94,179.83 212.68,181.09 			"/>
		</g>
		<g>
			<polygon class="st1" points="206.71,178.8 212.14,179.43 211.48,181.49 			"/>
		</g>
		<g>
			<polygon class="st1" points="211.81,175.1 212.89,180.46 210.73,180.46 			"/>
		</g>
	</g>
	<g>
		<g>
			<polygon class="st1" points="180.48,217.91 175.71,220.6 175.04,218.55 			"/>
		</g>
		<g>
			<polygon class="st1" points="176.25,218.94 178.53,223.91 174.5,220.2 			"/>
		</g>
		<g>
			<polygon class="st1" points="172.22,223.91 174.5,218.94 176.25,220.2 			"/>
		</g>
		<g>
			<polygon class="st1" points="170.28,217.91 175.71,218.55 175.04,220.6 			"/>
		</g>
		<g>
			<polygon class="st1" points="175.38,214.21 176.45,219.57 174.3,219.57 			"/>
		</g>
	</g>
	<g>
		<g>
			<polygon class="st1" points="145.65,142.37 140.88,145.05 140.22,143 			"/>
		</g>
		<g>
			<polygon class="st1" points="141.42,143.39 143.7,148.37 139.68,144.66 			"/>
		</g>
		<g>
			<polygon class="st1" points="137.4,148.37 139.68,143.39 141.42,144.66 			"/>
		</g>
		<g>
			<polygon class="st1" points="135.45,142.37 140.88,143 140.22,145.05 			"/>
		</g>
		<g>
			<polygon class="st1" points="140.55,138.67 141.63,144.03 139.47,144.03 			"/>
		</g>
	</g>
	<g>
		<g>
			<polygon class="st1" points="130.65,226.49 125.88,229.17 125.22,227.12 			"/>
		</g>
		<g>
			<polygon class="st1" points="126.42,227.51 128.7,232.48 124.68,228.78 			"/>
		</g>
		<g>
			<polygon class="st1" points="122.4,232.48 124.68,227.51 126.42,228.78 			"/>
		</g>
		<g>
			<polygon class="st1" points="120.45,226.49 125.88,227.12 125.22,229.17 			"/>
		</g>
		<g>
			<polygon class="st1" points="125.55,222.78 126.63,228.14 124.47,228.14 			"/>
		</g>
	</g>
	<g>
		<g>
			<polygon class="st1" points="88.32,177.73 83.56,180.41 82.89,178.36 			"/>
		</g>
		<g>
			<polygon class="st1" points="84.1,178.75 86.38,183.73 82.35,180.02 			"/>
		</g>
		<g>
			<polygon class="st1" points="80.07,183.73 82.35,178.75 84.1,180.02 			"/>
		</g>
		<g>
			<polygon class="st1" points="78.12,177.73 83.56,178.36 82.89,180.41 			"/>
		</g>
		<g>
			<polygon class="st1" points="83.22,174.03 84.3,179.39 82.15,179.39 			"/>
		</g>
	</g>
	<g>
		<g>
			<polygon class="st1" points="86.18,214.7 81.41,217.38 80.75,215.33 			"/>
		</g>
		<g>
			<polygon class="st1" points="81.95,215.72 84.23,220.69 80.21,216.99 			"/>
		</g>
		<g>
			<polygon class="st1" points="77.93,220.69 80.21,215.72 81.95,216.99 			"/>
		</g>
		<g>
			<polygon class="st1" points="75.98,214.7 81.41,215.33 80.75,217.38 			"/>
		</g>
		<g>
			<polygon class="st1" points="81.08,210.99 82.16,216.36 80,216.36 			"/>
		</g>
	</g>
	<g>
		<g>
			<polygon class="st1" points="46.53,190.59 41.77,193.27 41.1,191.22 			"/>
		</g>
		<g>
			<polygon class="st1" points="42.31,191.61 44.59,196.59 40.56,192.88 			"/>
		</g>
		<g>
			<polygon class="st1" points="38.28,196.59 40.56,191.61 42.31,192.88 			"/>
		</g>
		<g>
			<polygon class="st1" points="36.33,190.59 41.77,191.22 41.1,193.27 			"/>
		</g>
		<g>
			<polygon class="st1" points="41.43,186.88 42.51,192.25 40.36,192.25 			"/>
		</g>
	</g>
	<g>
		<g>
			<polygon class="st1" points="210.48,41.65 205.71,44.33 205.05,42.28 			"/>
		</g>
		<g>
			<polygon class="st1" points="206.25,42.67 208.53,47.64 204.51,43.94 			"/>
		</g>
		<g>
			<polygon class="st1" points="202.23,47.64 204.51,42.67 206.25,43.94 			"/>
		</g>
		<g>
			<polygon class="st1" points="200.28,41.65 205.71,42.28 205.05,44.33 			"/>
		</g>
		<g>
			<polygon class="st1" points="205.38,37.94 206.46,43.3 204.3,43.3 			"/>
		</g>
	</g>
	<g>
		<g>
			<path class="st1" d="M217.19,202.3c-0.78,1.32-1.69,2.51-2.65,3.66c-0.95,1.15-1.97,2.23-3.01,3.3c-1.06,1.04-2.14,2.06-3.3,3.01
				c-1.15,0.96-2.34,1.87-3.66,2.65c0.78-1.32,1.69-2.51,2.65-3.66c0.95-1.15,1.97-2.23,3.01-3.3c1.06-1.04,2.14-2.06,3.3-3.01
				C214.68,204,215.87,203.09,217.19,202.3z"/>
		</g>
		<g>
			<path class="st1" d="M208.57,199.99c0.75,1.34,1.33,2.72,1.84,4.12c0.53,1.4,0.95,2.82,1.35,4.26c0.37,1.44,0.72,2.89,0.96,4.36
				c0.26,1.47,0.45,2.96,0.46,4.49c-0.75-1.34-1.33-2.72-1.85-4.12c-0.53-1.4-0.95-2.82-1.35-4.26c-0.37-1.44-0.71-2.89-0.96-4.36
				C208.78,203.02,208.59,201.53,208.57,199.99z"/>
		</g>
		<g>
			<path class="st1" d="M202.26,206.3c1.53,0.02,3.02,0.21,4.49,0.47c1.47,0.24,2.92,0.59,4.36,0.96c1.43,0.4,2.86,0.82,4.26,1.35
				c1.4,0.51,2.79,1.09,4.12,1.85c-1.54-0.02-3.02-0.21-4.49-0.46c-1.47-0.24-2.92-0.59-4.36-0.96c-1.43-0.4-2.86-0.83-4.26-1.35
				C204.99,207.63,203.6,207.05,202.26,206.3z"/>
		</g>
	</g>
	<g>
		<g>
			<path class="st1" d="M17.84,211.13c-0.78,1.32-1.69,2.51-2.65,3.66c-0.95,1.15-1.97,2.23-3.01,3.3c-1.06,1.04-2.14,2.06-3.3,3.01
				c-1.15,0.96-2.34,1.87-3.66,2.65c0.78-1.32,1.69-2.51,2.65-3.66c0.95-1.15,1.97-2.23,3.01-3.3c1.06-1.04,2.14-2.06,3.3-3.01
				C15.33,212.82,16.52,211.91,17.84,211.13z"/>
		</g>
		<g>
			<path class="st1" d="M9.22,208.82c0.75,1.34,1.33,2.72,1.84,4.12c0.53,1.4,0.95,2.82,1.35,4.26c0.37,1.44,0.72,2.89,0.96,4.36
				c0.26,1.47,0.45,2.96,0.46,4.49c-0.75-1.34-1.33-2.72-1.85-4.12c-0.53-1.4-0.95-2.82-1.35-4.26c-0.37-1.44-0.71-2.89-0.96-4.36
				C9.43,211.84,9.24,210.36,9.22,208.82z"/>
		</g>
		<g>
			<path class="st1" d="M2.91,215.13c1.53,0.02,3.02,0.21,4.49,0.47c1.47,0.24,2.92,0.59,4.36,0.96c1.43,0.4,2.86,0.82,4.26,1.35
				c1.4,0.51,2.79,1.09,4.12,1.85c-1.54-0.02-3.02-0.21-4.49-0.46c-1.47-0.24-2.92-0.59-4.36-0.96c-1.43-0.4-2.86-0.83-4.26-1.35
				C5.64,216.46,4.25,215.88,2.91,215.13z"/>
		</g>
	</g>
	<g>
		<g>
			<path class="st1" d="M218.62,5.98c-1.17,1.98-2.54,3.77-3.97,5.49c-1.42,1.73-2.94,3.37-4.51,4.95
				c-1.58,1.58-3.21,3.09-4.94,4.52c-1.72,1.43-3.51,2.8-5.49,3.97c1.17-1.98,2.54-3.77,3.97-5.49c1.42-1.73,2.94-3.37,4.52-4.94
				c1.58-1.57,3.22-3.09,4.95-4.51C214.86,8.52,216.64,7.16,218.62,5.98z"/>
		</g>
		<g>
			<path class="st1" d="M205.7,2.52c1.13,2.01,1.99,4.08,2.76,6.19c0.79,2.1,1.44,4.23,2.03,6.38c0.58,2.15,1.07,4.33,1.44,6.54
				c0.38,2.21,0.67,4.44,0.69,6.74c-1.13-2.01-2-4.08-2.77-6.18c-0.79-2.1-1.44-4.23-2.02-6.38c-0.57-2.16-1.07-4.33-1.44-6.54
				C206.02,7.05,205.73,4.82,205.7,2.52z"/>
		</g>
		<g>
			<path class="st1" d="M196.24,11.98c2.3,0.03,4.53,0.32,6.74,0.7c2.21,0.37,4.39,0.86,6.54,1.44c2.15,0.58,4.29,1.24,6.38,2.02
				c2.1,0.77,4.18,1.64,6.18,2.77c-2.3-0.02-4.53-0.31-6.74-0.69c-2.21-0.37-4.39-0.86-6.54-1.44c-2.15-0.58-4.29-1.24-6.38-2.03
				C200.32,13.97,198.24,13.11,196.24,11.98z"/>
		</g>
	</g>
</g>
<g>
</g>
<g>
</g>
<g>
</g>
<g>
</g>
<g>
</g>
<g>
</g>
<g>
</g>
<g>
</g>
<g>
</g>
<g>
</g>
<g>
</g>
<g>
</g>
<g>
</g>
<g>
</g>
<g>
</g>
</svg>
