<?xml version="1.0" encoding="utf-8"?>
<!-- Generator: Adobe Illustrator 25.3.1, SVG Export Plug-In . SVG Version: 6.00 Build 0)  -->
<svg version="1.1" id="Layer_1" xmlns="http://www.w3.org/2000/svg" xmlns:xlink="http://www.w3.org/1999/xlink" x="0px" y="0px"
	 viewBox="0 0 48 48" style="enable-background:new 0 0 48 48;" xml:space="preserve">
<style type="text/css">
	.st0{fill:#DECF90;}
	.st1{fill:#F4F2C0;}
</style>
<g>
	<g>
		<path class="st0" d="M45.12,12.56l-1.66,0.96v0c0.33,0.61,0.63,1.24,0.9,1.88c1.07,2.52,1.65,5.19,1.73,7.94H48
			C47.9,19.45,46.86,15.78,45.12,12.56z"/>
		<path class="st0" d="M23.35,46.08V48c-3.9-0.1-7.56-1.14-10.78-2.88l0.96-1.66c0.61,0.33,1.24,0.63,1.88,0.9
			C17.93,45.42,20.59,46,23.35,46.08z"/>
		<path class="st0" d="M12.39,42.8l-0.96,1.66c-3.21-1.97-5.92-4.68-7.89-7.89l1.66-0.96c0.89,1.45,1.96,2.79,3.18,4.01
			C9.6,40.84,10.94,41.9,12.39,42.8z"/>
		<path class="st0" d="M4.55,34.47l-1.66,0.96C1.14,32.22,0.1,28.55,0,24.65h1.92C2,27.41,2.58,30.07,3.65,32.6
			C3.92,33.24,4.22,33.87,4.55,34.47z"/>
		<path class="st0" d="M4.55,13.52L4.55,13.52c-0.33,0.61-0.63,1.24-0.9,1.88C2.58,17.92,2,20.59,1.92,23.35H0
			c0.1-3.9,1.14-7.56,2.88-10.78L4.55,13.52z"/>
		<path class="st0" d="M12.39,5.2C10.94,6.1,9.6,7.16,8.38,8.38C7.16,9.6,6.1,10.94,5.2,12.39l-1.66-0.96
			c1.97-3.21,4.68-5.92,7.89-7.89L12.39,5.2z"/>
		<path class="st0" d="M23.35,0v1.92C20.59,2,17.93,2.58,15.4,3.65c-0.64,0.27-1.27,0.57-1.88,0.9l-0.96-1.66
			C15.78,1.14,19.45,0.1,23.35,0z"/>
		<path class="st0" d="M35.44,2.88l-0.96,1.66h0c-0.61-0.33-1.24-0.63-1.88-0.9C30.08,2.58,27.41,2,24.65,1.92V0
			C28.55,0.1,32.22,1.14,35.44,2.88z"/>
		<path class="st0" d="M44.46,11.43l-1.66,0.96c-0.89-1.45-1.96-2.79-3.18-4.01C38.4,7.16,37.06,6.1,35.61,5.2l0.96-1.66
			C39.78,5.52,42.48,8.22,44.46,11.43z"/>
		<path class="st0" d="M48,24.65c-0.1,3.9-1.14,7.56-2.88,10.78l-1.66-0.96c0.33-0.61,0.63-1.24,0.9-1.88
			c1.07-2.52,1.65-5.19,1.73-7.94H48z"/>
		<path class="st0" d="M44.46,36.57c-1.97,3.21-4.68,5.92-7.89,7.89l-0.96-1.66c1.45-0.9,2.79-1.96,4.01-3.18
			c1.22-1.22,2.28-2.56,3.18-4.01L44.46,36.57z"/>
		<path class="st0" d="M35.44,45.12c-3.22,1.75-6.88,2.78-10.78,2.88v-1.92c2.75-0.08,5.42-0.66,7.94-1.73
			c0.64-0.27,1.27-0.57,1.88-0.9L35.44,45.12z"/>
	</g>
	<g>
		<path class="st1" d="M24,36.5c-4.32,0-10.34-6.58-10.34-13.07v-7.52c0-0.28,0.22-0.5,0.5-0.5c3.15,0,8.99-2.62,9.34-3.44
			c0-0.02,0-0.04,0.01-0.06c0.02-0.25,0.23-0.43,0.5-0.43c0.27,0,0.48,0.23,0.5,0.49c0.35,0.82,6.19,3.44,9.34,3.44
			c0.28,0,0.5,0.22,0.5,0.5v7.52C34.34,29.92,28.32,36.5,24,36.5z M14.66,16.39v7.04c0,6.1,5.91,12.07,9.34,12.07
			s9.34-5.96,9.34-12.07v-7.04c-2.66-0.22-7.73-2-9.34-3.53C22.39,14.38,17.32,16.17,14.66,16.39z"/>
		<path class="st1" d="M22.74,26.95c-0.13,0-0.26-0.05-0.35-0.15l-2.47-2.47l0.71-0.71l2.12,2.12l4.69-4.69l0.71,0.71l-5.04,5.04
			C22.99,26.91,22.86,26.95,22.74,26.95z"/>
	</g>
</g>
<g>
</g>
<g>
</g>
<g>
</g>
<g>
</g>
<g>
</g>
<g>
</g>
<g>
</g>
<g>
</g>
<g>
</g>
<g>
</g>
<g>
</g>
<g>
</g>
<g>
</g>
<g>
</g>
<g>
</g>
</svg>
