<?xml version="1.0" encoding="utf-8"?>
<!-- Generator: Adobe Illustrator 25.3.1, SVG Export Plug-In . SVG Version: 6.00 Build 0)  -->
<svg version="1.1" id="Layer_1" xmlns="http://www.w3.org/2000/svg" xmlns:xlink="http://www.w3.org/1999/xlink" x="0px" y="0px"
	 viewBox="0 0 48 48" style="enable-background:new 0 0 48 48;" xml:space="preserve">
<style type="text/css">
	.st0{fill:#DECF90;}
	.st1{fill:#F4F2C0;}
</style>
<g>
	<g>
		<path class="st0" d="M45.12,12.56l-1.66,0.96v0c0.33,0.61,0.63,1.24,0.9,1.88c1.07,2.52,1.65,5.19,1.73,7.94H48
			C47.9,19.45,46.86,15.78,45.12,12.56z"/>
		<path class="st0" d="M23.35,46.08V48c-3.9-0.1-7.56-1.14-10.78-2.88l0.96-1.66c0.61,0.33,1.24,0.63,1.88,0.9
			C17.93,45.42,20.59,46,23.35,46.08z"/>
		<path class="st0" d="M12.39,42.8l-0.96,1.66c-3.21-1.97-5.92-4.68-7.89-7.89l1.66-0.96c0.89,1.45,1.96,2.79,3.18,4.01
			C9.6,40.84,10.94,41.9,12.39,42.8z"/>
		<path class="st0" d="M4.55,34.47l-1.66,0.96C1.14,32.22,0.1,28.55,0,24.65h1.92C2,27.41,2.58,30.07,3.65,32.6
			C3.92,33.24,4.22,33.87,4.55,34.47z"/>
		<path class="st0" d="M4.55,13.52L4.55,13.52c-0.33,0.61-0.63,1.24-0.9,1.88C2.58,17.92,2,20.59,1.92,23.35H0
			c0.1-3.9,1.14-7.56,2.88-10.78L4.55,13.52z"/>
		<path class="st0" d="M12.39,5.2C10.94,6.1,9.6,7.16,8.38,8.38C7.16,9.6,6.1,10.94,5.2,12.39l-1.66-0.96
			c1.97-3.21,4.68-5.92,7.89-7.89L12.39,5.2z"/>
		<path class="st0" d="M23.35,0v1.92C20.59,2,17.93,2.58,15.4,3.65c-0.64,0.27-1.27,0.57-1.88,0.9l-0.96-1.66
			C15.78,1.14,19.45,0.1,23.35,0z"/>
		<path class="st0" d="M35.44,2.88l-0.96,1.66h0c-0.61-0.33-1.24-0.63-1.88-0.9C30.08,2.58,27.41,2,24.65,1.92V0
			C28.55,0.1,32.22,1.14,35.44,2.88z"/>
		<path class="st0" d="M44.46,11.43l-1.66,0.96c-0.89-1.45-1.96-2.79-3.18-4.01C38.4,7.16,37.06,6.1,35.61,5.2l0.96-1.66
			C39.78,5.52,42.48,8.22,44.46,11.43z"/>
		<path class="st0" d="M48,24.65c-0.1,3.9-1.14,7.56-2.88,10.78l-1.66-0.96c0.33-0.61,0.63-1.24,0.9-1.88
			c1.07-2.52,1.65-5.19,1.73-7.94H48z"/>
		<path class="st0" d="M44.46,36.57c-1.97,3.21-4.68,5.92-7.89,7.89l-0.96-1.66c1.45-0.9,2.79-1.96,4.01-3.18
			c1.22-1.22,2.28-2.56,3.18-4.01L44.46,36.57z"/>
		<path class="st0" d="M35.44,45.12c-3.22,1.75-6.88,2.78-10.78,2.88v-1.92c2.75-0.08,5.42-0.66,7.94-1.73
			c0.64-0.27,1.27-0.57,1.88-0.9L35.44,45.12z"/>
	</g>
	<g>
		<path class="st1" d="M16.52,24.26l7.23,4.27c0.08,0.05,0.17,0.07,0.25,0.07s0.18-0.02,0.25-0.07l7.23-4.27
			c0.12-0.07,0.2-0.18,0.23-0.31s0.01-0.27-0.06-0.38l-7.23-11.83c-0.18-0.3-0.67-0.3-0.85,0l-7.23,11.83
			c-0.07,0.11-0.09,0.25-0.06,0.38S16.4,24.19,16.52,24.26z M23.5,27.22l-5.64-3.33l5.64-2.54V27.22z M24.5,21.35l5.64,2.54
			l-5.64,3.33V21.35z M24.5,20.25v-6.47l5.46,8.93L24.5,20.25z M23.5,20.25l-5.46,2.46l5.46-8.93V20.25z"/>
		<path class="st1" d="M31.6,25.76c-0.16-0.18-0.42-0.21-0.62-0.1L24,29.72l-6.98-4.06c-0.2-0.12-0.46-0.08-0.62,0.1
			c-0.16,0.18-0.17,0.44-0.03,0.63l7.23,9.91c0.09,0.13,0.24,0.21,0.4,0.21s0.31-0.08,0.4-0.21l7.23-9.91
			C31.77,26.2,31.76,25.93,31.6,25.76z M23.5,30.58v3.88l-4.92-6.74L23.5,30.58z M24.5,34.47v-3.88l4.92-2.86L24.5,34.47z"/>
	</g>
</g>
<g>
</g>
<g>
</g>
<g>
</g>
<g>
</g>
<g>
</g>
<g>
</g>
<g>
</g>
<g>
</g>
<g>
</g>
<g>
</g>
<g>
</g>
<g>
</g>
<g>
</g>
<g>
</g>
<g>
</g>
</svg>
