<?xml version="1.0" encoding="utf-8"?>
<!-- Generator: Adobe Illustrator 25.3.1, SVG Export Plug-In . SVG Version: 6.00 Build 0)  -->
<svg version="1.1" id="Layer_1" xmlns="http://www.w3.org/2000/svg" xmlns:xlink="http://www.w3.org/1999/xlink" x="0px" y="0px"
	 viewBox="0 0 48 48" style="enable-background:new 0 0 48 48;" xml:space="preserve">
<style type="text/css">
	.st0{fill:#DECF90;}
	.st1{fill:#F4F2C0;}
</style>
<g>
	<g>
		<path class="st0" d="M45.12,12.56l-1.66,0.96v0c0.33,0.61,0.63,1.24,0.9,1.88c1.07,2.52,1.65,5.19,1.73,7.94H48
			C47.9,19.45,46.86,15.78,45.12,12.56z"/>
		<path class="st0" d="M23.35,46.08V48c-3.9-0.1-7.56-1.14-10.78-2.88l0.96-1.66c0.61,0.33,1.24,0.63,1.88,0.9
			C17.93,45.42,20.59,46,23.35,46.08z"/>
		<path class="st0" d="M12.39,42.8l-0.96,1.66c-3.21-1.97-5.92-4.68-7.89-7.89l1.66-0.96c0.89,1.45,1.96,2.79,3.18,4.01
			C9.6,40.84,10.94,41.9,12.39,42.8z"/>
		<path class="st0" d="M4.55,34.47l-1.66,0.96C1.14,32.22,0.1,28.55,0,24.65h1.92C2,27.41,2.58,30.07,3.65,32.6
			C3.92,33.24,4.22,33.87,4.55,34.47z"/>
		<path class="st0" d="M4.55,13.52L4.55,13.52c-0.33,0.61-0.63,1.24-0.9,1.88C2.58,17.92,2,20.59,1.92,23.35H0
			c0.1-3.9,1.14-7.56,2.88-10.78L4.55,13.52z"/>
		<path class="st0" d="M12.39,5.2C10.94,6.1,9.6,7.16,8.38,8.38C7.16,9.6,6.1,10.94,5.2,12.39l-1.66-0.96
			c1.97-3.21,4.68-5.92,7.89-7.89L12.39,5.2z"/>
		<path class="st0" d="M23.35,0v1.92C20.59,2,17.93,2.58,15.4,3.65c-0.64,0.27-1.27,0.57-1.88,0.9l-0.96-1.66
			C15.78,1.14,19.45,0.1,23.35,0z"/>
		<path class="st0" d="M35.44,2.88l-0.96,1.66h0c-0.61-0.33-1.24-0.63-1.88-0.9C30.08,2.58,27.41,2,24.65,1.92V0
			C28.55,0.1,32.22,1.14,35.44,2.88z"/>
		<path class="st0" d="M44.46,11.43l-1.66,0.96c-0.89-1.45-1.96-2.79-3.18-4.01C38.4,7.16,37.06,6.1,35.61,5.2l0.96-1.66
			C39.78,5.52,42.48,8.22,44.46,11.43z"/>
		<path class="st0" d="M48,24.65c-0.1,3.9-1.14,7.56-2.88,10.78l-1.66-0.96c0.33-0.61,0.63-1.24,0.9-1.88
			c1.07-2.52,1.65-5.19,1.73-7.94H48z"/>
		<path class="st0" d="M44.46,36.57c-1.97,3.21-4.68,5.92-7.89,7.89l-0.96-1.66c1.45-0.9,2.79-1.96,4.01-3.18
			c1.22-1.22,2.28-2.56,3.18-4.01L44.46,36.57z"/>
		<path class="st0" d="M35.44,45.12c-3.22,1.75-6.88,2.78-10.78,2.88v-1.92c2.75-0.08,5.42-0.66,7.94-1.73
			c0.64-0.27,1.27-0.57,1.88-0.9L35.44,45.12z"/>
	</g>
	<g>
		<path class="st1" d="M9.07,28.81l0.01-0.14h0.29c0.21,0,0.39-0.07,0.54-0.22c0.15-0.15,0.22-0.32,0.22-0.52v-7.19
			c0-0.25-0.06-0.43-0.18-0.55c-0.12-0.12-0.29-0.18-0.51-0.18H8.98v-0.14c0.18-0.03,0.38-0.06,0.58-0.1c0.2-0.04,0.4-0.09,0.6-0.14
			c0.2-0.06,0.4-0.14,0.58-0.25c0.19-0.11,0.36-0.24,0.52-0.39h0.14v8.95c0,0.2,0.08,0.37,0.23,0.52c0.15,0.14,0.33,0.21,0.53,0.21
			h0.29v0.14H9.07z"/>
		<path class="st1" d="M17.4,18.99c0.72,0,1.33,0.2,1.84,0.61c0.51,0.41,0.9,0.99,1.18,1.73c0.28,0.75,0.42,1.63,0.42,2.66
			c0,1.03-0.14,1.91-0.42,2.66c-0.28,0.75-0.67,1.32-1.18,1.73c-0.51,0.41-1.12,0.61-1.84,0.61c-0.71,0-1.33-0.2-1.84-0.61
			c-0.51-0.41-0.91-0.99-1.19-1.73c-0.28-0.75-0.42-1.63-0.42-2.66c0-1.03,0.14-1.91,0.42-2.66c0.28-0.75,0.68-1.32,1.19-1.73
			C16.08,19.2,16.69,18.99,17.4,18.99z M17.4,19.46c-0.66,0-1.17,0.4-1.54,1.2c-0.37,0.8-0.55,1.91-0.55,3.34
			c0,1.43,0.18,2.54,0.55,3.34c0.37,0.8,0.88,1.2,1.54,1.2c0.65,0,1.16-0.4,1.53-1.2c0.37-0.8,0.55-1.91,0.55-3.34
			c0-1.43-0.18-2.54-0.55-3.34C18.56,19.86,18.06,19.46,17.4,19.46z"/>
		<path class="st1" d="M25.74,18.99c0.72,0,1.33,0.2,1.84,0.61c0.51,0.41,0.9,0.99,1.18,1.73c0.28,0.75,0.42,1.63,0.42,2.66
			c0,1.03-0.14,1.91-0.42,2.66c-0.28,0.75-0.67,1.32-1.18,1.73c-0.51,0.41-1.12,0.61-1.84,0.61c-0.71,0-1.33-0.2-1.84-0.61
			s-0.91-0.99-1.19-1.73c-0.28-0.75-0.42-1.63-0.42-2.66c0-1.03,0.14-1.91,0.42-2.66c0.28-0.75,0.68-1.32,1.19-1.73
			S25.02,18.99,25.74,18.99z M25.74,19.46c-0.66,0-1.17,0.4-1.54,1.2c-0.37,0.8-0.55,1.91-0.55,3.34c0,1.43,0.18,2.54,0.55,3.34
			c0.37,0.8,0.88,1.2,1.54,1.2c0.65,0,1.16-0.4,1.53-1.2c0.37-0.8,0.55-1.91,0.55-3.34c0-1.43-0.18-2.54-0.55-3.34
			C26.9,19.86,26.39,19.46,25.74,19.46z"/>
		<path class="st1" d="M32.96,18.99c0.59,0,1.02,0.22,1.31,0.65c0.29,0.43,0.37,1.03,0.25,1.79c-0.12,0.75-0.4,1.34-0.84,1.77
			c-0.44,0.43-0.97,0.65-1.6,0.65c-0.59,0-1.02-0.22-1.31-0.65c-0.28-0.44-0.36-1.03-0.23-1.79c0.12-0.75,0.4-1.34,0.85-1.77
			C31.84,19.21,32.36,18.99,32.96,18.99z M32.9,19.32c-0.32,0-0.61,0.19-0.85,0.56c-0.25,0.38-0.43,0.89-0.54,1.54
			c-0.11,0.65-0.11,1.16,0.01,1.53c0.12,0.37,0.34,0.56,0.66,0.56c0.33,0,0.62-0.19,0.87-0.56c0.25-0.37,0.43-0.88,0.54-1.53
			c0.11-0.65,0.1-1.16-0.02-1.54C33.44,19.51,33.22,19.32,32.9,19.32z M32.38,28.99l-0.4-0.18l4.87-9.23
			c-0.24,0.12-0.49,0.23-0.76,0.34c-0.27,0.11-0.57,0.15-0.89,0.12c-0.28-0.03-0.55-0.11-0.79-0.23c-0.24-0.13-0.48-0.25-0.71-0.36
			c-0.23-0.12-0.48-0.16-0.75-0.14l-0.03-0.32c0.28,0,0.52,0.03,0.72,0.1c0.2,0.07,0.38,0.15,0.54,0.25
			c0.16,0.1,0.32,0.18,0.49,0.26c0.16,0.08,0.35,0.13,0.55,0.14c0.27,0.02,0.52-0.02,0.76-0.1c0.24-0.09,0.46-0.19,0.66-0.31
			c0.2-0.12,0.38-0.21,0.52-0.27l0.36,0.15L32.38,28.99z M37.41,24.15c0.58,0,1.01,0.22,1.3,0.65c0.29,0.43,0.38,1.03,0.27,1.79
			c-0.12,0.75-0.4,1.34-0.85,1.77c-0.44,0.43-0.97,0.65-1.59,0.65c-0.59,0-1.02-0.22-1.31-0.65c-0.29-0.44-0.37-1.03-0.24-1.79
			c0.13-0.75,0.41-1.34,0.85-1.77C36.28,24.36,36.81,24.15,37.41,24.15z M37.34,24.48c-0.33,0-0.62,0.19-0.87,0.56
			c-0.25,0.38-0.43,0.89-0.54,1.54c-0.11,0.65-0.11,1.16,0.01,1.53c0.12,0.37,0.34,0.56,0.66,0.56c0.33,0,0.62-0.19,0.87-0.56
			c0.25-0.37,0.43-0.88,0.54-1.53c0.11-0.65,0.11-1.16-0.01-1.54C37.88,24.67,37.66,24.48,37.34,24.48z"/>
	</g>
</g>
<g>
</g>
<g>
</g>
<g>
</g>
<g>
</g>
<g>
</g>
<g>
</g>
<g>
</g>
<g>
</g>
<g>
</g>
<g>
</g>
<g>
</g>
<g>
</g>
<g>
</g>
<g>
</g>
<g>
</g>
</svg>
