<?xml version="1.0" encoding="utf-8"?>
<!-- Generator: Adobe Illustrator 25.3.1, SVG Export Plug-In . SVG Version: 6.00 Build 0)  -->
<svg version="1.1" id="Layer_1" xmlns="http://www.w3.org/2000/svg" xmlns:xlink="http://www.w3.org/1999/xlink" x="0px" y="0px"
	 viewBox="0 0 48 48" style="enable-background:new 0 0 48 48;" xml:space="preserve">
<style type="text/css">
	.st0{fill:#DECF90;}
	.st1{fill:#F4F2C0;}
</style>
<g>
	<g>
		<path class="st0" d="M45.12,12.56l-1.66,0.96v0c0.33,0.61,0.63,1.24,0.9,1.88c1.07,2.52,1.65,5.19,1.73,7.94H48
			C47.9,19.45,46.86,15.78,45.12,12.56z"/>
		<path class="st0" d="M23.35,46.08V48c-3.9-0.1-7.56-1.14-10.78-2.88l0.96-1.66c0.61,0.33,1.24,0.63,1.88,0.9
			C17.93,45.42,20.59,46,23.35,46.08z"/>
		<path class="st0" d="M12.39,42.8l-0.96,1.66c-3.21-1.97-5.92-4.68-7.89-7.89l1.66-0.96c0.89,1.45,1.96,2.79,3.18,4.01
			C9.6,40.84,10.94,41.9,12.39,42.8z"/>
		<path class="st0" d="M4.55,34.47l-1.66,0.96C1.14,32.22,0.1,28.55,0,24.65h1.92C2,27.41,2.58,30.07,3.65,32.6
			C3.92,33.24,4.22,33.87,4.55,34.47z"/>
		<path class="st0" d="M4.55,13.52L4.55,13.52c-0.33,0.61-0.63,1.24-0.9,1.88C2.58,17.92,2,20.59,1.92,23.35H0
			c0.1-3.9,1.14-7.56,2.88-10.78L4.55,13.52z"/>
		<path class="st0" d="M12.39,5.2C10.94,6.1,9.6,7.16,8.38,8.38C7.16,9.6,6.1,10.94,5.2,12.39l-1.66-0.96
			c1.97-3.21,4.68-5.92,7.89-7.89L12.39,5.2z"/>
		<path class="st0" d="M23.35,0v1.92C20.59,2,17.93,2.58,15.4,3.65c-0.64,0.27-1.27,0.57-1.88,0.9l-0.96-1.66
			C15.78,1.14,19.45,0.1,23.35,0z"/>
		<path class="st0" d="M35.44,2.88l-0.96,1.66h0c-0.61-0.33-1.24-0.63-1.88-0.9C30.08,2.58,27.41,2,24.65,1.92V0
			C28.55,0.1,32.22,1.14,35.44,2.88z"/>
		<path class="st0" d="M44.46,11.43l-1.66,0.96c-0.89-1.45-1.96-2.79-3.18-4.01C38.4,7.16,37.06,6.1,35.61,5.2l0.96-1.66
			C39.78,5.52,42.48,8.22,44.46,11.43z"/>
		<path class="st0" d="M48,24.65c-0.1,3.9-1.14,7.56-2.88,10.78l-1.66-0.96c0.33-0.61,0.63-1.24,0.9-1.88
			c1.07-2.52,1.65-5.19,1.73-7.94H48z"/>
		<path class="st0" d="M44.46,36.57c-1.97,3.21-4.68,5.92-7.89,7.89l-0.96-1.66c1.45-0.9,2.79-1.96,4.01-3.18
			c1.22-1.22,2.28-2.56,3.18-4.01L44.46,36.57z"/>
		<path class="st0" d="M35.44,45.12c-3.22,1.75-6.88,2.78-10.78,2.88v-1.92c2.75-0.08,5.42-0.66,7.94-1.73
			c0.64-0.27,1.27-0.57,1.88-0.9L35.44,45.12z"/>
	</g>
	<path class="st1" d="M37.47,14.45c-0.06-0.18-0.23-0.3-0.41-0.33c-4.93-0.55-9.34,0.97-11.83,2.58c-3.15,2.04-4.41,4.83-4.57,6.88
		c0,0,0-0.01,0-0.01c-0.37-1.46-1.66-3.52-3.11-4.3c-1.56-0.84-3.6-3.16-3.62-3.18c-0.12-0.14-0.31-0.2-0.48-0.16
		c-0.18,0.04-0.32,0.17-0.37,0.34c-1.1,3.68-0.47,7.67,0.65,9.98c0.74,1.53,2.24,2.78,3.66,3.04c0.19,0.03,0.38,0.05,0.56,0.05
		c0.5,0,0.97-0.13,1.38-0.39c0.49,0.39,0.99,0.68,1.46,0.83c-0.53,2.24-0.8,4.81-0.8,7.73h1c0-4.01,0.52-7.34,1.53-9.99
		c0.68,0.38,1.41,0.58,2.18,0.58c1.35,0,2.84-0.58,4.45-1.74c2.32-1.66,3.81-2.88,5.26-6.71c0.97-2.55,2.94-4.66,2.96-4.68
		C37.49,14.82,37.53,14.62,37.47,14.45z M17.55,28.29c-1.1-0.2-2.34-1.25-2.94-2.48c-0.91-1.9-1.5-5.23-0.81-8.39
		c0.77,0.8,2.1,2.09,3.27,2.72c1.17,0.63,2.3,2.41,2.61,3.67c0.15,0.61,0.52,2.55-0.4,3.78c-1.21-1.16-2.35-2.79-2.47-3.55
		l-0.99,0.15c0.14,0.91,1.3,2.71,2.67,4.04C18.21,28.32,17.9,28.36,17.55,28.29z M20.04,28.23c0.62-0.8,0.83-1.78,0.85-2.67
		c0.17,0.52,0.45,0.96,0.8,1.32c-0.24,0.61-0.46,1.25-0.66,1.93C20.73,28.7,20.39,28.5,20.04,28.23z M33.47,19.29
		c-1.35,3.58-2.68,4.66-4.91,6.25c-2.27,1.63-4.12,1.96-5.66,1.03c0.91-1.98,2.13-3.52,3.68-4.6L26,21.15
		c-1.62,1.14-2.91,2.72-3.88,4.73c-0.34-0.5-0.52-1.2-0.49-2.01c0.06-1.81,1.18-4.42,4.14-6.34c2.01-1.3,5.35-2.53,9.2-2.53
		c0.34,0,0.67,0.01,1.02,0.03C35.28,15.91,34.15,17.48,33.47,19.29z"/>
</g>
<g>
</g>
<g>
</g>
<g>
</g>
<g>
</g>
<g>
</g>
<g>
</g>
<g>
</g>
<g>
</g>
<g>
</g>
<g>
</g>
<g>
</g>
<g>
</g>
<g>
</g>
<g>
</g>
<g>
</g>
</svg>
