<svg xmlns="http://www.w3.org/2000/svg" width="80" height="80" viewBox="0 0 80 80">
  <g id="Group_14" data-name="Group 14" transform="translate(-338.96 -123.459)">
    <path id="Path_13" data-name="Path 13" d="M404.862,155.982a7.44,7.44,0,0,0-5.322,2.266,35.729,35.729,0,0,0-19.266-6.03l3.891-17.795,12.392,2.823a5.56,5.56,0,0,0,5.505,5.591,5.662,5.662,0,1,0-4.958-8.186l-13.686-3.078a1.31,1.31,0,0,0-1.547,1.014L377.6,152.2a36.174,36.174,0,0,0-19.153,6.1,7.424,7.424,0,0,0-5.4-2.325c-7.811,0-10.369,10.636-3.216,14.272a16.179,16.179,0,0,0-.367,3.522c0,11.947,13.264,21.628,29.55,21.628,16.356,0,29.619-9.681,29.619-21.628a13.869,13.869,0,0,0-.433-3.581c7.008-3.65,4.428-14.208-3.342-14.213Zm-43.677,15.027a5.543,5.543,0,1,1,5.578,5.592,5.6,5.6,0,0,1-5.578-5.592Zm30.108,13.328c-5.114,5.189-19.544,5.189-24.661,0a1.347,1.347,0,0,1,1.856-1.953c3.9,4.064,16.861,4.134,20.936,0a1.352,1.352,0,0,1,1.869,1.953Zm-.114-7.725a5.624,5.624,0,1,1,5.578-5.586A5.555,5.555,0,0,1,391.179,176.612Z" fill="#c6d8e6"/>
    <rect id="Rectangle_10" data-name="Rectangle 10" width="80" height="80" transform="translate(338.96 123.459)" fill="none"/>
  </g>
</svg>
