<svg xmlns="http://www.w3.org/2000/svg" width="80" height="80" viewBox="0 0 80 80">
  <g id="Group_16" data-name="Group 16" transform="translate(-11.706 -123.421)">
    <rect id="Rectangle_12" data-name="Rectangle 12" width="80" height="80" transform="translate(11.706 123.421)" fill="none"/>
    <g id="Group_15" data-name="Group 15">
      <path id="Path_14" data-name="Path 14" d="M19.55,162.231l15.362,5.733,5.946,19.122a1.808,1.808,0,0,0,2.872.865l8.562-6.981a2.555,2.555,0,0,1,3.114-.087L70.85,192.1A1.811,1.811,0,0,0,73.687,191L85,136.581a1.811,1.811,0,0,0-2.424-2.058L19.532,158.844A1.812,1.812,0,0,0,19.55,162.231ZM39.9,164.912l30.022-18.49a.523.523,0,0,1,.631.828L45.776,170.281a5.137,5.137,0,0,0-1.592,3.073l-.844,6.255a.776.776,0,0,1-1.515.11l-3.246-11.406A3.024,3.024,0,0,1,39.9,164.912Z" fill="#c6d8e6"/>
    </g>
  </g>
</svg>
