<svg xmlns="http://www.w3.org/2000/svg" width="80" height="80" viewBox="0 0 80 80">
  <g id="Group_13" data-name="Group 13" transform="translate(-250.439 -126.887)">
    <path id="Path_12" data-name="Path 12" d="M323.772,146.216a28.512,28.512,0,0,1-7.875,2.158,13.586,13.586,0,0,0,6.012-7.554,27.286,27.286,0,0,1-8.666,3.308,13.667,13.667,0,0,0-23.642,9.346,14.074,14.074,0,0,0,.317,3.117,38.683,38.683,0,0,1-28.171-14.3,13.671,13.671,0,0,0,4.2,18.267,13.491,13.491,0,0,1-6.175-1.684v.15a13.73,13.73,0,0,0,10.95,13.43,13.65,13.65,0,0,1-3.583.45,12.045,12.045,0,0,1-2.588-.234,13.8,13.8,0,0,0,12.771,9.521,27.458,27.458,0,0,1-16.946,5.829,25.693,25.693,0,0,1-3.271-.187,38.478,38.478,0,0,0,20.967,6.133c25.15,0,38.9-20.833,38.9-38.892,0-.6-.021-1.187-.05-1.766A27.264,27.264,0,0,0,323.772,146.216Z" fill="#c6d8e6"/>
    <rect id="Rectangle_9" data-name="Rectangle 9" width="80" height="80" transform="translate(250.439 126.887)" fill="none"/>
  </g>
</svg>
