<?xml version="1.0" encoding="utf-8"?>
<!-- Generator: Adobe Illustrator 25.3.1, SVG Export Plug-In . SVG Version: 6.00 Build 0)  -->
<svg version="1.1" id="Layer_1" xmlns="http://www.w3.org/2000/svg" xmlns:xlink="http://www.w3.org/1999/xlink" x="0px" y="0px"
	 viewBox="0 0 600 600" style="enable-background:new 0 0 600 600;" xml:space="preserve">
<style type="text/css">
	.st0{fill:#F2C9AE;}
	.st1{fill:#F1BABD;}
	.st2{fill:#E7BACA;}
	.st3{fill:#E6C2E7;}
	.st4{fill:#D0C4DE;}
	.st5{fill:#C8C3D4;}
	.st6{fill:#B8CFE4;}
	.st7{fill:#B9D8E5;}
	.st8{fill:#ABDFD4;}
	.st9{fill:#BDD9BA;}
	.st10{fill:#F2E2B7;}
	.st11{fill:#FCD5B8;}
	.st12{fill:#D8A927;}
	.st13{fill:#398D30;}
	.st14{fill:#029E7E;}
	.st15{fill:#2D8AB2;}
	.st16{fill:#2B6FAD;}
	.st17{fill:#5A4C7F;}
	.st18{fill:#734E9B;}
	.st19{fill:#B449B7;}
	.st20{fill:#B73061;}
	.st21{fill:#D52F38;}
	.st22{fill:#D85E0B;}
	.st23{fill:#F7812B;}
	.st24{fill:#FAAB72;}
	.st25{fill:#E5C66F;}
	.st26{fill:#7BB375;}
	.st27{fill:#56BEA9;}
	.st28{fill:#73B1CC;}
	.st29{fill:#729FC8;}
	.st30{fill:#9188AA;}
	.st31{fill:#A289BC;}
	.st32{fill:#CD86CF;}
	.st33{fill:#CF7596;}
	.st34{fill:#E3747A;}
	.st35{fill:#E5945C;}
	.st36{fill:#FFFFFF;}
</style>
<g>
	<g>
		<path class="st0" d="M473.16,200.02L300,300l99.98-173.18C430.3,144.4,455.6,169.7,473.16,200.02z"/>
		<path class="st1" d="M399.98,126.82L300,300V100C336.4,100,370.54,109.76,399.98,126.82z"/>
		<path class="st2" d="M300,100v200l-99.98-173.18C229.46,109.76,263.6,100,300,100z"/>
		<path class="st3" d="M300,300l-173.16-99.98c17.56-30.32,42.86-55.62,73.18-73.2L300,300z"/>
		<path class="st4" d="M300,300H100c0-36.4,9.78-70.54,26.84-99.98L300,300z"/>
		<path class="st5" d="M300,300l-173.16,99.98C109.78,370.54,100,336.4,100,300H300z"/>
		<path class="st6" d="M300,300l-99.98,173.16c-30.32-17.56-55.62-42.86-73.18-73.18L300,300z"/>
		<path class="st7" d="M300,300v200c-36.4,0-70.54-9.76-99.98-26.84L300,300z"/>
		<path class="st8" d="M399.98,473.16C370.54,490.24,336.4,500,300,500V300L399.98,473.16z"/>
		<path class="st9" d="M473.16,399.98c-17.56,30.32-42.86,55.62-73.18,73.18L300,300L473.16,399.98z"/>
		<path class="st10" d="M500,300c0,36.4-9.78,70.54-26.84,99.98L300,300H500z"/>
		<path class="st11" d="M500,300H300l173.16-99.98C490.22,229.46,500,263.6,500,300z"/>
		<path class="st12" d="M588,300c0,51.4-13.38,100.72-38.52,144.04l-76.32-44.06C490.22,370.54,500,336.4,500,300H588z"/>
		<path class="st13" d="M549.48,444.04c-12.42,21.52-27.78,41.54-45.84,59.6c-18.04,18.04-38.08,33.42-59.58,45.86l-44.08-76.34
			c30.32-17.56,55.62-42.86,73.18-73.18L549.48,444.04z"/>
		<path class="st14" d="M444.06,549.5C400.76,574.62,351.4,588,300,588v-88c36.4,0,70.54-9.76,99.98-26.84L444.06,549.5z"/>
		<path class="st15" d="M300,500v88c-51.4,0-100.76-13.38-144.06-38.5l44.08-76.34C229.46,490.24,263.6,500,300,500z"/>
		<path class="st16" d="M200.02,473.16l-44.08,76.34c-21.5-12.44-41.54-27.82-59.58-45.86c-18.06-18.06-33.42-38.08-45.84-59.6
			l76.32-44.06C144.4,430.3,169.7,455.6,200.02,473.16z"/>
		<path class="st17" d="M126.84,399.98l-76.32,44.06C25.38,400.72,12,351.4,12,300h88C100,336.4,109.78,370.54,126.84,399.98z"/>
		<path class="st18" d="M126.84,200.02C109.78,229.46,100,263.6,100,300H12c0-51.4,13.38-100.74,38.5-144.06L126.84,200.02z"/>
		<path class="st19" d="M200.02,126.82c-30.32,17.58-55.62,42.88-73.18,73.2L50.5,155.94c12.44-21.52,27.8-41.54,45.86-59.6
			c18.06-18.06,38.06-33.42,59.58-45.86h0.02L200.02,126.82z"/>
		<path class="st20" d="M300,12v88c-36.4,0-70.54,9.76-99.98,26.82l-44.06-76.34C199.26,25.36,248.6,12,300,12z"/>
		<path class="st21" d="M444.04,50.48l-44.06,76.34C370.54,109.76,336.4,100,300,100V12C351.4,12,400.74,25.36,444.04,50.48z"/>
		<path class="st22" d="M549.5,155.94l-76.34,44.08c-17.56-30.32-42.86-55.62-73.18-73.2l44.06-76.34
			c21.52,12.44,41.54,27.8,59.6,45.86C521.7,114.4,537.06,134.42,549.5,155.94z"/>
		<path class="st23" d="M588,300h-88c0-36.4-9.78-70.54-26.84-99.98l76.34-44.08C574.62,199.26,588,248.6,588,300z"/>
		<path class="st24" d="M600,300h-12c0-51.4-13.38-100.74-38.5-144.06l10.34-5.96C585.38,194.1,600,245.34,600,300z"/>
		<path class="st25" d="M600,300c0,54.66-14.62,105.9-40.16,150.02l-10.36-5.98C574.62,400.72,588,351.4,588,300H600z"/>
		<path class="st26" d="M559.84,450.02c-26.34,45.52-64.3,83.48-109.82,109.82l-5.96-10.34c21.5-12.44,41.54-27.82,59.58-45.86
			c18.06-18.06,33.42-38.08,45.84-59.6L559.84,450.02z"/>
		<path class="st27" d="M450.02,559.84C405.9,585.38,354.66,600,300,600v-12c51.4,0,100.76-13.38,144.06-38.5L450.02,559.84z"/>
		<path class="st28" d="M300,588v12c-54.66,0-105.9-14.62-150.02-40.16l5.96-10.34C199.24,574.62,248.6,588,300,588z"/>
		<path class="st29" d="M155.94,549.5l-5.96,10.34c-45.52-26.34-83.48-64.3-109.82-109.82l10.36-5.98
			c12.42,21.52,27.78,41.54,45.84,59.6C114.4,521.68,134.44,537.06,155.94,549.5z"/>
		<path class="st30" d="M50.52,444.04l-10.36,5.98C14.62,405.9,0,354.66,0,300h12C12,351.4,25.38,400.72,50.52,444.04z"/>
		<path class="st31" d="M50.5,155.94C25.38,199.26,12,248.6,12,300H0c0-54.66,14.62-105.9,40.16-150.02L50.5,155.94z"/>
		<path class="st32" d="M155.94,50.48c-21.52,12.44-41.52,27.8-59.58,45.86c-18.06,18.06-33.42,38.08-45.86,59.6l-10.34-5.96
			c26.32-45.52,64.28-83.5,109.82-109.84L155.94,50.48z"/>
		<path class="st33" d="M300,0v12c-51.4,0-100.74,13.36-144.04,38.48h-0.02l-5.96-10.34C194.1,14.62,245.34,0,300,0z"/>
		<path class="st34" d="M450.02,40.14l-5.98,10.34C400.74,25.36,351.4,12,300,12V0C354.66,0,405.9,14.62,450.02,40.14z"/>
		<path class="st35" d="M559.84,149.98l-10.34,5.96c-12.44-21.52-27.8-41.54-45.86-59.6c-18.06-18.06-38.08-33.42-59.6-45.86
			l5.98-10.34C495.56,66.48,533.52,104.46,559.84,149.98z"/>
		<g>
			<g>
				<path d="M259.81,150c5.02,12.05,9.49,24.25,13.83,36.49c4.31,12.24,8.39,24.55,12.32,36.89c7.83,24.7,15.06,49.55,21.77,74.55
					c6.71,25,12.88,50.14,18.45,75.44c2.76,12.66,5.39,25.35,7.77,38.11c2.36,12.77,4.59,25.57,6.25,38.52
					c-5.04-12.05-9.5-24.25-13.85-36.48c-4.32-12.24-8.39-24.55-12.33-36.89c-7.83-24.7-15.06-49.55-21.75-74.56
					c-6.69-25-12.86-50.14-18.43-75.45c-2.76-12.66-5.38-25.35-7.77-38.11C263.72,175.75,261.48,162.95,259.81,150z"/>
			</g>
			<g>
				<path d="M340.19,150c-1.67,12.95-3.91,25.75-6.27,38.51c-2.39,12.76-5.01,25.45-7.77,38.11c-5.57,25.3-11.74,50.45-18.43,75.45
					c-6.69,25-13.91,49.86-21.75,74.56c-3.94,12.34-8.01,24.65-12.33,36.89c-4.34,12.23-8.81,24.43-13.85,36.48
					c1.66-12.95,3.89-25.75,6.25-38.52c2.38-12.76,5.01-25.45,7.77-38.11c5.57-25.3,11.74-50.45,18.45-75.44
					c6.71-25,13.93-49.86,21.77-74.55c3.94-12.34,8.01-24.65,12.32-36.89C330.7,174.25,335.17,162.05,340.19,150z"/>
			</g>
			<g>
				<path d="M409.81,190.19c-7.92,10.38-16.26,20.34-24.69,30.22c-8.45,9.86-17.07,19.54-25.79,29.12
					c-17.47,19.13-35.39,37.82-53.68,56.13c-18.29,18.31-36.98,36.22-56.11,53.7c-9.58,8.72-19.26,17.34-29.12,25.78
					c-9.88,8.42-19.85,16.76-30.23,24.67c7.92-10.39,16.25-20.35,24.67-30.23c8.44-9.86,17.06-19.54,25.78-29.12
					c17.47-19.13,35.39-37.82,53.7-56.11c18.31-18.29,37-36.21,56.13-53.68c9.58-8.72,19.26-17.34,29.12-25.79
					C389.46,206.45,399.43,198.12,409.81,190.19z"/>
			</g>
			<g>
				<path d="M450,259.81c-12.05,5.02-24.25,9.49-36.49,13.83c-12.24,4.31-24.55,8.39-36.89,12.32
					c-24.7,7.83-49.55,15.06-74.55,21.77c-25,6.71-50.14,12.88-75.44,18.45c-12.66,2.76-25.35,5.39-38.11,7.77
					c-12.77,2.36-25.57,4.59-38.52,6.25c12.05-5.04,24.25-9.5,36.48-13.85c12.24-4.32,24.55-8.39,36.89-12.33
					c24.7-7.83,49.55-15.06,74.56-21.75c25-6.69,50.14-12.86,75.45-18.43c12.66-2.76,25.35-5.38,38.11-7.77
					C424.25,263.72,437.05,261.48,450,259.81z"/>
			</g>
			<g>
				<path d="M450,340.19c-12.95-1.67-25.75-3.91-38.51-6.27c-12.76-2.39-25.45-5.01-38.11-7.77c-25.3-5.57-50.45-11.74-75.45-18.43
					c-25-6.69-49.86-13.91-74.56-21.75c-12.34-3.94-24.65-8.01-36.89-12.33c-12.23-4.34-24.43-8.81-36.48-13.85
					c12.95,1.66,25.75,3.89,38.52,6.25c12.76,2.38,25.45,5.01,38.11,7.77c25.3,5.57,50.45,11.74,75.44,18.45
					c25,6.71,49.86,13.93,74.55,21.77c12.34,3.94,24.65,8.01,36.89,12.32C425.75,330.7,437.95,335.17,450,340.19z"/>
			</g>
			<g>
				<path d="M409.81,409.81c-10.38-7.92-20.34-16.26-30.22-24.69c-9.86-8.45-19.54-17.07-29.12-25.79
					c-19.13-17.47-37.82-35.39-56.13-53.68c-18.31-18.29-36.22-36.98-53.7-56.11c-8.72-9.58-17.34-19.26-25.78-29.12
					c-8.42-9.88-16.76-19.85-24.67-30.23c10.39,7.92,20.35,16.25,30.23,24.67c9.86,8.44,19.54,17.06,29.12,25.78
					c19.13,17.47,37.82,35.39,56.11,53.7c18.29,18.31,36.21,37,53.68,56.13c8.72,9.58,17.34,19.26,25.79,29.12
					C393.55,389.46,401.88,399.43,409.81,409.81z"/>
			</g>
		</g>
	</g>
	<g>
		<path class="st36" d="M402.6,51.25c-3.67-9.06-12.96-14.97-22.61-14.38c-4.12,0.25-7.79,1.75-10.83,4.18
			c-1.45-3.35-3.78-6.24-7.01-8.38c-8.05-5.33-19.05-4.86-26.76,1.15c-7.48,5.83-8.6,12.93-8.22,17.86
			c0.42,5.41,3.07,11.27,5.8,12.79c2.17,1.19,4.91,0.43,6.12-1.74c1.05-1.89,0.6-4.21-0.97-5.58c-0.57-0.84-2.4-4.35-1.94-8.4
			c0.34-3.06,1.9-5.61,4.75-7.83c4.63-3.6,11.46-3.91,16.26-0.75c4.27,2.83,5.71,7.76,4.08,13.87l-9.42,35.14l-0.15,0.54
			c-0.64,2.41,0.78,4.87,3.18,5.51c2.41,0.64,4.87-0.77,5.51-3.18l0.15-0.54l9.42-35.14l0.14-0.54c1.64-6.11,5.35-9.65,10.46-9.97
			c5.74-0.34,11.5,3.34,13.7,8.77c1.36,3.35,1.42,6.34,0.19,9.16c-1.63,3.74-4.97,5.87-5.87,6.3c-2.04,0.4-3.6,2.18-3.63,4.35
			c-0.04,2.49,1.94,4.53,4.43,4.57c3.12,0.05,8.34-3.7,11.41-8.17C403.58,66.74,406.16,60.03,402.6,51.25z"/>
	</g>
	<g>
		<path class="st36" d="M515.55,125.23L515.55,125.23c-0.41-0.41-9.6-9.25-27.48-4.57c-1-1.65-2.18-3.23-3.61-4.65
			c-1.58-1.58-3.35-2.88-5.21-3.93c4.78-18-4.11-27.25-4.51-27.65c0,0-0.01-0.01-0.01-0.01c-1.6-1.6-4.16-1.6-5.79-0.03
			c-1.63,1.57-1.67,4.19-0.12,5.84c0.26,0.27,5.72,6.35,2.58,19.04c-7.5-1.28-15.49,0.95-21.27,6.73c-9.46,9.46-9.46,24.86,0,34.32
			c9.46,9.46,24.86,9.47,34.33,0c5.93-5.93,8.14-14.2,6.64-21.87c12.32-2.9,18.27,2.34,18.63,2.67c1.63,1.58,4.22,1.56,5.83-0.05
			C517.18,129.47,517.17,126.85,515.55,125.23z M456.01,144.47c-6.23-6.23-6.23-16.36,0-22.59c6.23-6.23,16.37-6.23,22.6,0
			c6.23,6.23,6.23,16.37,0,22.6C472.38,150.7,462.24,150.7,456.01,144.47z"/>
	</g>
	<g>
		<path class="st36" d="M523.35,251.85l30.2-8.09c2.11,4.04,4.67,6.96,7.69,8.68c4.18,2.38,7.62,1.59,8.27,1.41
			c1.94-0.55,3.01-2.49,2.56-4.46c-0.47-1.98-2.47-3.19-4.45-2.83c-2.17,0.4-7.12-2.06-10.39-14.26
			c-3.34-12.46-0.2-17.67,1.94-18.69c1.87-0.77,2.86-2.89,2.1-4.8c-0.72-1.95-2.89-2.94-4.84-2.22c-0.39,0.15-7.56,3.02-8.12,14.62
			l-31.01,8.31c-6.4-11.02-14.63-9.84-15.06-9.77c-1.99,0.34-3.28,2.17-3.02,4.17c0.26,2,2.12,3.44,4.13,3.27
			c2.36-0.2,7.7,2.73,11.05,15.22c3.27,12.2,0.21,16.81-1.72,17.51c-2.01,0.51-3.23,2.56-2.71,4.58c0,0.01,0.01,0.03,0.01,0.04
			c0.53,1.99,2.57,3.18,4.57,2.67c0.65-0.17,4.03-1.21,6.46-5.36C522.58,259.17,523.35,255.81,523.35,251.85z M520.45,236.47
			l28.38-7.6c0.27,1.69,0.62,3.45,1.14,5.38c0.23,0.86,0.49,1.67,0.74,2.48l-28.16,7.55c-0.24-1.23-0.52-2.49-0.88-3.81
			C521.3,239.04,520.88,237.71,520.45,236.47z"/>
	</g>
	<g>
		<path class="st36" d="M509.65,350.87c1.33-4.96,3.69-9.52,7.02-13.55c3.02-6.43,10.04-9.71,16.76-7.91
			c7.65,2.05,12.2,9.94,10.15,17.59c-2.05,7.65-9.94,12.21-17.59,10.16c-3.01-0.81-5.65-2.59-7.61-5.15l-0.61-0.8l-0.46,1.6
			c-4.1,15.31,4.19,31.89,4.27,32.05c0.44,0.87,0.54,1.86,0.29,2.79c-0.29,1.07-1.02,1.98-2.01,2.48c-1.92,0.98-4.28,0.21-5.26-1.71
			C514.2,387.65,504.79,368.99,509.65,350.87z M536.01,344.98c0.93-3.48-1.14-7.06-4.61-7.99c-3.48-0.93-7.06,1.14-7.99,4.61
			c-0.93,3.48,1.14,7.06,4.62,7.99C531.5,350.53,535.08,348.46,536.01,344.98z"/>
		<path class="st36" d="M527.79,379.3c2.05-7.65,9.94-12.21,17.59-10.16c3.01,0.81,5.64,2.59,7.61,5.15l0.61,0.79l0.46-1.6
			c4.06-15.15-3.92-31.37-4.27-32.05c-0.44-0.87-0.55-1.86-0.3-2.79l0,0c0.29-1.07,1.02-1.98,2.01-2.48
			c1.92-0.98,4.28-0.21,5.26,1.71c0.4,0.79,9.8,19.46,4.95,37.56c-1.33,4.97-3.69,9.53-7.02,13.55c-3.02,6.43-10.04,9.71-16.76,7.91
			C530.3,394.84,525.74,386.95,527.79,379.3z M547.97,384.7c0.93-3.48-1.14-7.06-4.61-7.99c-3.48-0.93-7.06,1.14-7.99,4.62
			c-0.93,3.47,1.14,7.06,4.61,7.99C543.45,390.25,547.04,388.18,547.97,384.7z"/>
	</g>
	<path class="st36" d="M440.51,459.3c1.67-1.67,3.52-2.77,5.35-3.19c9.68-0.95,16.21,4.13,17.39,13.61
		c1.65,13.18,5.92,23.59,10.89,26.52c1.23,0.73,3.26,1.55,6.62,0.21c2.42-1.02,4.32-2.21,5.65-3.54c1.22-1.22,1.99-2.58,2.27-4.04
		c1.22-6.45-6.06-14.25-6.9-15.12l-0.19-0.2l-0.27,0.05c-4.85,0.89-9.81-0.65-13.27-4.11c-5.82-5.82-5.82-15.28,0-21.1
		c5.82-5.82,15.28-5.82,21.1,0c5.82,5.82,5.82,15.28,0,21.1l-0.33,0.33l0.24,0.41c3.36,3.99,8.77,11.91,7.24,20.06
		c-0.57,3.04-2.03,5.75-4.33,8.06c-2.06,2.06-4.85,3.84-8.27,5.29c-4.82,1.91-9.49,1.66-13.51-0.72
		c-10.33-6.11-13.67-24.58-14.63-32.24c-0.28-2.23-2.07-4.74-4.35-6.11c-1.66-1-3.36-1.25-4.78-0.71c-0.42,0.16-0.8,0.41-1.13,0.74
		c-1.88,1.88-1.64,5.92-1.53,7.11c0.14,1.45,0.38,2.3,0.7,2.51c0.87,0.57,1.46,1.45,1.67,2.46c0.21,1.01,0.01,2.05-0.56,2.91
		c-0.15,0.22-0.31,0.43-0.5,0.61c-1.29,1.29-3.35,1.5-4.88,0.49c-4.76-3.15-5.07-9.79-3.89-14.53
		C436.74,464.46,438.23,461.58,440.51,459.3L440.51,459.3z M483.67,464.01c2.79-2.79,2.79-7.33,0-10.13
		c-2.79-2.79-7.33-2.79-10.12,0c-2.79,2.79-2.79,7.33,0,10.12C476.34,466.8,480.88,466.81,483.67,464.01z"/>
	<g>
		<path class="st36" d="M329.73,542.41c0.62,6.44,4.44,11.63,10.22,13.88c3.03,1.18,6.2,1.36,8.8,0.65l0.83,3.11
			c2.21,8.25,9.4,7.81,13.7,6.66c2.88-0.77,5.27-2.57,6.73-5.08c0-0.01,0-0.01,0.01-0.02c2.65,1.45,5.74,1.76,8.46,1.03
			c2.88-0.77,5.27-2.57,6.73-5.08c0.01-0.02,0.02-0.04,0.03-0.06c2.49,1.15,5.28,1.4,7.78,0.73c2.88-0.77,5.27-2.57,6.73-5.08
			c1.11-1.92,2.19-5.14,1-9.58c-0.54-2.03-2.62-3.23-4.65-2.68c-2.03,0.54-3.23,2.62-2.68,4.65c1.1,4.09-1.53,5.14-2.37,5.36
			c-1.74,0.47-4.09-0.14-4.96-3.4l-8.31-31.02c-0.54-2.03-2.62-3.22-4.65-2.68c-2.03,0.54-3.23,2.62-2.68,4.65l8.44,31.51
			c1.1,4.09-2.01,5.26-2.89,5.5c-0.88,0.24-3.95,0.81-5.22-3.95c-1.59-5.94-8.19-30.95-8.19-30.95c-0.54-2.03-2.62-3.23-4.65-2.68
			c-2.03,0.54-3.23,2.62-2.68,4.65l8.44,31.51c1.1,4.09-1.53,5.14-2.37,5.36c-1.74,0.47-4.09-0.14-4.96-3.4
			c0,0-9.07-33.44-9.65-35.62c2.51-2.54,5.1-4.46,7.17-5.46c1.89-0.91,2.69-3.17,1.78-5.07c-0.8-1.67-2.67-2.48-4.4-2.02
			c-0.22,0.06-0.45,0.15-0.67,0.25c-2.79,1.35-6.46,4.05-9.95,7.72c-4.46-0.96-10.08-0.49-12.9-0.15c-2.05,0.26-3.57,2.15-3.31,4.22
			c0.25,2.09,2.14,3.57,4.22,3.32c2.17-0.26,4.46-0.36,6.45-0.34C331.48,528.5,329.04,535.27,329.73,542.41z M340.85,527.94
			c0.43,1.62,0.9,3.41,1.39,5.28c1.57,5.94,3.32,12.57,4.37,16.47c-0.83,0.18-2.49,0.18-4.34-0.65c-1.67-0.76-4.54-2.72-4.98-7.35
			C336.83,536.92,338.4,532.15,340.85,527.94z"/>
	</g>
	<g>
		<g>
			<path class="st36" d="M270.64,536.91l-15.6-4.18c-2.2-0.59-4.46,0.71-5.05,2.91l-0.21,0.79c-0.78,3.06-2.41,9.42-6.88,12.04
				c-2.42,1.42-5.47,1.61-9.32,0.58c-5.59-1.5-8.57-4.42-9.39-9.19c-0.72-4.22,0.49-8.73,1.06-10.83c0.59-2.2-0.72-4.46-2.92-5.05
				l-15.35-4.11c-2.2-0.59-4.46,0.71-5.05,2.91c-0.59,2.2,0.72,4.46,2.92,5.05l11.49,3.08c-0.54,2.83-0.92,6.53-0.27,10.35
				c0.95,5.57,4.4,12.83,15.39,15.77c6,1.61,11.25,1.13,15.62-1.43c5.75-3.36,8.42-9.47,9.79-13.83l11.64,3.12
				c2.2,0.59,4.46-0.71,5.05-2.91C274.15,539.76,272.84,537.5,270.64,536.91z"/>
			<path class="st36" d="M208.57,513.87l63.67,17.06c2.2,0.59,4.46-0.71,5.05-2.91c0.59-2.2-0.72-4.46-2.92-5.05L210.7,505.9
				c-2.2-0.59-4.46,0.72-5.05,2.92C205.06,511.02,206.37,513.28,208.57,513.87z"/>
		</g>
	</g>
	<path class="st36" d="M130.45,433.09c0.28,0.28,0.49,0.61,0.63,0.99c0.38,1.03,0.13,2.19-0.64,2.96l-3.7,3.7l0.26,0.35
		c1.3,1.73,7.46,10.69,1.16,16.99l-19.87,19.87c-2.65,2.65-2.16,5.52-0.5,7.19c1.53,1.53,4.17,2.15,7-0.68l24.88-24.88
		c1.4-1.4,3.67-1.4,5.07,0c1.4,1.4,1.4,3.67,0,5.07l-23.47,23.47l-0.36,0.34c-1,0.93-2.86,2.67-2.9,4.91
		c-0.02,1.3,0.57,2.57,1.77,3.76c0.53,0.53,3.35,2.98,7-0.68l24.88-24.88c1.4-1.4,3.67-1.4,5.07,0c1.4,1.4,1.4,3.67,0,5.07
		l-24.49,24.49c-2.65,2.65-2.16,5.52-0.49,7.19c1.53,1.53,4.17,2.15,7-0.68c1.4-1.4,3.67-1.4,5.07,0c1.4,1.4,1.4,3.67,0,5.07
		c-3.39,3.39-6.83,4.09-9.12,4.08c-3-0.01-5.84-1.22-8.02-3.39c-1.92-1.92-3.12-4.53-3.37-7.34l-0.04-0.44l-0.44-0.03
		c-3.1-0.01-5.95-1.21-8.12-3.39c-2.12-2.12-3.38-5.08-3.45-8.1l-0.01-0.33l-0.4-0.17l-0.12,0c-2.99-0.01-5.84-1.22-8.02-3.4
		c-2.93-2.93-6.29-10.54-1.16-15.66l21.53-21.53c1.57-1.57-0.04-4.82-1.14-6.61l-0.34-0.55l-4.01,4.01
		c-0.74,0.74-1.83,1.01-2.82,0.68c-0.42-0.13-0.8-0.37-1.11-0.68c-0.42-0.42-0.69-0.95-0.78-1.53l-2.29-13.85
		c-0.14-0.85,0.11-1.7,0.69-2.32c0.58-0.64,1.4-0.97,2.26-0.91l15.12,1.02C129.33,432.32,129.97,432.61,130.45,433.09z"/>
	<g>
		<path class="st36" d="M33.51,342.45c-0.41,0.13-0.8,0.31-1.15,0.57c-0.38,0.29-0.69,0.64-0.92,1.04
			c-0.01,0.01-0.02,0.02-0.02,0.02l0,0c-0.24,0.41-0.39,0.88-0.46,1.35s-0.04,0.96,0.09,1.42c0,0,0,0,0,0l5.05,18.87
			c0.52,1.95,2.53,3.11,4.49,2.59c1.96-0.52,3.11-2.53,2.59-4.49l-2.76-10.31l21.38,12.39l-4.68,7.76
			c-1.04,1.73-0.48,3.98,1.25,5.03c1.73,1.05,3.98,0.49,5.03-1.25l4.73-7.87l24.09,13.96c1.75,1.01,3.99,0.42,5-1.33
			c0.51-0.88,0.61-1.87,0.37-2.78c-0.24-0.9-0.83-1.71-1.7-2.22L71.9,363.32l5.35-8.88c0.53-0.89,0.65-1.91,0.4-2.84
			c-0.24-0.88-0.8-1.68-1.65-2.19c-1.73-1.04-3.98-0.48-5.03,1.25l-5.41,8.98l-21.51-12.46l10.05-2.69
			c1.96-0.52,3.11-2.53,2.59-4.49c-0.52-1.95-2.53-3.11-4.49-2.59l-18.57,4.98C33.59,342.4,33.55,342.44,33.51,342.45z"/>
	</g>
	<g>
		<path class="st36" d="M57.88,211.97c-1.38,5.16-0.06,10.39,3.02,14.29c-3.48,0.61-8.07,0.89-12.75-0.37
			c-5.76-1.54-10.88,2.09-12.74,9.04c-0.95,3.56-0.86,7.53,0.52,10.62c-3.2,2.47-5.73,6.61-6.71,10.26
			c-0.78,2.91-0.67,5.65,0.31,7.92c0.84,1.95,2.73,4.51,6.98,5.65c1.91,0.51,3.87-0.62,4.38-2.53s-0.62-3.87-2.53-4.38
			c-1.68-0.45-2.74-1.24-2.46-3.65c0.49-4.27,4.42-8.26,5.66-8.3l28.22,7.56c1.91,0.51,3.87-0.62,4.38-2.53
			c0.51-1.91-0.62-3.87-2.53-4.38l-28.22-7.56c-1.22-0.33-1.96-3.54-1.08-6.82c0.41-1.51,1.1-2.79,1.9-3.5
			c0.64-0.56,1.24-0.7,2.08-0.48c9.99,2.68,19.28-0.07,22.38-1.18c0.24,0.08,0.46,0.2,0.7,0.27c2.46,0.66,4.92,0.65,7.27,0.21
			c2.65,2.98,8.4,10.88,5.86,21.22c-0.47,1.92,0.7,3.86,2.63,4.33c1.9,0.46,3.8-0.67,4.31-2.55c0.01-0.02,0.01-0.05,0.02-0.07
			c2.91-11.85-2.33-21.16-6.05-25.96c2.77-2.11,4.93-5.05,5.9-8.67c2.32-8.67-2.83-17.6-11.5-19.92
			C69.14,198.16,60.2,203.31,57.88,211.97z M82.39,218.54c-1.3,4.85-6.31,7.74-11.16,6.44c-4.85-1.3-7.74-6.31-6.44-11.16
			c1.3-4.85,6.31-7.74,11.16-6.45C80.8,208.68,83.7,213.69,82.39,218.54z"/>
	</g>
	<g>
		<g>
			<path class="st36" d="M98.9,146.31c2.81-2.81,2.43-6.77,2.12-9.96c-0.3-3.18-0.4-5.2,0.8-6.4c0.63-0.63,1.81-0.46,4.83,0.36
				c3.51,0.95,8.79,2.38,12.99-1.81c4.33-4.33,2.71-9.51,1.65-12.94c-0.47-1.5-1.04-3.36-0.64-3.77c0.7-0.7,3.4-0.08,5.37,0.36
				c3.7,0.83,8.3,1.89,11.67-1.49c3.29-3.29,3-8.48,2.75-13.08c-0.09-1.65-0.22-4.11,0.03-4.96c1.28-1.49,1.21-3.75-0.2-5.16
				c-1.48-1.48-3.9-1.49-5.38,0c-2.49,2.49-2.28,6.4-2.04,10.54c0.12,2.24,0.35,6.4-0.54,7.29c-0.58,0.36-3.29-0.26-4.6-0.56
				c-3.7-0.84-8.77-1.99-12.43,1.67c-3.65,3.65-2.2,8.32-1.24,11.4c1.08,3.47,1.13,4.41,0.24,5.3c-0.93,0.93-2.22,0.77-5.62-0.15
				c-3.52-0.95-8.35-2.25-12.21,1.61c-3.82,3.82-3.34,8.85-2.98,12.52c0.12,1.24,0.32,3.32,0.04,3.88
				c-1.46,1.49-1.45,3.88,0.03,5.35C95,147.8,97.41,147.8,98.9,146.31z"/>
			<path class="st36" d="M155.15,107.73c-2.49,2.49-2.28,6.4-2.05,10.53c0.13,2.24,0.35,6.4-0.54,7.29
				c-0.58,0.36-3.29-0.26-4.6-0.56c-3.7-0.84-8.77-1.99-12.43,1.67c-3.65,3.65-2.2,8.32-1.24,11.41c1.08,3.47,1.12,4.41,0.24,5.29
				c-0.93,0.93-2.22,0.77-5.62-0.15c-3.52-0.95-8.35-2.26-12.21,1.6c-3.82,3.82-3.34,8.85-2.98,12.52c0.12,1.25,0.32,3.32,0.04,3.88
				c-1.46,1.49-1.45,3.88,0.02,5.36c1.48,1.48,3.9,1.49,5.38,0c2.81-2.81,2.43-6.77,2.12-9.96c-0.31-3.19-0.4-5.2,0.8-6.4
				c0.63-0.63,1.82-0.45,4.83,0.36c3.51,0.95,8.79,2.38,12.99-1.81c4.33-4.33,2.72-9.51,1.65-12.93c-0.47-1.5-1.05-3.37-0.64-3.77
				c0.7-0.7,3.4-0.08,5.37,0.36c3.7,0.84,8.3,1.89,11.67-1.49c3.29-3.29,3-8.48,2.75-13.08c-0.09-1.65-0.22-4.11,0.03-4.96
				c1.28-1.49,1.21-3.75-0.2-5.16C159.04,106.24,156.63,106.24,155.15,107.73z"/>
		</g>
	</g>
	<g>
		<path class="st36" d="M261.37,55.54l-13.77,3.69c-2.12-12.99,3.68-19.66,4.03-20.04c1.54-1.63,1.47-4.2-0.14-5.75
			c-1.63-1.56-4.21-1.5-5.78,0.12c-0.41,0.42-9.28,9.97-6.04,27.79l-8.89,2.38c-6.11-17.05-18.56-20.89-19.12-21.05
			c-2.15-0.62-4.39,0.61-5.03,2.75c-0.65,2.14,0.57,4.41,2.7,5.09c0.39,0.13,8.82,2.95,13.51,15.34l-11.62,3.11
			c-2.18,0.58-3.47,2.82-2.89,5.01c0.58,2.18,2.82,3.47,5,2.89l11.59-3.11c1.7,11.64-4.56,15.53-4.81,15.67
			c-1.98,1.08-2.72,3.56-1.64,5.54c0.92,1.69,2.86,2.48,4.65,2c0.3-0.08,0.6-0.2,0.9-0.36c0.52-0.29,12.01-6.77,8.86-24.99
			l8.91-2.39c6.38,17.35,19.57,17.23,20.17,17.21c0.33-0.01,0.65-0.05,0.95-0.13c1.75-0.47,3.01-2.08,2.99-3.98
			c-0.02-2.23-1.86-4.03-4.09-4.05c-0.34,0-7.72-0.24-12.07-11.17l13.73-3.68c2.18-0.58,3.47-2.83,2.89-5
			C265.79,56.25,263.55,54.96,261.37,55.54z"/>
	</g>
</g>
<g>
</g>
<g>
</g>
<g>
</g>
<g>
</g>
<g>
</g>
<g>
</g>
<g>
</g>
<g>
</g>
<g>
</g>
<g>
</g>
<g>
</g>
<g>
</g>
<g>
</g>
<g>
</g>
<g>
</g>
</svg>
