<?xml version="1.0" encoding="utf-8"?>
<!-- Generator: Adobe Illustrator 25.3.1, SVG Export Plug-In . SVG Version: 6.00 Build 0)  -->
<svg version="1.1" id="Layer_1" xmlns="http://www.w3.org/2000/svg" xmlns:xlink="http://www.w3.org/1999/xlink" x="0px" y="0px"
	 viewBox="0 0 600 600" style="enable-background:new 0 0 600 600;" xml:space="preserve">
<style type="text/css">
	.st0{fill:#B449B7;}
	.st1{fill:#FFFFFF;}
	.st2{fill:#CD86CF;}
</style>
<g>
	<circle class="st0" cx="299.64" cy="300.45" r="300"/>
	<g>
		<path class="st1" d="M270.94,271.29c-7.69,5.54-12.46,14.51-14.1,26.67c-0.99,7.27,1.07,13.69,5.95,18.53
			c9.51,9.47,28.44,11.7,44.05,11.7c10.48,0,19.47-1.02,23.08-1.44c32.89,19.56,84.89,35.76,84.89,35.76l28.64-32.5
			c0,0-21.46-49.14-38.8-77.96c1.36-15.26,2.31-46.98-10.92-60.27c-4.84-4.88-11.22-6.93-18.53-5.95
			c-12.18,1.65-21.17,6.39-26.66,14.11c-3.54,4.93-4.95,10.2-5.48,14.59c-15.21-3.4-27.26-4.39-27.26-4.39s-0.83-33.79-5.35-35.85
			c-2.38-1.08-19.8,15.4-34.99,32.07l0.03-0.07c0,0-0.04,0.07-0.04,0.08c-4.24,4.68-7.35,8.08-11.82,13.66
			c-6.88,8.57-11.83,19.1-11.83,19.1s-9.09,20.37-21.22,35.38c-25.66,31.77-74.35,77.26-74.75,113.86
			c-0.4,36.61,34.28,42.38,83.27,28.71c27.17-8.52,87.89-20.3,95.28,9.62c8.78-35.38-55.01-33.38-91.48-20.41
			c-36.47,12.97-69.05,2.66-73.88-18.93c-4.83-21.56,51.6-79.48,68.17-108.11c3.52-6.09,6.37-11.37,8.68-16.05
			c-3.39,10.72-7.62,22.35-12.08,30.45c-9.3,16.88-46.68,62.98-36.98,86.5c11.09,26.91,78.85,2.54,103.96-0.7
			c25.1-3.25,45.03,11.79,46.07,29.44c16.17-21.18-19.35-47.3-46.29-40.96c-26.93,6.37-76.11,14.26-82.98-0.69
			c-5.88-12.83,19.52-57.96,24.7-72.31c5.77-15.97,11-41.26,12.97-55.03c13.18,2.2,36.31-1.07,36.31-1.07s-1.38,11.69,0.51,26.78
			C287.57,265.33,278.82,265.68,270.94,271.29z M356.56,205.65c3.89-5.41,10.59-8.81,19.97-10.08c4.27-0.58,7.52,0.41,10.19,3.12
			c7.38,7.41,8.98,25.32,8.72,40.43c-2.1-2.35-4.21-4.5-6.41-6.13c-10.08-7.48-23.63-12.58-36.32-16.09
			C352.93,213.66,353.82,209.44,356.56,205.65z M293.32,275.62l0.21-1.13c3,14.6,9.4,30.73,22.71,42.46
			c0.38,0.33,0.83,0.62,1.21,0.98c-16.09,0.93-39.03,0.19-47.7-8.44c-2.7-2.68-3.7-5.95-3.11-10.22c1.26-9.31,4.63-16.03,9.99-19.91
			C284.07,273.99,293.24,275.6,293.32,275.62z"/>
	</g>
	<g>
		<path class="st2" d="M541.5,169.47l-19.05,10.99v0.01c3.77,6.98,7.21,14.15,10.32,21.51c12.22,28.88,18.85,59.45,19.76,90.97
			h22.01C573.35,248.33,561.52,206.35,541.5,169.47z"/>
		<path class="st2" d="M292.14,553.34v22.01c-44.62-1.19-86.6-13.02-123.48-33.03l11-19.05c6.98,3.76,14.15,7.2,21.51,10.31
			C230.06,545.79,260.63,552.43,292.14,553.34z"/>
		<path class="st2" d="M166.68,515.76l-11,19.04c-36.75-22.62-67.77-53.64-90.39-90.39l19.04-11
			c10.25,16.58,22.43,31.95,36.41,45.94C134.73,493.33,150.1,505.51,166.68,515.76z"/>
		<path class="st2" d="M76.82,420.43l-19.05,11c-20.01-36.88-31.84-78.86-33.03-123.48h22.01c0.91,31.51,7.55,62.08,19.76,90.97
			C69.63,406.28,73.07,413.45,76.82,420.43z"/>
		<path class="st2" d="M76.83,180.46v0.01c-3.76,6.98-7.2,14.15-10.32,21.51c-12.21,28.88-18.85,59.45-19.76,90.97H24.74
			c1.19-44.62,13.02-86.6,33.04-123.48L76.83,180.46z"/>
		<path class="st1" d="M166.68,85.14c-16.58,10.25-31.95,22.43-45.94,36.41c-13.98,13.98-26.15,29.34-36.41,45.93l-19.04-10.99
			c22.62-36.75,53.64-67.77,90.39-90.39L166.68,85.14z"/>
		<path class="st2" d="M292.14,25.55v22.01c-31.51,0.91-62.08,7.55-90.97,19.76c-7.36,3.11-14.53,6.55-21.51,10.31l-11-19.05
			C205.54,38.57,247.52,26.74,292.14,25.55z"/>
		<path class="st2" d="M430.62,58.59l-10.99,19.05h-0.01c-6.98-3.77-14.15-7.21-21.51-10.32c-28.88-12.21-59.45-18.85-90.97-19.76
			V25.55C351.76,26.74,393.74,38.57,430.62,58.59z"/>
		<path class="st2" d="M533.99,156.49l-19.04,10.99c-10.25-16.59-22.43-31.95-36.41-45.93c-13.98-13.98-29.34-26.16-45.93-36.41
			L443.6,66.1C480.35,88.72,511.37,119.74,533.99,156.49z"/>
		<path class="st2" d="M574.54,307.95c-1.19,44.62-13.02,86.6-33.03,123.48l-19.05-11c3.76-6.98,7.2-14.15,10.31-21.51
			c12.22-28.89,18.85-59.46,19.76-90.97H574.54z"/>
		<path class="st2" d="M533.99,444.41c-22.62,36.75-53.64,67.77-90.39,90.39l-10.99-19.04c16.59-10.26,31.95-22.43,45.93-36.41
			c13.98-13.99,26.16-29.36,36.41-45.94L533.99,444.41z"/>
		<path class="st2" d="M430.62,542.31c-36.88,20.02-78.86,31.85-123.48,33.04v-22.01c31.52-0.91,62.09-7.55,90.97-19.76
			c7.36-3.11,14.54-6.55,21.52-10.32L430.62,542.31z"/>
	</g>
</g>
<g>
</g>
<g>
</g>
<g>
</g>
<g>
</g>
<g>
</g>
<g>
</g>
<g>
</g>
<g>
</g>
<g>
</g>
<g>
</g>
<g>
</g>
<g>
</g>
<g>
</g>
<g>
</g>
<g>
</g>
</svg>
