<?xml version="1.0" encoding="utf-8"?>
<!-- Generator: Adobe Illustrator 25.3.1, SVG Export Plug-In . SVG Version: 6.00 Build 0)  -->
<svg version="1.1" id="Layer_1" xmlns="http://www.w3.org/2000/svg" xmlns:xlink="http://www.w3.org/1999/xlink" x="0px" y="0px"
	 viewBox="0 0 600 600" style="enable-background:new 0 0 600 600;" xml:space="preserve">
<style type="text/css">
	.st0{fill:#D52F38;}
	.st1{fill:#FFFFFF;}
	.st2{fill:#E3747A;}
</style>
<g>
	<circle class="st0" cx="300" cy="300" r="300"/>
	<g>
		<path class="st1" d="M417.2,203.83c-5.29,8.68-11.64,20.92-11.42,29.77c-9.24-5.5-1.15-22.57,5.29-33.43
			c-0.23-0.11-0.4-0.24-0.61-0.36c-6.41-3.26-12.41-5.52-18.16-7c-2.64,9.91-5.47,24.34-2.53,33.1
			c-10.73-2.63-7.57-22.24-4.45-34.48c-8.08-1.07-15.65-0.24-23,2.53c1.89,10.08,5.53,24.17,11.9,30.78
			c-10.37,2.13-15.92-15.36-18.53-27.71c-5.04,2.75-10.01,6.36-15.03,10.99c4.35,9.16,11.08,21.02,18.54,25.65
			c-8.98,4.37-18.17-9.3-23.85-20.38c-8.19,8.56-16.62,19.57-25.66,33.14c-2.61-0.4-6.64-0.4-9.57-0.32
			c-2.97-0.08-7.1-0.09-9.74,0.32c-9.07-13.58-17.49-24.58-25.69-33.14c-5.7,11.07-14.85,24.75-23.86,20.37
			c7.46-4.62,14.19-16.49,18.54-25.65c-5.04-4.63-10.02-8.24-15.05-10.99c-2.61,12.37-8.15,29.85-18.55,27.72
			c6.37-6.62,10.02-20.73,11.91-30.79c-7.34-2.77-14.91-3.59-23-2.53c3.09,12.24,6.24,31.85-4.45,34.48
			c2.93-8.76,0.1-23.19-2.54-33.1c-5.74,1.49-11.73,3.76-18.14,7.02c-0.21,0.11-0.4,0.27-0.61,0.36
			c6.46,10.86,14.54,27.93,5.29,33.43c0.23-8.86-6.11-21.09-11.41-29.77c-34.86,23.62-41.16,78.67-22.61,103.87
			c5.87,7.66,27.96,32.28,50.06,13.61c22.1-18.65,1.56-43.13-7.95-45.22c7.49,10.91,7.26,21.76-3.45,20.74
			c-26.24-3.8-26.58-30.04,3.46-52.13c26.93-18.65,48.68,20.71,48.68,20.71s-33.14-20.03-45.23-13.47s0.68,9.67,5.52,18.28
			c4.83,8.63,28.3,19,25.9,26.59c-4.14,35.55,23.48,58.7,27.62,68.36c4.14,9.67,6.9,53.48,33.12,53.86l0,0h0.02
			c0.07,0,2.42,0,4.12,0h0.02l0,0c26.22-0.38,28.98-44.19,33.12-53.86c4.14-9.67,31.76-32.82,27.62-68.36
			c-2.42-7.6,21.06-17.95,25.9-26.58c4.84-8.62,17.63-11.73,5.52-18.28c-12.09-6.56-45.23,13.47-45.23,13.47
			s21.75-39.36,48.68-20.71c30.04,22.1,29.7,48.33,3.45,52.13c-10.69,1.04-10.92-10.3-3.45-20.71c-9.49,2.08-30.04,26.58-7.94,45.22
			c22.1,18.65,44.19-5.93,50.04-13.61C458.36,282.51,452.05,227.44,417.2,203.83z M262.66,347.99
			c-2.99,1.43-13.22-15.89-15.75-22.33c-2.53-6.44,2.36-13.31,7.05-13.45C256.87,314.46,269.22,344.89,262.66,347.99z
			 M294.56,412.12c-4.03,0.85-11.58-4.67-11.45-8.1c0.13-3.42,5.98-2.6,7.4-1.87C291.94,402.9,298.59,411.27,294.56,412.12z
			 M305.43,412.12c-4.01-0.85,2.62-9.21,4.04-9.97c1.43-0.73,7.27-1.57,7.4,1.87C317.02,407.46,309.48,412.97,305.43,412.12z
			 M353.09,325.66c-2.53,6.45-12.73,23.75-15.75,22.33c-6.56-3.1,5.79-33.53,8.71-35.77C350.74,312.34,355.63,319.21,353.09,325.66z
			"/>
	</g>
	<g>
		<path class="st2" d="M541.86,169.02l-19.05,10.99v0.01c3.77,6.98,7.21,14.15,10.32,21.51c12.22,28.88,18.85,59.45,19.76,90.97
			h22.01C573.71,247.88,561.88,205.9,541.86,169.02z"/>
		<path class="st2" d="M292.5,552.89v22.01c-44.62-1.19-86.6-13.02-123.48-33.03l11-19.05c6.98,3.76,14.15,7.2,21.51,10.31
			C230.42,545.34,260.99,551.98,292.5,552.89z"/>
		<path class="st2" d="M167.04,515.31l-11,19.04c-36.75-22.62-67.77-53.64-90.39-90.39l19.04-11
			c10.25,16.58,22.43,31.95,36.41,45.94C135.09,492.88,150.46,505.06,167.04,515.31z"/>
		<path class="st2" d="M77.18,419.98l-19.05,11C38.12,394.1,26.29,352.12,25.1,307.5h22.01c0.91,31.51,7.55,62.08,19.76,90.97
			C69.99,405.83,73.43,413,77.18,419.98z"/>
		<path class="st2" d="M77.19,180.01L77.19,180.01c-3.76,6.99-7.2,14.16-10.32,21.52c-12.21,28.88-18.85,59.45-19.76,90.97H25.1
			c1.19-44.62,13.02-86.6,33.04-123.48L77.19,180.01z"/>
		<path class="st2" d="M167.04,84.69c-16.58,10.25-31.95,22.43-45.94,36.41c-13.98,13.98-26.15,29.34-36.41,45.93l-19.04-10.99
			c22.62-36.75,53.64-67.77,90.39-90.39L167.04,84.69z"/>
		<path class="st2" d="M292.5,25.1v22.01c-31.51,0.91-62.08,7.55-90.97,19.76c-7.36,3.11-14.53,6.55-21.51,10.31l-11-19.05
			C205.9,38.12,247.88,26.29,292.5,25.1z"/>
		<path class="st1" d="M430.98,58.14l-10.99,19.05h-0.01c-6.98-3.77-14.15-7.21-21.51-10.32c-28.88-12.21-59.45-18.85-90.97-19.76
			V25.1C352.12,26.29,394.1,38.12,430.98,58.14z"/>
		<path class="st2" d="M534.35,156.04l-19.04,10.99c-10.25-16.59-22.43-31.95-36.41-45.93s-29.34-26.16-45.93-36.41l10.99-19.04
			C480.71,88.27,511.73,119.29,534.35,156.04z"/>
		<path class="st2" d="M574.9,307.5c-1.19,44.62-13.02,86.6-33.03,123.48l-19.05-11c3.76-6.98,7.2-14.15,10.31-21.51
			c12.22-28.89,18.85-59.46,19.76-90.97H574.9z"/>
		<path class="st2" d="M534.35,443.96c-22.62,36.75-53.64,67.77-90.39,90.39l-10.99-19.04c16.59-10.26,31.95-22.43,45.93-36.41
			c13.98-13.99,26.16-29.36,36.41-45.94L534.35,443.96z"/>
		<path class="st2" d="M430.98,541.86c-36.88,20.02-78.86,31.85-123.48,33.04v-22.01c31.52-0.91,62.09-7.55,90.97-19.76
			c7.36-3.11,14.54-6.55,21.52-10.32L430.98,541.86z"/>
	</g>
</g>
</svg>
