<?xml version="1.0" encoding="utf-8"?>
<!-- Generator: Adobe Illustrator 25.3.1, SVG Export Plug-In . SVG Version: 6.00 Build 0)  -->
<svg version="1.1" id="Layer_1" xmlns="http://www.w3.org/2000/svg" xmlns:xlink="http://www.w3.org/1999/xlink" x="0px" y="0px"
	 viewBox="0 0 600 600" style="enable-background:new 0 0 600 600;" xml:space="preserve">
<style type="text/css">
	.st0{fill:#D8A927;}
	.st1{fill:#FFFFFF;}
	.st2{fill:#E5C66F;}
</style>
<g>
	<circle class="st0" cx="300" cy="300" r="300"/>
	<g>
		<path class="st1" d="M450,288.98c-29.97,54.47-65.15,51.15-65.15,51.15l3.48-21.48c0,0,0.13-4.76,0.71-8.57
			c0.58-3.81,22.56-40.73,25.49-48.34c2.92-7.61,14.68-40.95,1.37-43.87c6.23-43.24-20.38-57.8-20.38-57.8s11.64,35.35,1.67,36.99
			c-9.98,1.68-7.91-2.91-25.36-22.04c-8.33,2.93,12.89,35.76,12.89,35.76s-14.16,21.63,5.81,60.3c-7.08-5.82-10.63-1.67-15.04-0.24
			c-4.41,1.41-6.17,2.74-12.39,3.99c-6.24,1.26-33.27-15.39-33.27-15.39l8.42-11.36c0.46,0.12,0.9,0.28,1.39,0.28
			c3.03,0,5.51-2.48,5.51-5.51c0-3.05-2.48-5.51-5.51-5.51c-3.04,0-5.51,2.47-5.51,5.51c0,0.78,0.17,1.5,0.44,2.16l-14.72,14
			c0,0-10.22-3.16-20.18-3.16c-9.96,0-19.54,3.16-19.54,3.16l-14.73-13.98c0.28-0.66,0.45-1.38,0.45-2.16
			c0-3.05-2.48-5.51-5.51-5.51c-3.05,0-5.51,2.47-5.51,5.51c0,3.03,2.47,5.51,5.51,5.51c0.5,0,0.94-0.18,1.39-0.28l8.42,11.36
			c0,0-27.03,16.63-33.26,15.39c-6.23-1.26-8.01-2.57-12.4-3.99c-4.42-1.41-7.97-5.58-15.04,0.24c19.96-38.68,5.81-60.31,5.81-60.31
			s21.22-32.85,12.89-35.76c-17.44,19.14-15.37,23.71-25.34,22.04c-9.98-1.65,1.67-37,1.67-37s-26.62,14.56-20.38,57.8
			c-13.3,2.92-5.7,29.49-1.6,40.35c4.1,10.86,28.42,53.62,28.42,53.62l0.77,6.83l3.48,21.48c0,0-35.18,3.29-65.16-51.18
			c1.28,15.64,1.25,37.84,26.62,52.59c25.36,14.76,62.78,21,62.78,21s-32.03,1.25-49.48,13.72c-17.47,12.47-13.72,35.76-13.72,35.76
			s3.74-17.88,18.3-27.86c14.55-9.98,69.85-12.06,69.85-12.06s-19.55,15.38-26.2,27.44c-6.65,12.06,8.74,40.35,8.74,40.35
			s0-29.1,4.15-37.85c4.15-8.74,37.43-22.46,37.43-22.46s5.25,0.75,9.71,0.97c0.56,0.06,1.15,0.06,1.82,0.06s1.27,0,1.82-0.06
			c4.47-0.2,9.7-0.97,9.7-0.97s33.27,13.73,37.42,22.46c4.15,8.76,4.15,37.85,4.15,37.85s15.38-28.29,8.74-40.35
			c-6.65-12.06-26.2-27.44-26.2-27.44s55.3,2.08,69.85,12.06c14.56,9.96,18.3,27.86,18.3,27.86s3.74-23.29-13.73-35.76
			c-17.46-12.47-49.48-13.72-49.48-13.72s37.43-6.24,62.78-21C448.75,326.82,448.72,304.62,450,288.98z"/>
	</g>
	<g>
		<path class="st2" d="M541.86,169.02l-19.05,10.99v0.01c3.77,6.98,7.21,14.15,10.32,21.51c12.22,28.88,18.85,59.45,19.76,90.97
			h22.01C573.71,247.88,561.88,205.9,541.86,169.02z"/>
		<path class="st2" d="M292.5,552.89v22.01c-44.62-1.19-86.6-13.02-123.48-33.03l11-19.05c6.98,3.76,14.15,7.2,21.51,10.31
			C230.42,545.34,260.99,551.98,292.5,552.89z"/>
		<path class="st2" d="M167.04,515.31l-11,19.04c-36.75-22.62-67.77-53.64-90.39-90.39l19.04-11
			c10.25,16.58,22.43,31.95,36.41,45.94C135.09,492.88,150.46,505.06,167.04,515.31z"/>
		<path class="st2" d="M77.18,419.98l-19.05,11C38.12,394.1,26.29,352.12,25.1,307.5h22.01c0.91,31.51,7.55,62.08,19.76,90.97
			C69.99,405.83,73.43,413,77.18,419.98z"/>
		<path class="st2" d="M77.19,180.01v0.01c-3.76,6.98-7.2,14.15-10.32,21.51c-12.21,28.88-18.85,59.45-19.76,90.97H25.1
			c1.19-44.62,13.02-86.6,33.04-123.48L77.19,180.01z"/>
		<path class="st2" d="M167.04,84.69c-16.58,10.25-31.95,22.43-45.94,36.41c-13.98,13.98-26.15,29.34-36.41,45.93l-19.04-10.99
			c22.62-36.75,53.64-67.77,90.39-90.39L167.04,84.69z"/>
		<path class="st2" d="M292.5,25.1v22.01c-31.51,0.91-62.08,7.55-90.97,19.76c-7.36,3.11-14.53,6.55-21.51,10.31l-11-19.05
			C205.9,38.12,247.88,26.29,292.5,25.1z"/>
		<path class="st2" d="M430.98,58.14l-10.99,19.05h-0.01c-6.98-3.77-14.15-7.21-21.51-10.32c-28.88-12.21-59.45-18.85-90.97-19.76
			V25.1C352.12,26.29,394.1,38.12,430.98,58.14z"/>
		<path class="st2" d="M534.35,156.04l-19.04,10.99c-10.25-16.59-22.43-31.95-36.41-45.93c-13.98-13.98-29.34-26.16-45.93-36.41
			l10.99-19.04C480.71,88.27,511.73,119.29,534.35,156.04z"/>
		<path class="st1" d="M574.9,307.5c-1.19,44.62-13.02,86.6-33.03,123.48l-19.05-11c3.76-6.98,7.2-14.15,10.31-21.51
			c12.22-28.89,18.85-59.46,19.76-90.97H574.9z"/>
		<path class="st2" d="M534.35,443.96c-22.62,36.75-53.64,67.77-90.39,90.39l-10.99-19.04c16.59-10.26,31.95-22.43,45.93-36.41
			c13.98-13.99,26.16-29.36,36.41-45.94L534.35,443.96z"/>
		<path class="st2" d="M430.98,541.86c-36.88,20.02-78.86,31.85-123.48,33.04v-22.01c31.52-0.91,62.09-7.55,90.97-19.76
			c7.36-3.11,14.54-6.55,21.52-10.32L430.98,541.86z"/>
	</g>
</g>
<g>
</g>
<g>
</g>
<g>
</g>
<g>
</g>
<g>
</g>
<g>
</g>
<g>
</g>
<g>
</g>
<g>
</g>
<g>
</g>
<g>
</g>
<g>
</g>
<g>
</g>
<g>
</g>
<g>
</g>
</svg>
