<?xml version="1.0" encoding="utf-8"?>
<!-- Generator: Adobe Illustrator 25.3.1, SVG Export Plug-In . SVG Version: 6.00 Build 0)  -->
<svg version="1.1" id="Layer_1" xmlns="http://www.w3.org/2000/svg" xmlns:xlink="http://www.w3.org/1999/xlink" x="0px" y="0px"
	 viewBox="0 0 600 600" style="enable-background:new 0 0 600 600;" xml:space="preserve">
<style type="text/css">
	.st0{fill:#734E9B;}
	.st1{fill:#FFFFFF;}
	.st2{fill:#A289BC;}
</style>
<g>
	<circle class="st0" cx="299.64" cy="300.45" r="300"/>
	<path class="st1" d="M399.12,259.64l-0.14,0.02c-11.14,0.77-22.2,2.05-33.26,3.66c-5.52,0.85-11.03,1.78-16.53,2.9
		c-3.79-5.66-7.02-8.8-7.02-8.8s16.16-54.08,80.72-78.83c-24.51-8.33-47.17,1.01-65.7,15.48c3.49,2.83,7.8,7.01,5.85,9.19
		c-2.62-2.84-7.68-4.01-11.52-4.51c-2.4,2.08-4.69,4.23-6.9,6.42c3.58,2.73,9.25,7.69,7.02,10.11c-2.82-3.04-8.45-4.19-12.35-4.63
		c-1.86,1.99-3.61,4-5.33,5.99c3.03,2.17,11.06,8.36,8.5,11.19c-3.21-3.45-10-4.46-13.78-4.76c-1.88,2.38-3.6,4.69-5.24,6.93
		c2.1,1.47,12.03,8.62,9.23,11.72c-3.28-3.54-10.34-4.51-14.09-4.78c-5.96,8.84-9.28,15.03-9.28,15.03h-9.64h-9.64
		c0,0-3.46-6.44-9.65-15.56c-3.86,0.78-9.63,2.45-12.24,5.85c-2.95-2.69,5.23-10.1,7.73-12.26c-1.6-2.17-3.29-4.44-5.11-6.76
		c-3.68,0.62-10.76,2.25-13.73,6.13c-3.29-2.99,7.23-11.85,8.29-12.72c-1.45-1.7-2.94-3.4-4.49-5.1
		c-3.54,0.55-11.06,2.17-14.13,6.19c-3.07-2.79,5.95-10.75,8.03-12.51c-1.63-1.61-3.3-3.2-5.02-4.75
		c-2.4,0.28-11.91,1.71-15.47,6.37c-3.12-2.86,6.33-11.07,8.12-12.58c-18.58-14.57-41.32-24.04-65.95-15.67
		c64.56,24.74,80.72,78.83,80.72,78.83s-1.33,1.35-3.21,3.66l-0.14,0.16c-1.23,1.52-2.7,3.49-4.24,5.86
		c-5.36-1.09-10.74-2.01-16.12-2.83c-11.06-1.62-22.13-2.88-33.26-3.66l-0.14-0.01c-1.49-0.1-3,0.49-4.06,1.7
		c-1.77,2.06-1.54,5.17,0.53,6.95c7.09,6.12,14.33,12.04,21.89,17.63c6.3,4.69,12.73,9.24,19.52,13.38
		c-2.46,30.33,25.87,43.24,31.58,60.29c6.29,18.75,8.78,55.31,14.25,58.28c5.46,2.99,8.39,29.51,6.98,40.21
		c4.56-3.78,2.83-41.82,4.56-39.62c1.74,2.18,4.25,46.04,4.25,46.04s0.06-1.19,0.16-3.05c0.09,1.87,0.16,3.05,0.16,3.05
		s2.51-43.86,4.24-46.06c1.71-2.2,0,35.84,4.56,39.62c-1.4-10.69,2.5-38.45,7.96-41.61c5.47-3.16,6.99-38.11,13.28-56.86
		c5.76-17.23,34.63-30.24,31.48-61.27c6.77-4.13,13.19-8.68,19.48-13.35c7.55-5.57,14.79-11.52,21.88-17.62
		c1.11-0.98,1.8-2.47,1.7-4.08C404.18,261.5,401.84,259.45,399.12,259.64z M265.46,343.4c0,0-18.49-19.09-18.55-23.06
		c-0.79-2.05,14.81,1.09,17.64,6.75C267.38,332.75,265.46,343.4,265.46,343.4z M294.2,412.57c-4.03,0.85-11.58-4.67-11.45-8.1
		c0.13-3.42,5.98-2.6,7.4-1.87C291.58,403.35,298.23,411.72,294.2,412.57z M305.07,412.57c-4.01-0.85,2.62-9.21,4.04-9.97
		c1.43-0.73,7.27-1.57,7.4,1.87C316.66,407.9,309.11,413.42,305.07,412.57z M352.38,320.34c-0.08,3.97-18.56,23.06-18.56,23.06
		s-2.73-10.15,0.08-15.81C336.73,321.93,353.18,318.29,352.38,320.34z"/>
	<g>
		<path class="st2" d="M541.5,169.47l-19.05,10.99v0.01c3.77,6.98,7.21,14.15,10.32,21.51c12.22,28.88,18.85,59.45,19.76,90.97
			h22.01C573.35,248.33,561.52,206.35,541.5,169.47z"/>
		<path class="st2" d="M292.14,553.34v22.01c-44.62-1.19-86.6-13.02-123.48-33.03l11-19.05c6.98,3.76,14.15,7.2,21.51,10.31
			C230.06,545.79,260.63,552.43,292.14,553.34z"/>
		<path class="st2" d="M166.68,515.76l-11,19.04c-36.75-22.62-67.77-53.64-90.39-90.39l19.04-11
			c10.25,16.58,22.43,31.95,36.41,45.94C134.73,493.33,150.1,505.51,166.68,515.76z"/>
		<path class="st2" d="M76.82,420.43l-19.05,11c-20.01-36.88-31.84-78.86-33.03-123.48h22.01c0.91,31.51,7.55,62.08,19.76,90.97
			C69.63,406.28,73.07,413.45,76.82,420.43z"/>
		<path class="st1" d="M76.83,180.46v0.01c-3.76,6.98-7.2,14.15-10.32,21.51c-12.21,28.88-18.85,59.45-19.76,90.97H24.74
			c1.19-44.62,13.02-86.6,33.04-123.48L76.83,180.46z"/>
		<path class="st2" d="M166.68,85.14c-16.58,10.25-31.95,22.43-45.94,36.41c-13.98,13.98-26.15,29.34-36.41,45.93l-19.04-10.99
			c22.62-36.75,53.64-67.77,90.39-90.39L166.68,85.14z"/>
		<path class="st2" d="M292.14,25.55v22.01c-31.51,0.91-62.08,7.55-90.97,19.76c-7.36,3.11-14.53,6.55-21.51,10.31l-11-19.05
			C205.54,38.57,247.52,26.74,292.14,25.55z"/>
		<path class="st2" d="M430.62,58.59l-10.99,19.05h-0.01c-6.98-3.77-14.15-7.21-21.51-10.32c-28.88-12.21-59.45-18.85-90.97-19.76
			V25.55C351.76,26.74,393.74,38.57,430.62,58.59z"/>
		<path class="st2" d="M533.99,156.49l-19.04,10.99c-10.25-16.59-22.43-31.95-36.41-45.93c-13.98-13.98-29.34-26.16-45.93-36.41
			L443.6,66.1C480.35,88.72,511.37,119.74,533.99,156.49z"/>
		<path class="st2" d="M574.54,307.95c-1.19,44.62-13.02,86.6-33.03,123.48l-19.05-11c3.76-6.98,7.2-14.15,10.31-21.51
			c12.22-28.89,18.85-59.46,19.76-90.97H574.54z"/>
		<path class="st2" d="M533.99,444.41c-22.62,36.75-53.64,67.77-90.39,90.39l-10.99-19.04c16.59-10.26,31.95-22.43,45.93-36.41
			c13.98-13.99,26.16-29.36,36.41-45.94L533.99,444.41z"/>
		<path class="st2" d="M430.62,542.31c-36.88,20.02-78.86,31.85-123.48,33.04v-22.01c31.52-0.91,62.09-7.55,90.97-19.76
			c7.36-3.11,14.54-6.55,21.52-10.32L430.62,542.31z"/>
	</g>
</g>
<g>
</g>
<g>
</g>
<g>
</g>
<g>
</g>
<g>
</g>
<g>
</g>
<g>
</g>
<g>
</g>
<g>
</g>
<g>
</g>
<g>
</g>
<g>
</g>
<g>
</g>
<g>
</g>
<g>
</g>
</svg>
