<?xml version="1.0" encoding="utf-8"?>
<!-- Generator: Adobe Illustrator 25.3.1, SVG Export Plug-In . SVG Version: 6.00 Build 0)  -->
<svg version="1.1" id="Layer_1" xmlns="http://www.w3.org/2000/svg" xmlns:xlink="http://www.w3.org/1999/xlink" x="0px" y="0px"
	 viewBox="0 0 600 600" style="enable-background:new 0 0 600 600;" xml:space="preserve">
<style type="text/css">
	.st0{fill:#398D30;}
	.st1{fill:#FFFFFF;}
	.st2{fill:#7BB375;}
</style>
<g>
	<circle class="st0" cx="299.64" cy="300.45" r="300"/>
	<g>
		<path class="st1" d="M438.17,340.6c13.81-16.88,33-135.03-62.91-174.93c-95.9-39.9-141.93,19.95-141.17,44.5
			c-32.22,11.5-39.14,47.57-39.14,47.57s-46.81,23.02-45.27,50.64c1.53,27.62,35.29,29.16,35.29,29.16l10.24,14.07l2.04-14.07
			c0,0,3.06-1.41,7.7-3.23l8.14,7.07l2.15-10.75c2.3-0.74,4.69-1.45,7.1-2.07l5.87,6.88l3.19-8.72c9.61-1.32,17.72,0.02,18.61,7.9
			c0.89,7.82-5.46,13.69-13.61,17.95l-6.6-5.27l-1.24,8.74c-1.8,0.68-3.61,1.3-5.37,1.86l-7.03-5.81l-1.93,8.27
			c-5.03,1.2-8.52,1.73-8.52,1.73l-9.46-6.9l2.88,12.88c0,0-10.3,3.24-5.7,13.2c9.21,15.34,39.9-5.38,39.9-5.38
			s-23.77,89.7,44.49,69.83c-42.2-21.48-3.84-54.48-3.84-54.48s8.45,85.93,92.07,33.76c-65.98,6.91-50.86-26.34-43.73-33.76
			c7.12-7.41,43.73-45.48,43.73-45.48s19.19,28.6-27.62,63.68c61.38,16.36,64.45-95.65,64.45-95.65s14.58,53.71-23.79,89.76
			c87.47-19.17,43.73-128.9,43.73-128.9S438.93,279.99,438.17,340.6z M209.18,254.67c-1.47-5.56,2.75-9.98,7.16-10.74
			s20.46,3.98,25.12,6.47C246.1,252.89,210.65,260.23,209.18,254.67z"/>
	</g>
	<g>
		<path class="st2" d="M541.5,169.47l-19.05,10.99v0.01c3.77,6.98,7.21,14.15,10.32,21.51c12.22,28.88,18.85,59.45,19.76,90.97
			h22.01C573.35,248.33,561.52,206.35,541.5,169.47z"/>
		<path class="st2" d="M292.14,553.34v22.01c-44.62-1.19-86.6-13.02-123.48-33.03l11-19.05c6.98,3.76,14.15,7.2,21.51,10.31
			C230.06,545.79,260.63,552.43,292.14,553.34z"/>
		<path class="st2" d="M166.68,515.76l-11,19.04c-36.75-22.62-67.77-53.64-90.39-90.39l19.04-11
			c10.25,16.58,22.43,31.95,36.41,45.94C134.73,493.33,150.1,505.51,166.68,515.76z"/>
		<path class="st2" d="M76.82,420.43l-19.05,11c-20.01-36.88-31.84-78.86-33.03-123.48h22.01c0.91,31.51,7.55,62.08,19.76,90.97
			C69.63,406.28,73.07,413.45,76.82,420.43z"/>
		<path class="st2" d="M76.83,180.46v0.01c-3.76,6.98-7.2,14.15-10.32,21.51c-12.21,28.88-18.85,59.45-19.76,90.97H24.74
			c1.19-44.62,13.02-86.6,33.04-123.48L76.83,180.46z"/>
		<path class="st2" d="M166.68,85.14c-16.58,10.25-31.95,22.43-45.94,36.41c-13.98,13.98-26.15,29.34-36.41,45.93l-19.04-10.99
			c22.62-36.75,53.64-67.77,90.39-90.39L166.68,85.14z"/>
		<path class="st2" d="M292.14,25.55v22.01c-31.51,0.91-62.08,7.55-90.97,19.76c-7.36,3.11-14.53,6.55-21.51,10.31l-11-19.05
			C205.54,38.57,247.52,26.74,292.14,25.55z"/>
		<path class="st2" d="M430.62,58.59l-10.99,19.05h-0.01c-6.98-3.77-14.15-7.21-21.51-10.32c-28.88-12.21-59.45-18.85-90.97-19.76
			V25.55C351.76,26.74,393.74,38.57,430.62,58.59z"/>
		<path class="st2" d="M533.99,156.49l-19.04,10.99c-10.25-16.59-22.43-31.95-36.41-45.93c-13.98-13.98-29.34-26.16-45.93-36.41
			L443.6,66.1C480.35,88.72,511.37,119.74,533.99,156.49z"/>
		<path class="st2" d="M574.54,307.95c-1.19,44.62-13.02,86.6-33.03,123.48l-19.05-11c3.76-6.98,7.2-14.15,10.31-21.51
			c12.22-28.89,18.85-59.46,19.76-90.97H574.54z"/>
		<path class="st1" d="M533.99,444.41c-22.62,36.75-53.64,67.77-90.39,90.39l-10.99-19.04c16.59-10.26,31.95-22.43,45.93-36.41
			c13.98-13.99,26.16-29.36,36.41-45.94L533.99,444.41z"/>
		<path class="st2" d="M430.62,542.31c-36.88,20.02-78.86,31.85-123.48,33.04v-22.01c31.52-0.91,62.09-7.55,90.97-19.76
			c7.36-3.11,14.54-6.55,21.52-10.32L430.62,542.31z"/>
	</g>
</g>
<g>
</g>
<g>
</g>
<g>
</g>
<g>
</g>
<g>
</g>
<g>
</g>
<g>
</g>
<g>
</g>
<g>
</g>
<g>
</g>
<g>
</g>
<g>
</g>
<g>
</g>
<g>
</g>
<g>
</g>
</svg>
