<?xml version="1.0" encoding="utf-8"?>
<!-- Generator: Adobe Illustrator 25.3.1, SVG Export Plug-In . SVG Version: 6.00 Build 0)  -->
<svg version="1.1" id="Layer_1" xmlns="http://www.w3.org/2000/svg" xmlns:xlink="http://www.w3.org/1999/xlink" x="0px" y="0px"
	 viewBox="0 0 600 600" style="enable-background:new 0 0 600 600;" xml:space="preserve">
<style type="text/css">
	.st0{fill:#2D8AB2;}
	.st1{fill:#FFFFFF;}
	.st2{fill:#73B1CC;}
</style>
<g>
	<circle class="st0" cx="299.64" cy="300.45" r="300"/>
	<g>
		<path class="st1" d="M445.38,332.87l-47.75-105.2c8.73-3.29,13.26-9.02,16.56-14.01c3.32-5.03,5.06-9.79,6.3-13.66
			c2.36-7.82,2.54-12.4,2.54-12.4s-2.22,4.06-6.89,10.17c-2.28,3.05-5.37,6.52-9.09,9.8c-3.65,3.21-8.7,6.01-12.91,6.45l-1.37,0.19
			l-2.59-0.06l-1.33-0.04c0.97-0.05-0.5-0.09-0.61-0.14l-2.67-0.3c-3.62-0.31-7.33-0.62-11.14-0.96
			c-7.65-0.62-15.74-1.36-24.07-1.65c-13.33-0.76-27.39-1.15-41.57-1.31c-1.46-7.15-4.28-12.55-7.72-14.68
			c0-0.09,0.02-0.17,0.02-0.25c0-3.98-1.44-7.23-3.22-7.23s-3.22,3.24-3.22,7.23c0,0.09,0.02,0.17,0.02,0.26
			c-3.43,2.14-6.25,7.54-7.72,14.68c-14.06,0.19-28.04,0.59-41.26,1.33c-8.35,0.3-16.43,1.07-24.09,1.65
			c-8.32,0.58-13.41,1.5-18.71,0.15c-10.67-2.56-18.87-10.51-24-16.03c-5.16-5.67-8.07-9.53-8.24-9.26c0,0,0.56,1.03,1.1,3.04
			c0.65,2.02,1.41,5.11,3.04,8.81c1.59,3.71,3.71,8.32,7.29,13.07c3.52,4.72,8.47,9.95,15.74,13.48c1.22,0.61,2.59,1.12,3.94,1.63
			L155.9,332.87h-6.26c0,0,3.58,40.95,57.84,40.95c54.27,0,57.85-40.95,57.85-40.95h-4.25L214.6,230.48
			c2.34,0.21,4.44,0.29,6.98,0.56c7.65,0.59,15.73,1.37,24.08,1.65c13.36,0.74,27.49,1.16,41.7,1.35
			c2.05,8.29,5.95,13.98,10.48,13.98s8.42-5.67,10.48-13.97c14.32-0.16,28.54-0.55,41.99-1.32c8.35-0.3,16.42-1.03,24.06-1.66
			c3.61-0.3,7.12-0.6,10.53-0.9l-44.73,102.71h-6.24c0,0,3.58,40.95,57.84,40.95c54.27,0,57.85-40.95,57.85-40.95L445.38,332.87
			L445.38,332.87z M202.88,248.07v84.8h-36.93L202.88,248.07z M212.09,332.87v-85.66l38.87,85.66H212.09z M396.38,247.22
			l38.87,85.66h-38.87V247.22z M387.17,248.07v84.8h-36.93L387.17,248.07z"/>
		<path class="st1" d="M306.06,347.44c0,0-4-106.56-8.33-106.56s-8.34,106.56-8.34,106.56v31.06l-41.18,34.8h48.28h2.49h48.28
			l-41.18-34.8L306.06,347.44L306.06,347.44z"/>
	</g>
	<g>
		<path class="st2" d="M541.5,169.47l-19.05,10.99v0.01c3.77,6.98,7.21,14.15,10.32,21.51c12.22,28.88,18.85,59.45,19.76,90.97
			h22.01C573.35,248.33,561.52,206.35,541.5,169.47z"/>
		<path class="st1" d="M292.14,553.34v22.01c-44.62-1.19-86.6-13.02-123.48-33.03l11-19.05c6.98,3.76,14.15,7.2,21.51,10.31
			C230.06,545.79,260.63,552.43,292.14,553.34z"/>
		<path class="st2" d="M166.68,515.76l-11,19.04c-36.75-22.62-67.77-53.64-90.39-90.39l19.04-11
			c10.25,16.58,22.43,31.95,36.41,45.94C134.73,493.33,150.1,505.51,166.68,515.76z"/>
		<path class="st2" d="M76.82,420.43l-19.05,11c-20.01-36.88-31.84-78.86-33.03-123.48h22.01c0.91,31.51,7.55,62.08,19.76,90.97
			C69.63,406.28,73.07,413.45,76.82,420.43z"/>
		<path class="st2" d="M76.83,180.46L76.83,180.46c-3.76,6.99-7.2,14.16-10.32,21.52c-12.21,28.88-18.85,59.45-19.76,90.97H24.74
			c1.19-44.62,13.02-86.6,33.04-123.48L76.83,180.46z"/>
		<path class="st2" d="M166.68,85.14c-16.58,10.25-31.95,22.43-45.94,36.41c-13.98,13.98-26.15,29.34-36.41,45.93l-19.04-10.99
			c22.62-36.75,53.64-67.77,90.39-90.39L166.68,85.14z"/>
		<path class="st2" d="M292.14,25.55v22.01c-31.51,0.91-62.08,7.55-90.97,19.76c-7.36,3.11-14.53,6.55-21.51,10.31l-11-19.05
			C205.54,38.57,247.52,26.74,292.14,25.55z"/>
		<path class="st2" d="M430.62,58.59l-10.99,19.05h-0.01c-6.98-3.77-14.15-7.21-21.51-10.32c-28.88-12.21-59.45-18.85-90.97-19.76
			V25.55C351.76,26.74,393.74,38.57,430.62,58.59z"/>
		<path class="st2" d="M533.99,156.49l-19.04,10.99c-10.25-16.59-22.43-31.95-36.41-45.93s-29.34-26.16-45.93-36.41L443.6,66.1
			C480.35,88.72,511.37,119.74,533.99,156.49z"/>
		<path class="st2" d="M574.54,307.95c-1.19,44.62-13.02,86.6-33.03,123.48l-19.05-11c3.76-6.98,7.2-14.15,10.31-21.51
			c12.22-28.89,18.85-59.46,19.76-90.97H574.54z"/>
		<path class="st2" d="M533.99,444.41c-22.62,36.75-53.64,67.77-90.39,90.39l-10.99-19.04c16.59-10.26,31.95-22.43,45.93-36.41
			c13.98-13.99,26.16-29.36,36.41-45.94L533.99,444.41z"/>
		<path class="st2" d="M430.62,542.31c-36.88,20.02-78.86,31.85-123.48,33.04v-22.01c31.52-0.91,62.09-7.55,90.97-19.76
			c7.36-3.11,14.54-6.55,21.52-10.32L430.62,542.31z"/>
	</g>
</g>
</svg>
