<?xml version="1.0" encoding="utf-8"?>
<!-- Generator: Adobe Illustrator 25.3.1, SVG Export Plug-In . SVG Version: 6.00 Build 0)  -->
<svg version="1.1" id="Layer_1" xmlns="http://www.w3.org/2000/svg" xmlns:xlink="http://www.w3.org/1999/xlink" x="0px" y="0px"
	 viewBox="0 0 600 600" style="enable-background:new 0 0 600 600;" xml:space="preserve">
<style type="text/css">
	.st0{fill:#B73061;}
	.st1{fill:#FFFFFF;}
	.st2{fill:#CF7596;}
</style>
<g>
	<circle class="st0" cx="299.64" cy="300.45" r="300"/>
	<g>
		<g>
			<path class="st1" d="M207.28,335.52c-3.14-21.55-3.52-46.62-3.52-46.62s16.43-28.22,34.08-34.47
				c5.88-1.19-16.72,19.58-7.05,21.54c9.66,1.97,40.73-24.29,49.35-25.09c8.63-0.77,35.26,9.41,60.34,5.11
				c25.07-4.31,71.3-45.83,70.91-51.32c-0.4-5.49-17.15,1.88-17.15,1.88s10.87-14.03,6.57-23.42c-4.32-9.42-74.85-17.26-92.44-16.86
				c-17.65-30.95-62.28,14.15-64.28,16.06c-1.98,1.93,18.31-1.08,18.31,2.07c0,3.12-45.74,41.81-54.35,65.71
				s-28.99,37.21-53.27,27.03c-13.32,25.86,32.12,25.86,32.12,25.86S190.83,339.8,207.28,335.52z M372.03,184.28
				c3.34,0,6.06,2.72,6.06,6.08c0,3.34-2.73,6.07-6.06,6.07c-3.37,0-6.06-2.74-6.06-6.07C365.95,187,368.66,184.28,372.03,184.28z"
				/>
			<path class="st1" d="M412.36,297.92c0,0-3.92-36.81-20.37-32.52c3.12,21.54,3.51,46.64,3.51,46.64s-16.46,28.21-34.09,34.46
				c-5.88,1.17,16.72-19.59,7.07-21.56c-9.67-1.96-40.76,24.27-49.39,25.06c-8.61,0.8-35.25-9.38-60.32-5.09
				c-25.09,4.31-71.31,45.83-70.91,51.32c0.39,5.49,17.15-1.88,17.15-1.88s-10.88,14.03-6.57,23.41
				c4.3,9.42,74.82,17.27,92.45,16.87c17.63,30.93,62.28-14.15,64.24-16.07c2-1.92-18.32,1.08-18.32-2.06
				c0-3.12,45.75-41.8,54.35-65.71c8.63-23.89,28.98-37.21,53.3-27.05C457.82,297.92,412.36,297.92,412.36,297.92z M227.25,416.63
				c-3.36,0-6.07-2.73-6.07-6.08c0-3.35,2.72-6.05,6.07-6.05s6.08,2.73,6.08,6.05C233.34,413.92,230.61,416.63,227.25,416.63z"/>
		</g>
	</g>
	<g>
		<path class="st2" d="M541.5,169.47l-19.05,10.99v0.01c3.77,6.98,7.21,14.15,10.32,21.51c12.22,28.88,18.85,59.45,19.76,90.97
			h22.01C573.35,248.33,561.52,206.35,541.5,169.47z"/>
		<path class="st2" d="M292.14,553.34v22.01c-44.62-1.19-86.6-13.02-123.48-33.03l11-19.05c6.98,3.76,14.15,7.2,21.51,10.31
			C230.06,545.79,260.63,552.43,292.14,553.34z"/>
		<path class="st2" d="M166.68,515.76l-11,19.04c-36.75-22.62-67.77-53.64-90.39-90.39l19.04-11
			c10.25,16.58,22.43,31.95,36.41,45.94C134.73,493.33,150.1,505.51,166.68,515.76z"/>
		<path class="st2" d="M76.82,420.43l-19.05,11c-20.01-36.88-31.84-78.86-33.03-123.48h22.01c0.91,31.51,7.55,62.08,19.76,90.97
			C69.63,406.28,73.07,413.45,76.82,420.43z"/>
		<path class="st2" d="M76.83,180.46v0.01c-3.76,6.98-7.2,14.15-10.32,21.51c-12.21,28.88-18.85,59.45-19.76,90.97H24.74
			c1.19-44.62,13.02-86.6,33.04-123.48L76.83,180.46z"/>
		<path class="st2" d="M166.68,85.14c-16.58,10.25-31.95,22.43-45.94,36.41c-13.98,13.98-26.15,29.34-36.41,45.93l-19.04-10.99
			c22.62-36.75,53.64-67.77,90.39-90.39L166.68,85.14z"/>
		<path class="st1" d="M292.14,25.55v22.01c-31.51,0.91-62.08,7.55-90.97,19.76c-7.36,3.11-14.53,6.55-21.51,10.31l-11-19.05
			C205.54,38.57,247.52,26.74,292.14,25.55z"/>
		<path class="st2" d="M430.62,58.59l-10.99,19.05h-0.01c-6.98-3.77-14.15-7.21-21.51-10.32c-28.88-12.21-59.45-18.85-90.97-19.76
			V25.55C351.76,26.74,393.74,38.57,430.62,58.59z"/>
		<path class="st2" d="M533.99,156.49l-19.04,10.99c-10.25-16.59-22.43-31.95-36.41-45.93c-13.98-13.98-29.34-26.16-45.93-36.41
			L443.6,66.1C480.35,88.72,511.37,119.74,533.99,156.49z"/>
		<path class="st2" d="M574.54,307.95c-1.19,44.62-13.02,86.6-33.03,123.48l-19.05-11c3.76-6.98,7.2-14.15,10.31-21.51
			c12.22-28.89,18.85-59.46,19.76-90.97H574.54z"/>
		<path class="st2" d="M533.99,444.41c-22.62,36.75-53.64,67.77-90.39,90.39l-10.99-19.04c16.59-10.26,31.95-22.43,45.93-36.41
			c13.98-13.99,26.16-29.36,36.41-45.94L533.99,444.41z"/>
		<path class="st2" d="M430.62,542.31c-36.88,20.02-78.86,31.85-123.48,33.04v-22.01c31.52-0.91,62.09-7.55,90.97-19.76
			c7.36-3.11,14.54-6.55,21.52-10.32L430.62,542.31z"/>
	</g>
</g>
<g>
</g>
<g>
</g>
<g>
</g>
<g>
</g>
<g>
</g>
<g>
</g>
<g>
</g>
<g>
</g>
<g>
</g>
<g>
</g>
<g>
</g>
<g>
</g>
<g>
</g>
<g>
</g>
<g>
</g>
</svg>
