<?xml version="1.0" encoding="utf-8"?>
<!-- Generator: Adobe Illustrator 25.3.1, SVG Export Plug-In . SVG Version: 6.00 Build 0)  -->
<svg version="1.1" id="Layer_1" xmlns="http://www.w3.org/2000/svg" xmlns:xlink="http://www.w3.org/1999/xlink" x="0px" y="0px"
	 viewBox="0 0 600 600" style="enable-background:new 0 0 600 600;" xml:space="preserve">
<style type="text/css">
	.st0{fill:#5A4C7F;}
	.st1{fill:#FFFFFF;}
	.st2{fill:#9188AA;}
</style>
<g>
	<circle class="st0" cx="299.64" cy="300.45" r="300"/>
	<g>
		<path class="st1" d="M405.74,187.53l3.27,7.17l-23.98,10.48c-2.15-8.74,5.72-11.48-2.29-28.13c-8.81-18.38-40.24-5.44-52.54-36.59
			c-0.06,0.31-0.09,0.56-0.15,0.85l-0.19-0.7l-12.68,47.15c0,0-15.15-7.93-25.75,4.92c-10.6,12.85,5.75,31.19,5.75,31.19
			c2.93,2.45,5.79,3.82,5.38,5.02c-0.23,0.69,3.55,7.58-2.1,7.62c-5.64,0.04-7.68-0.69-9.03,2.87l-0.06,0.02l0.04,0.02
			c-0.08,0.22-0.21,0.35-0.27,0.59c-1.47,6.82,11.79,43.83,8.46,48.76c-1.59,2.34-8.33,0.72-29.33,0.43
			c-21-0.3-34.98,5.42-38.87,0.67c0,0-4.67-14.11-24.53-8.66c-19.87,5.45,0.2,54.66-38.23,46.31c43.53,47.87,46.81-29.55,59.03-19.7
			c12.23,9.87,4.62,19.27,0.83,22.2c-3.79,2.92-8.87,6.67-12.74,10.75c-3.86,4.11-2.37,35.83-4.53,40.28
			c-2.16,4.45-7.44,6.21-7.44,6.21s1.18,4.61,2.42,13.28c11,6.29,12.91-4.77,13.2-8.27c0.27-3.5,3.4-40.15,7.04-44.26
			c3.63-4.09,15.19-4.11,15.19-4.11s4.89,13.87,3.42,19.64c-1.49,5.79-14.16,29.44-9.18,37.27c4.99,7.84,3.74,33.97,5.53,33.97
			s9.57,0.26,16.75,0.26c2.88-6.83-6.21-11.75-6.21-11.75s-3.26-23.83-4.5-27.75c-2.37-7.42,9.32-33.95,12.59-40.18
			c3.27-6.22,34.41-4.5,46.54-3.48c12.14,1,22.59,37.5,22.59,37.5s-12.41,45.8-9.92,51.07c1.8,0,13.48-0.46,18,0
			c3.53-6.45-6.01-12.69-6.01-12.69l9.16-37.92c0,0-1.65-27.63-7.84-36.9c11.03,7.82,31.53-3.65,38.03-1.94
			c6.45,1.71,5.63,29.53,3.54,31.32c-2.09,1.79-5.02,6.73-5.02,6.73s4.54,9.01,7.05,14.06c9.83-1.44,5.45-13.97,5.45-13.97
			s3.75-36.1,2.4-41.88c-1.37-5.78-33.73-10.23-33.73-10.23s1-36.43-5.77-41.89c-3.61-2.9-6.12-17.73-5.88-32l59.54,32.62
			l-2.29-5.79c-8.3-26.29,18.11-39.91,11.11-57.62c-7.51-18.96-15.68-12.21-20.57-23.44c-0.04-0.04-0.06-0.08-0.08-0.12l0.04-0.01
			c-0.04-0.1-0.1-0.23-0.16-0.34l24.2-10.57l3.24,7.41l16.96-18.14L405.74,187.53z M330.73,157.31
			c6.78,16.96,34.85,12.55,40.24,24.88c5.92,13.55,1.07,16.82,4.18,27.29l-0.38,0.18c-13.27,4.76-50.57,20.18-51.75,20.29
			c0-0.01,2.29-0.71,0-0.02c-2.29,0.7-0.91-4.82-0.46-5.28c8.39-2.08,10.43-3.1,6.78-8.3c0.2-0.31,1.41-1.7,1.54-2.47
			c0.13-0.78-0.66-0.75-0.66-0.75s0.56-0.13,0.77-0.88c0.22-0.73-1.57-2.91-1.57-2.91s2.61-1.37,2.92-2.58
			c0.31-1.21-6.92-6.03-7.04-7.23c-0.14-1.19,0.63-2.01,0.83-2.36c0.18-0.36-0.18-3.46-4.49-7.3L330.73,157.31z M395.16,237.53
			c5.47,12.48-17.48,30.36-8.77,47.05l-47.59-26.16c0.69-10.91,3.22-20.64,8.4-23.17c12.59-6.12,24.07-16.03,31.44-13.98
			c0.97-0.14,1.78-0.49,2.51-0.98C385.7,225.35,390.35,226.53,395.16,237.53z"/>
	</g>
	<g>
		<path class="st2" d="M541.5,169.47l-19.05,10.99v0.01c3.77,6.98,7.21,14.15,10.32,21.51c12.22,28.88,18.85,59.45,19.76,90.97
			h22.01C573.35,248.33,561.52,206.35,541.5,169.47z"/>
		<path class="st2" d="M292.14,553.34v22.01c-44.62-1.19-86.6-13.02-123.48-33.03l11-19.05c6.98,3.76,14.15,7.2,21.51,10.31
			C230.06,545.79,260.63,552.43,292.14,553.34z"/>
		<path class="st2" d="M166.68,515.76l-11,19.04c-36.75-22.62-67.77-53.64-90.39-90.39l19.04-11
			c10.25,16.58,22.43,31.95,36.41,45.94C134.73,493.33,150.1,505.51,166.68,515.76z"/>
		<path class="st1" d="M76.82,420.43l-19.05,11c-20.01-36.88-31.84-78.86-33.03-123.48h22.01c0.91,31.51,7.55,62.08,19.76,90.97
			C69.63,406.28,73.07,413.45,76.82,420.43z"/>
		<path class="st2" d="M76.83,180.46v0.01c-3.76,6.98-7.2,14.15-10.32,21.51c-12.21,28.88-18.85,59.45-19.76,90.97H24.74
			c1.19-44.62,13.02-86.6,33.04-123.48L76.83,180.46z"/>
		<path class="st2" d="M166.68,85.14c-16.58,10.25-31.95,22.43-45.94,36.41c-13.98,13.98-26.15,29.34-36.41,45.93l-19.04-10.99
			c22.62-36.75,53.64-67.77,90.39-90.39L166.68,85.14z"/>
		<path class="st2" d="M292.14,25.55v22.01c-31.51,0.91-62.08,7.55-90.97,19.76c-7.36,3.11-14.53,6.55-21.51,10.31l-11-19.05
			C205.54,38.57,247.52,26.74,292.14,25.55z"/>
		<path class="st2" d="M430.62,58.59l-10.99,19.05h-0.01c-6.98-3.77-14.15-7.21-21.51-10.32c-28.88-12.21-59.45-18.85-90.97-19.76
			V25.55C351.76,26.74,393.74,38.57,430.62,58.59z"/>
		<path class="st2" d="M533.99,156.49l-19.04,10.99c-10.25-16.59-22.43-31.95-36.41-45.93c-13.98-13.98-29.34-26.16-45.93-36.41
			L443.6,66.1C480.35,88.72,511.37,119.74,533.99,156.49z"/>
		<path class="st2" d="M574.54,307.95c-1.19,44.62-13.02,86.6-33.03,123.48l-19.05-11c3.76-6.98,7.2-14.15,10.31-21.51
			c12.22-28.89,18.85-59.46,19.76-90.97H574.54z"/>
		<path class="st2" d="M533.99,444.41c-22.62,36.75-53.64,67.77-90.39,90.39l-10.99-19.04c16.59-10.26,31.95-22.43,45.93-36.41
			c13.98-13.99,26.16-29.36,36.41-45.94L533.99,444.41z"/>
		<path class="st2" d="M430.62,542.31c-36.88,20.02-78.86,31.85-123.48,33.04v-22.01c31.52-0.91,62.09-7.55,90.97-19.76
			c7.36-3.11,14.54-6.55,21.52-10.32L430.62,542.31z"/>
	</g>
</g>
<g>
</g>
<g>
</g>
<g>
</g>
<g>
</g>
<g>
</g>
<g>
</g>
<g>
</g>
<g>
</g>
<g>
</g>
<g>
</g>
<g>
</g>
<g>
</g>
<g>
</g>
<g>
</g>
<g>
</g>
</svg>
