<?xml version="1.0" encoding="utf-8"?>
<!-- Generator: Adobe Illustrator 25.3.1, SVG Export Plug-In . SVG Version: 6.00 Build 0)  -->
<svg version="1.1" id="Layer_1" xmlns="http://www.w3.org/2000/svg" xmlns:xlink="http://www.w3.org/1999/xlink" x="0px" y="0px"
	 viewBox="0 0 600 600" style="enable-background:new 0 0 600 600;" xml:space="preserve">
<style type="text/css">
	.st0{fill:#2B6FAD;}
	.st1{fill:#FFFFFF;}
	.st2{fill:#729FC8;}
</style>
<g>
	<circle class="st0" cx="299.64" cy="300.45" r="300"/>
	<g>
		<g>
			<path class="st1" d="M204.34,340.05c3.79-5.02,11.53-15.57,13.61-18.42c2.12-2.82,20.85,0.46,20.85,0.46l10.04,1.89
				c0,0-12.7,11.07-16.78,14.66c-4.08,3.56,6.23,15.4,7.22,17.83c0.97,2.41-5.72,6.3-3.37,8.28c2.36,1.98,12.31-1.11,12.63-6.25
				c0.33-5.14-5.35-12.69-2.98-17.45c2.36-4.73,14.47-10.77,14.47-10.77l17.7,2.8c0,0-11.8,5.28-14.84,10.62
				c-3.05,5.34,5.01,17.84,11.02,22.45c6,4.64,18.46,11.45,20.77,4.94c-10.01-2.32-23.66-17.22-20.9-20.77
				c2.77-3.56,33.21-22.47,34.47-27.64c2.27,18.02,20.16,18.33,20.16,18.33s-14.84,16-19.27,21.51c-4.44,5.51,3.47,14.38,3.47,14.38
				s-1.99,4.46,1.34,12.56c35.09,55.91,96.48,13.85,96.92,3.06c-47.1,22.03-62.49-0.44-62.49-0.44s5.1-7.13,9.45-4.91
				c4.36,2.21-0.02-3.46-2.07-19.68c-2.05-16.22-37.3-2.03-37.3-2.03s6.84-9.93,13.33-14.47c4.28-4.02,3.94-3.46,9.35-10.05
				c0,0,23.02,6.51,25.2-2.04c-6.33-0.6-20.83-3.94-18.41-11.5c4.94-12.67,18.58-2.13,21.56,4.55c7.19-7.97-9.01-19.46-13.93-20.19
				c-0.56-3.71,0.06-8.87-0.76-14.76c-0.82-5.88,1.92-16.93,1.92-16.93s15.31,34.78,28.12,24.59s19.89-11.19,15.23-12.65
				s-3.33-10.12-3.33-10.12s26.71-5.34,45.03,43.31c7.22-8.01-22.9-91.76-71.51-65.47c-4.69,3.95-5.51,4.21-6.98,5.65
				c-1.81,3.38-11.38-1.51-15.85,8.37c-4.46,9.9-0.66,30.75-0.66,30.75s-15.66-14.26-29.87-2.96c2.71-4.6-3.22-37.38-2.71-41.86
				c0.51-4.48,20.69-5.61,29.47-0.27c2.88-6.27-10.79-10.09-18.32-10.97s-22.04,2.43-23.59,8.37c-1.53,5.95,3.22,17.96,3.22,17.96
				l-14.62-10.33c0,0-4.45-12.76-2.83-17.81c1.62-5.04,10.97-6.49,14.31-10.39s-1.04-12.1-4.68-13.28c-3.64-1.18-1,7.21-3.37,8.28
				c-2.37,1.05-18.03,2.33-17.62,7.73c0.44,5.4,1.78,22.19,1.78,22.19l-8.51-5.65c0,0-15.7-10.73-15.23-14.23
				c0.47-3.51,2.3-16.46,3.12-22.7c0.78-6.25-1.46-11.22-4.27-10.92c-2.83,0.29-0.07,4.35-6.81,11.24
				c-6.75,6.89-5.26,21.53-1.61,26.53c3.66,4.99,7.78,7.74,7.78,7.74s-23.1-1.77-36.35,3.87c-3.87,0.96-44.79-7.33-37.73-26.8
				c2.75-6.76,22.69-17.72,33.83-14.94c11.14,2.77,43.44-15.19,43.44-15.19l-2.79-10.33c0,0-31.54,15.45-41.88,13.62
				c-10.31-1.82-30.3-7.5-50.5,19.55c-20.21,27.04,43.09,64.53,43.09,64.53l0.01-0.02c6.82,12.22,21.46,24.47,21.46,24.47
				s-4.88-0.92-10.99,0.11c-6.12,1.02-17.41,10.42-17.38,20.1c0.03,9.65-9.4,10.95-8.08,13.37
				C189.87,347.87,200.54,345.06,204.34,340.05z"/>
			<path class="st1" d="M362,384.83c0,0,24.89-5.55,43.39,2.85c-1.47-18.99-46.97-23.13-46.97-23.13L362,384.83z"/>
			<path class="st1" d="M384.68,309.35c0,0,32.48,26.8,46.8,14.22c-19.11-6.9-30.06-26.27-30.06-26.27L384.68,309.35z"/>
			<path class="st1" d="M257.75,198.59c1.27,3.87,8.05,6.05,11.07,4.51c3.05-1.54,11.55-5.69,20.95-13.24
				c-7.73,0.14-15.76-5.98-22.44-6.72c-6.69-0.76-11.79,4.19-11.33,7.88C256.47,194.71,256.47,194.71,257.75,198.59z"/>
		</g>
	</g>
	<g>
		<path class="st2" d="M541.5,169.47l-19.05,10.99v0.01c3.77,6.98,7.21,14.15,10.32,21.51c12.22,28.88,18.85,59.45,19.76,90.97
			h22.01C573.35,248.33,561.52,206.35,541.5,169.47z"/>
		<path class="st2" d="M292.14,553.34v22.01c-44.62-1.19-86.6-13.02-123.48-33.03l11-19.05c6.98,3.76,14.15,7.2,21.51,10.31
			C230.06,545.79,260.63,552.43,292.14,553.34z"/>
		<path class="st1" d="M166.68,515.76l-11,19.04c-36.75-22.62-67.77-53.64-90.39-90.39l19.04-11
			c10.25,16.58,22.43,31.95,36.41,45.94C134.73,493.33,150.1,505.51,166.68,515.76z"/>
		<path class="st2" d="M76.82,420.43l-19.05,11c-20.01-36.88-31.84-78.86-33.03-123.48h22.01c0.91,31.51,7.55,62.08,19.76,90.97
			C69.63,406.28,73.07,413.45,76.82,420.43z"/>
		<path class="st2" d="M76.83,180.46L76.83,180.46c-3.76,6.99-7.2,14.16-10.32,21.52c-12.21,28.88-18.85,59.45-19.76,90.97H24.74
			c1.19-44.62,13.02-86.6,33.04-123.48L76.83,180.46z"/>
		<path class="st2" d="M166.68,85.14c-16.58,10.25-31.95,22.43-45.94,36.41c-13.98,13.98-26.15,29.34-36.41,45.93l-19.04-10.99
			c22.62-36.75,53.64-67.77,90.39-90.39L166.68,85.14z"/>
		<path class="st2" d="M292.14,25.55v22.01c-31.51,0.91-62.08,7.55-90.97,19.76c-7.36,3.11-14.53,6.55-21.51,10.31l-11-19.05
			C205.54,38.57,247.52,26.74,292.14,25.55z"/>
		<path class="st2" d="M430.62,58.59l-10.99,19.05h-0.01c-6.98-3.77-14.15-7.21-21.51-10.32c-28.88-12.21-59.45-18.85-90.97-19.76
			V25.55C351.76,26.74,393.74,38.57,430.62,58.59z"/>
		<path class="st2" d="M533.99,156.49l-19.04,10.99c-10.25-16.59-22.43-31.95-36.41-45.93s-29.34-26.16-45.93-36.41L443.6,66.1
			C480.35,88.72,511.37,119.74,533.99,156.49z"/>
		<path class="st2" d="M574.54,307.95c-1.19,44.62-13.02,86.6-33.03,123.48l-19.05-11c3.76-6.98,7.2-14.15,10.31-21.51
			c12.22-28.89,18.85-59.46,19.76-90.97H574.54z"/>
		<path class="st2" d="M533.99,444.41c-22.62,36.75-53.64,67.77-90.39,90.39l-10.99-19.04c16.59-10.26,31.95-22.43,45.93-36.41
			c13.98-13.99,26.16-29.36,36.41-45.94L533.99,444.41z"/>
		<path class="st2" d="M430.62,542.31c-36.88,20.02-78.86,31.85-123.48,33.04v-22.01c31.52-0.91,62.09-7.55,90.97-19.76
			c7.36-3.11,14.54-6.55,21.52-10.32L430.62,542.31z"/>
	</g>
</g>
</svg>
