<?xml version="1.0" encoding="utf-8"?>
<!-- Generator: Adobe Illustrator 25.3.1, SVG Export Plug-In . SVG Version: 6.00 Build 0)  -->
<svg version="1.1" id="Layer_1" xmlns="http://www.w3.org/2000/svg" xmlns:xlink="http://www.w3.org/1999/xlink" x="0px" y="0px"
	 viewBox="0 0 600 600" style="enable-background:new 0 0 600 600;" xml:space="preserve">
<style type="text/css">
	.st0{fill:#D85E0B;}
	.st1{fill:#FFFFFF;}
	.st2{fill:#E5945C;}
</style>
<g>
	<circle class="st0" cx="299.64" cy="300.45" r="300"/>
	<g>
		<path class="st1" d="M442.42,162.49c0,0-60.38,123.08-96.69,98.43c-10.76-6.93-22.9-9.41-46.12-9.22
			c-23.21,0.21-23.13,2.84-49.25,9.19c-53.12,12.56-96.66-98.44-96.66-98.44s-18.26,145.48,75.37,160.06
			c3.91-1.24-7.92,22.23,6.39,45.02c14.31,22.78,25.15,24.2,23.4,42.6c0.52,11.3,10.81,49.08,38.57,52.28
			c0.22-0.17,1.06-0.11,1.3,0.04c27.76-3.19,40.15-42.43,38.58-52.29c-1.78-18.41,9.63-18.91,23.92-41.68
			c14.3-22.79,0.81-40.91,5.86-45.93C474.91,302.03,442.42,162.49,442.42,162.49z M271.4,359.38c-3.7-1.98-28.91-18.17-23.66-24.28
			c5.25-6.13,31.72,14.02,33.69,16.36C283.38,353.78,275.1,361.38,271.4,359.38z M291.05,452.84c-4.36-0.28-9.61-9.92-6.79-14.29
			c2.82-4.36,6.72-3.2,6.72,0C290.98,441.77,295.43,453.14,291.05,452.84z M305.09,452.88c-4.38,0.29,0.07-11.09,0.07-14.29
			s3.91-4.36,6.72,0C314.7,442.96,309.44,452.6,305.09,452.88z M324.72,359.42c-3.69,2-11.96-5.59-10.03-7.94
			c1.96-2.33,28.43-22.5,33.69-16.36C353.65,341.25,328.43,357.42,324.72,359.42z"/>
	</g>
	<g>
		<path class="st2" d="M541.5,169.47l-19.05,10.99v0.01c3.77,6.98,7.21,14.15,10.32,21.51c12.22,28.88,18.85,59.45,19.76,90.97
			h22.01C573.35,248.33,561.52,206.35,541.5,169.47z"/>
		<path class="st2" d="M292.14,553.34v22.01c-44.62-1.19-86.6-13.02-123.48-33.03l11-19.05c6.98,3.76,14.15,7.2,21.51,10.31
			C230.06,545.79,260.63,552.43,292.14,553.34z"/>
		<path class="st2" d="M166.68,515.76l-11,19.04c-36.75-22.62-67.77-53.64-90.39-90.39l19.04-11
			c10.25,16.58,22.43,31.95,36.41,45.94C134.73,493.33,150.1,505.51,166.68,515.76z"/>
		<path class="st2" d="M76.82,420.43l-19.05,11c-20.01-36.88-31.84-78.86-33.03-123.48h22.01c0.91,31.51,7.55,62.08,19.76,90.97
			C69.63,406.28,73.07,413.45,76.82,420.43z"/>
		<path class="st2" d="M76.83,180.46v0.01c-3.76,6.98-7.2,14.15-10.32,21.51c-12.21,28.88-18.85,59.45-19.76,90.97H24.74
			c1.19-44.62,13.02-86.6,33.04-123.48L76.83,180.46z"/>
		<path class="st2" d="M166.68,85.14c-16.58,10.25-31.95,22.43-45.94,36.41c-13.98,13.98-26.15,29.34-36.41,45.93l-19.04-10.99
			c22.62-36.75,53.64-67.77,90.39-90.39L166.68,85.14z"/>
		<path class="st2" d="M292.14,25.55v22.01c-31.51,0.91-62.08,7.55-90.97,19.76c-7.36,3.11-14.53,6.55-21.51,10.31l-11-19.05
			C205.54,38.57,247.52,26.74,292.14,25.55z"/>
		<path class="st2" d="M430.62,58.59l-10.99,19.05h-0.01c-6.98-3.77-14.15-7.21-21.51-10.32c-28.88-12.21-59.45-18.85-90.97-19.76
			V25.55C351.76,26.74,393.74,38.57,430.62,58.59z"/>
		<path class="st1" d="M533.99,156.49l-19.04,10.99c-10.25-16.59-22.43-31.95-36.41-45.93c-13.98-13.98-29.34-26.16-45.93-36.41
			L443.6,66.1C480.35,88.72,511.37,119.74,533.99,156.49z"/>
		<path class="st2" d="M574.54,307.95c-1.19,44.62-13.02,86.6-33.03,123.48l-19.05-11c3.76-6.98,7.2-14.15,10.31-21.51
			c12.22-28.89,18.85-59.46,19.76-90.97H574.54z"/>
		<path class="st2" d="M533.99,444.41c-22.62,36.75-53.64,67.77-90.39,90.39l-10.99-19.04c16.59-10.26,31.95-22.43,45.93-36.41
			c13.98-13.99,26.16-29.36,36.41-45.94L533.99,444.41z"/>
		<path class="st2" d="M430.62,542.31c-36.88,20.02-78.86,31.85-123.48,33.04v-22.01c31.52-0.91,62.09-7.55,90.97-19.76
			c7.36-3.11,14.54-6.55,21.52-10.32L430.62,542.31z"/>
	</g>
</g>
<g>
</g>
<g>
</g>
<g>
</g>
<g>
</g>
<g>
</g>
<g>
</g>
<g>
</g>
<g>
</g>
<g>
</g>
<g>
</g>
<g>
</g>
<g>
</g>
<g>
</g>
<g>
</g>
<g>
</g>
</svg>
