<?xml version="1.0" encoding="utf-8"?>
<!-- Generator: Adobe Illustrator 25.3.1, SVG Export Plug-In . SVG Version: 6.00 Build 0)  -->
<svg version="1.1" id="Layer_1" xmlns="http://www.w3.org/2000/svg" xmlns:xlink="http://www.w3.org/1999/xlink" x="0px" y="0px"
	 viewBox="0 0 600 600" style="enable-background:new 0 0 600 600;" xml:space="preserve">
<style type="text/css">
	.st0{fill:#029E7E;}
	.st1{fill:#FFFFFF;}
	.st2{fill:#56BEA9;}
</style>
<g>
	<circle class="st0" cx="299.64" cy="300.45" r="300"/>
	<g>
		<g>
			<path class="st1" d="M398.96,237.97c-10.16-37.02-24.57-88.81-101.08-87.5c-25.15,0.74-49.33,13.63-47.27,34.36
				c14.58,7.67,33.39,68.11,39.45,80.89s16.59,32.3,27.4,38.2c10.79,5.9-14.97,43.41-36.88,44.37
				c-21.91,0.98-77.15,24.85-83.81,56.04c13.46-15.8,66.42-43.54,89.24-42.71c22.83,0.85,44.69-25.33,48.34-32.79
				c0.99,33.73-32.51,46.89-56.11,47.46c-33.95,0.58-84.91,32.91-78.85,52.71c6.36-17.02,48.96-37,77.14-38.32
				c28.19-1.31,54.37-15.82,67.79-27.71c-6.51,26.47-30.97,35.97-59.15,40.99c-28.18,5.03-84.8,20.58-83.93,46.5
				c10.94-16.11,61.14-31.45,115.32-34.96C370.76,411.98,415.67,302.53,398.96,237.97z M366.76,193.72c0,0,48.4,66.68-8.62,99.45
				C393.41,248.6,366.76,193.72,366.76,193.72z"/>
			<path class="st1" d="M227.75,280.25c0.44,3.93-2.14,9.01-2.78,11.79c-0.65,2.78-4.42,1.79-3.93,5.73
				c0.49,3.93,5.24,5.43,5.24,5.43s-3.6,2.14-3.44,5.08c0.82,5.08,9.23,1.81,10.66,3.75c0.95,1.38,0.27,2.44,0.07,3.51
				c-0.76,4.04-7.95,5.36-3.52,15.68c5.81,13.56,67.18,5.74,81.93-21.45c-52.76-47.54-53.91-117.34-64.41-116.01
				c-10.49,1.28-19.67,45.2-19.99,55.36c-0.33,10.15-10.98,16.55-12.3,24.41C213.98,281.39,225.11,278.12,227.75,280.25z
				 M230.69,244c0.67-1.85,15.56,2.84,15.56,4.96c0,2.14-10.98,2.46-13.59,2.14C231.74,250.97,228.52,249.83,230.69,244z"/>
		</g>
	</g>
	<g>
		<path class="st2" d="M541.5,169.47l-19.05,10.99v0.01c3.77,6.98,7.21,14.15,10.32,21.51c12.22,28.88,18.85,59.45,19.76,90.97
			h22.01C573.35,248.33,561.52,206.35,541.5,169.47z"/>
		<path class="st2" d="M292.14,553.34v22.01c-44.62-1.19-86.6-13.02-123.48-33.03l11-19.05c6.98,3.76,14.15,7.2,21.51,10.31
			C230.06,545.79,260.63,552.43,292.14,553.34z"/>
		<path class="st2" d="M166.68,515.76l-11,19.04c-36.75-22.62-67.77-53.64-90.39-90.39l19.04-11
			c10.25,16.58,22.43,31.95,36.41,45.94C134.73,493.33,150.1,505.51,166.68,515.76z"/>
		<path class="st2" d="M76.82,420.43l-19.05,11c-20.01-36.88-31.84-78.86-33.03-123.48h22.01c0.91,31.51,7.55,62.08,19.76,90.97
			C69.63,406.28,73.07,413.45,76.82,420.43z"/>
		<path class="st2" d="M76.83,180.46L76.83,180.46c-3.76,6.99-7.2,14.16-10.32,21.52c-12.21,28.88-18.85,59.45-19.76,90.97H24.74
			c1.19-44.62,13.02-86.6,33.04-123.48L76.83,180.46z"/>
		<path class="st2" d="M166.68,85.14c-16.58,10.25-31.95,22.43-45.94,36.41c-13.98,13.98-26.15,29.34-36.41,45.93l-19.04-10.99
			c22.62-36.75,53.64-67.77,90.39-90.39L166.68,85.14z"/>
		<path class="st2" d="M292.14,25.55v22.01c-31.51,0.91-62.08,7.55-90.97,19.76c-7.36,3.11-14.53,6.55-21.51,10.31l-11-19.05
			C205.54,38.57,247.52,26.74,292.14,25.55z"/>
		<path class="st2" d="M430.62,58.59l-10.99,19.05h-0.01c-6.98-3.77-14.15-7.21-21.51-10.32c-28.88-12.21-59.45-18.85-90.97-19.76
			V25.55C351.76,26.74,393.74,38.57,430.62,58.59z"/>
		<path class="st2" d="M533.99,156.49l-19.04,10.99c-10.25-16.59-22.43-31.95-36.41-45.93s-29.34-26.16-45.93-36.41L443.6,66.1
			C480.35,88.72,511.37,119.74,533.99,156.49z"/>
		<path class="st2" d="M574.54,307.95c-1.19,44.62-13.02,86.6-33.03,123.48l-19.05-11c3.76-6.98,7.2-14.15,10.31-21.51
			c12.22-28.89,18.85-59.46,19.76-90.97H574.54z"/>
		<path class="st2" d="M533.99,444.41c-22.62,36.75-53.64,67.77-90.39,90.39l-10.99-19.04c16.59-10.26,31.95-22.43,45.93-36.41
			c13.98-13.99,26.16-29.36,36.41-45.94L533.99,444.41z"/>
		<path class="st1" d="M430.62,542.31c-36.88,20.02-78.86,31.85-123.48,33.04v-22.01c31.52-0.91,62.09-7.55,90.97-19.76
			c7.36-3.11,14.54-6.55,21.52-10.32L430.62,542.31z"/>
	</g>
</g>
</svg>
